<svg width="68" height="69" viewBox="0 0 68 69" fill="none" xmlns="http://www.w3.org/2000/svg">
<circle cx="34" cy="34.0234" r="34" fill="#078EBF"/>
<mask id="mask0_502_33" style="mask-type:alpha" maskUnits="userSpaceOnUse" x="11" y="11" width="46" height="46">
<rect x="11.3333" y="11.3574" width="45.3333" height="45.3333" fill="#D9D9D9"/>
</mask>
<g mask="url(#mask0_502_33)">
<path d="M33.9999 52.9135C33.1604 52.9135 32.4154 52.7115 31.7648 52.3075C31.1141 51.9035 30.6629 51.3499 30.411 50.6469H29.9703C29.1203 50.6469 28.3831 50.3347 27.7587 49.7103C27.1343 49.0859 26.8221 48.3487 26.8221 47.4987V40.7617C24.8178 39.4499 23.2306 37.7552 22.0606 35.6774C20.8905 33.5996 20.3055 31.3172 20.3055 28.8302C20.3055 25.0209 21.6356 21.7862 24.2958 19.126C26.9559 16.4658 30.1907 15.1357 33.9999 15.1357C37.8092 15.1357 41.0439 16.4658 43.7041 19.126C46.3643 21.7862 47.6944 25.0209 47.6944 28.8302C47.6944 31.3382 47.1093 33.6259 45.9393 35.6931C44.7692 37.7604 43.182 39.4499 41.1777 40.7617V47.4987C41.1777 48.3487 40.8655 49.0859 40.2411 49.7103C39.6167 50.3347 38.8795 50.6469 38.0295 50.6469H37.5888C37.337 51.3499 36.8857 51.9035 36.2351 52.3075C35.5845 52.7115 34.8394 52.9135 33.9999 52.9135ZM29.9703 47.4987H38.0295V45.5469H29.9703V47.4987ZM29.9703 43.658H38.0295V41.8006H29.9703V43.658ZM29.561 38.6525H32.8036V32.6395L28.5221 28.358L30.1592 26.7209L33.9999 30.5617L37.8407 26.7209L39.4777 28.358L35.1962 32.6395V38.6525H38.4388C40.2647 37.7919 41.7391 36.4776 42.862 34.7094C43.9848 32.9411 44.5463 30.9814 44.5463 28.8302C44.5463 25.8709 43.5283 23.3734 41.4925 21.3376C39.4567 19.3018 36.9592 18.2839 33.9999 18.2839C31.0407 18.2839 28.5431 19.3018 26.5073 21.3376C24.4715 23.3734 23.4536 25.8709 23.4536 28.8302C23.4536 30.9814 24.015 32.9411 25.1379 34.7094C26.2607 36.4776 27.7351 37.7919 29.561 38.6525Z" fill="white"/>
</g>
</svg>
