<svg width="184" height="122" viewBox="0 0 184 122" fill="none" xmlns="http://www.w3.org/2000/svg">
<g clip-path="url(#clip0_502_44)">
<path d="M178.48 0H5.52C2.47139 0 0 2.45794 0 5.48997V116.51C0 119.542 2.47139 122 5.52 122H178.48C181.529 122 184 119.542 184 116.51V5.48997C184 2.45794 181.529 0 178.48 0Z" fill="white"/>
<g opacity="0.3">
<path d="M171.885 44.4424H21.2318V44.9603H171.885V44.4424Z" fill="#858585"/>
<path d="M171.885 54.4688H21.2318V54.9885H171.885V54.4688Z" fill="#858585"/>
<path d="M171.885 34.416H21.2318V34.9357H171.885V34.416Z" fill="#858585"/>
<path d="M171.885 64.4951H21.2318V65.0148H171.885V64.4951Z" fill="#858585"/>
<path d="M171.885 74.5225H21.2318V75.0403H171.885V74.5225Z" fill="#858585"/>
<path d="M171.885 84.5508H21.2318V85.0687H171.885V84.5508Z" fill="#858585"/>
<path d="M171.885 94.5771H21.2318V95.095H171.885V94.5771Z" fill="#858585"/>
</g>
<path d="M12.5654 14.798V10.1406H14.203C14.5287 10.1406 14.7992 10.1955 15.0108 10.3072C15.2224 10.4188 15.3806 10.5688 15.4837 10.7555C15.5867 10.9422 15.6401 11.1508 15.6401 11.3777C15.6401 11.5772 15.6051 11.7437 15.5333 11.8736C15.4616 12.0036 15.3696 12.1079 15.2537 12.1829C15.1377 12.2579 15.0145 12.3147 14.8802 12.3513V12.397C15.0237 12.4062 15.1672 12.4556 15.3125 12.5471C15.4579 12.6386 15.5793 12.7685 15.6769 12.9387C15.7744 13.1089 15.8241 13.3157 15.8241 13.5627C15.8241 13.8098 15.7707 14.0056 15.664 14.1922C15.5573 14.3789 15.388 14.5271 15.158 14.6351C14.928 14.7449 14.6281 14.7998 14.2601 14.7998H12.5673L12.5654 14.798ZM13.1322 12.1866H14.1846C14.3557 12.1866 14.5103 12.1536 14.6483 12.0859C14.7863 12.02 14.8967 11.9249 14.9777 11.8041C15.0586 11.6833 15.0991 11.5406 15.0991 11.3759C15.0991 11.1709 15.0273 10.9971 14.8838 10.8543C14.7403 10.7116 14.514 10.6402 14.203 10.6402H13.1322V12.1866ZM13.1322 14.2965H14.2582C14.6281 14.2965 14.8912 14.2252 15.0476 14.0824C15.204 13.9397 15.2813 13.7658 15.2813 13.5609C15.2813 13.4035 15.2408 13.2571 15.1598 13.1235C15.0789 12.9899 14.9648 12.882 14.8139 12.7996C14.6649 12.7191 14.4882 12.677 14.284 12.677H13.1322V14.2965Z" fill="#A7B3C7"/>
<path d="M17.9087 14.8802C17.6861 14.8802 17.4837 14.8381 17.3034 14.7539C17.1212 14.6698 16.9777 14.5472 16.871 14.3879C16.7643 14.2287 16.7109 14.0348 16.7109 13.806C16.7109 13.6065 16.7514 13.4437 16.8305 13.3174C16.9096 13.193 17.0163 13.0941 17.1488 13.0228C17.2813 12.9514 17.4285 12.8983 17.5886 12.8617C17.7487 12.8251 17.9106 12.7977 18.0743 12.7757C18.2878 12.7483 18.4607 12.7281 18.5951 12.7135C18.7294 12.6989 18.8269 12.6751 18.8876 12.6403C18.9502 12.6055 18.9796 12.5451 18.9796 12.4591V12.4408C18.9796 12.2158 18.9189 12.0419 18.7956 11.9175C18.6723 11.793 18.4865 11.7308 18.2381 11.7308C17.9897 11.7308 17.7781 11.7875 17.6327 11.8992C17.4855 12.0108 17.3843 12.1316 17.3236 12.2578L16.8121 12.0767C16.9041 11.8644 17.0255 11.6997 17.1801 11.5789C17.3328 11.46 17.5003 11.3758 17.6824 11.3282C17.8646 11.2806 18.0449 11.2568 18.2215 11.2568C18.3338 11.2568 18.4644 11.2696 18.6116 11.2971C18.7588 11.3245 18.9005 11.3776 19.0385 11.46C19.1765 11.5423 19.2906 11.6649 19.3826 11.8315C19.4746 11.9962 19.5206 12.2176 19.5206 12.4957V14.7979H18.9815V14.3239H18.9539C18.9171 14.3989 18.8563 14.4813 18.7717 14.5673C18.6871 14.6533 18.573 14.7265 18.4313 14.7887C18.2896 14.8491 18.1167 14.8802 17.9124 14.8802H17.9087ZM17.9915 14.3989C18.205 14.3989 18.3853 14.3568 18.5325 14.2745C18.6797 14.1903 18.7901 14.0842 18.8655 13.9506C18.941 13.8188 18.9796 13.6797 18.9796 13.5352V13.0447C18.9575 13.0722 18.906 13.096 18.8306 13.1179C18.7533 13.1399 18.665 13.1582 18.5656 13.1747C18.4663 13.1911 18.3687 13.2039 18.2749 13.2149C18.1811 13.2259 18.1056 13.2351 18.0467 13.2442C17.9069 13.2625 17.7763 13.2918 17.6548 13.332C17.5334 13.3723 17.4359 13.4327 17.3623 13.5114C17.2887 13.5919 17.2519 13.6999 17.2519 13.8353C17.2519 14.022 17.3218 14.1629 17.4616 14.258C17.6015 14.3532 17.7781 14.4008 17.9934 14.4008L17.9915 14.3989Z" fill="#A7B3C7"/>
<path d="M20.7 14.7984V11.3049H21.2207V11.8319H21.2575C21.3219 11.6599 21.4379 11.519 21.6053 11.411C21.7727 11.3031 21.9623 11.25 22.172 11.25C22.2125 11.25 22.2603 11.25 22.3211 11.2518C22.3799 11.2518 22.4259 11.2555 22.4554 11.2591V11.8045C22.437 11.8008 22.3947 11.7935 22.3303 11.7825C22.2659 11.7734 22.1978 11.7679 22.126 11.7679C21.9549 11.7679 21.804 11.8027 21.6697 11.874C21.5354 11.9454 21.4305 12.0424 21.3532 12.165C21.2759 12.2894 21.2373 12.4285 21.2373 12.5877V14.7984H20.6982H20.7Z" fill="#A7B3C7"/>
<path d="M29.1365 11.5959H28.5698C28.5366 11.433 28.4778 11.2903 28.395 11.1677C28.3122 11.0451 28.211 10.9408 28.0932 10.8566C27.9754 10.7724 27.8448 10.7084 27.7013 10.6663C27.5578 10.6242 27.4087 10.6022 27.2523 10.6022C26.969 10.6022 26.7132 10.6736 26.4832 10.8163C26.2532 10.9591 26.071 11.1695 25.9367 11.4459C25.8024 11.724 25.7343 12.0644 25.7343 12.467C25.7343 12.8696 25.8024 13.21 25.9367 13.4881C26.071 13.7663 26.2532 13.9749 26.4832 14.1176C26.7132 14.2604 26.969 14.3318 27.2523 14.3318C27.4087 14.3318 27.5578 14.3098 27.7013 14.2677C27.8448 14.2256 27.9754 14.1616 28.0932 14.0774C28.211 13.9932 28.3122 13.8889 28.395 13.7663C28.4778 13.6418 28.5366 13.5009 28.5698 13.3399H29.1365C29.0942 13.5778 29.0169 13.7919 28.9028 13.9786C28.7906 14.1671 28.6489 14.3263 28.4814 14.458C28.314 14.5898 28.1263 14.6886 27.9184 14.7563C27.7105 14.824 27.4878 14.8588 27.2523 14.8588C26.853 14.8588 26.4979 14.7618 26.187 14.5678C25.876 14.3738 25.6313 14.0975 25.4528 13.7407C25.2743 13.382 25.186 12.9574 25.186 12.467C25.186 11.9766 25.2743 11.552 25.4528 11.1933C25.6313 10.8346 25.876 10.5601 26.187 10.3662C26.4979 10.1722 26.853 10.0752 27.2523 10.0752C27.4878 10.0752 27.7105 10.11 27.9184 10.1777C28.1263 10.2454 28.314 10.346 28.4814 10.476C28.6489 10.6077 28.7887 10.7669 28.9028 10.9536C29.015 11.1402 29.0942 11.3544 29.1365 11.5941V11.5959Z" fill="#A7B3C7"/>
<path d="M30.7115 12.6971V14.798H30.1724V10.1406H30.7115V11.8517H30.7575C30.8403 11.6705 30.9636 11.5278 31.1292 11.4198C31.2948 11.3136 31.5156 11.2587 31.7916 11.2587C32.0308 11.2587 32.2406 11.3063 32.4209 11.4015C32.6012 11.4966 32.741 11.6412 32.8404 11.8352C32.9398 12.0292 32.9894 12.2781 32.9894 12.5782V14.798H32.4503V12.6148C32.4503 12.3366 32.3786 12.1225 32.235 11.9706C32.0915 11.8187 31.891 11.7419 31.637 11.7419C31.4604 11.7419 31.3022 11.7785 31.1623 11.8535C31.0225 11.9285 30.9139 12.0365 30.833 12.1792C30.752 12.322 30.7134 12.494 30.7134 12.6971H30.7115Z" fill="#A7B3C7"/>
<path d="M35.203 14.8802C34.9804 14.8802 34.778 14.8381 34.5976 14.7539C34.4155 14.6698 34.272 14.5472 34.1652 14.3879C34.0585 14.2287 34.0052 14.0348 34.0052 13.806C34.0052 13.6065 34.0456 13.4437 34.1248 13.3174C34.2039 13.193 34.3106 13.0941 34.4431 13.0228C34.5756 12.9514 34.7228 12.8983 34.8828 12.8617C35.0429 12.8251 35.2048 12.7977 35.3686 12.7757C35.582 12.7483 35.755 12.7281 35.8893 12.7135C36.0236 12.6989 36.1212 12.6751 36.1819 12.6403C36.2444 12.6055 36.2739 12.5451 36.2739 12.4591V12.4408C36.2739 12.2158 36.2132 12.0419 36.0899 11.9175C35.9666 11.793 35.7808 11.7308 35.5324 11.7308C35.284 11.7308 35.0724 11.7875 34.927 11.8992C34.7798 12.0108 34.6786 12.1316 34.6179 12.2578L34.1064 12.0767C34.1984 11.8644 34.3198 11.6997 34.4744 11.5789C34.6271 11.46 34.7945 11.3758 34.9767 11.3282C35.1588 11.2806 35.3392 11.2568 35.5158 11.2568C35.628 11.2568 35.7587 11.2696 35.9059 11.2971C36.0531 11.3245 36.1948 11.3776 36.3328 11.46C36.4708 11.5423 36.5848 11.6649 36.6768 11.8315C36.7688 11.9962 36.8148 12.2176 36.8148 12.4957V14.7979H36.2757V14.3239H36.2481C36.2113 14.3989 36.1506 14.4813 36.066 14.5673C35.9813 14.6533 35.8672 14.7265 35.7256 14.7887C35.5839 14.8491 35.4109 14.8802 35.2067 14.8802H35.203ZM35.2858 14.3989C35.4992 14.3989 35.6796 14.3568 35.8268 14.2745C35.974 14.1903 36.0844 14.0842 36.1598 13.9506C36.2352 13.8188 36.2739 13.6797 36.2739 13.5352V13.0447C36.2518 13.0722 36.2003 13.096 36.1248 13.1179C36.0476 13.1399 35.9592 13.1582 35.8599 13.1747C35.7605 13.1911 35.663 13.2039 35.5692 13.2149C35.4753 13.2259 35.3999 13.2351 35.341 13.2442C35.2012 13.2625 35.0705 13.2918 34.9491 13.332C34.8276 13.3723 34.7301 13.4327 34.6565 13.5114C34.5829 13.5919 34.5461 13.6999 34.5461 13.8353C34.5461 14.022 34.616 14.1629 34.7559 14.258C34.8957 14.3532 35.0724 14.4008 35.2876 14.4008L35.2858 14.3989Z" fill="#A7B3C7"/>
<path d="M37.9943 14.7984V11.3049H38.515V11.8319H38.5518C38.6162 11.6599 38.7321 11.519 38.8996 11.411C39.067 11.3031 39.2565 11.25 39.4663 11.25C39.5068 11.25 39.5546 11.25 39.6153 11.2518C39.6742 11.2518 39.7202 11.2555 39.7497 11.2591V11.8045C39.7313 11.8008 39.6889 11.7935 39.6245 11.7825C39.5601 11.7734 39.4921 11.7679 39.4203 11.7679C39.2492 11.7679 39.0983 11.8027 38.964 11.874C38.8297 11.9454 38.7248 12.0424 38.6475 12.165C38.5702 12.2894 38.5316 12.4285 38.5316 12.5877V14.7984H37.9925H37.9943Z" fill="#A7B3C7"/>
<path d="M42.3311 11.3051V11.7607H40.5114V11.3051H42.3311ZM41.0413 10.4688H41.5804V13.7993C41.5804 13.9512 41.6025 14.0647 41.6485 14.1397C41.6926 14.2147 41.7515 14.2642 41.8214 14.2898C41.8932 14.3154 41.9668 14.3282 42.0459 14.3282C42.1048 14.3282 42.1545 14.3245 42.1931 14.3172C42.2318 14.3099 42.2612 14.3044 42.2851 14.3008L42.3955 14.782C42.3587 14.7948 42.3072 14.8095 42.2428 14.8241C42.1766 14.8388 42.0938 14.8461 41.9944 14.8461C41.8417 14.8461 41.6926 14.8131 41.5473 14.7491C41.4019 14.6832 41.2805 14.5844 41.1866 14.4508C41.091 14.3172 41.0431 14.1489 41.0431 13.9457V10.4706L41.0413 10.4688Z" fill="#A7B3C7"/>
<path d="M16.4368 93.6953H12.9518V96.2902H16.4368V93.6953Z" fill="#CFCFCF"/>
<path d="M16.4367 83.6484H12.9518V86.2434H16.4367V83.6484Z" fill="#CFCFCF"/>
<path d="M16.4367 73.6006H12.9518V76.1955H16.4367V73.6006Z" fill="#CFCFCF"/>
<path d="M16.4368 63.5537H12.9518V66.1486H16.4368V63.5537Z" fill="#CFCFCF"/>
<path d="M16.4368 53.5068H12.9518V56.1018H16.4368V53.5068Z" fill="#CFCFCF"/>
<path d="M16.4367 43.459H12.9518V46.0539H16.4367V43.459Z" fill="#CFCFCF"/>
<path d="M16.4367 33.4121H12.9518V36.007H16.4367V33.4121Z" fill="#CFCFCF"/>
<path d="M33.1844 106.932H27.7454V109.3H33.1844V106.932Z" fill="#CFCFCF"/>
<path d="M55.3085 106.932H49.8695V109.3H55.3085V106.932Z" fill="#CFCFCF"/>
<path d="M77.4327 106.932H71.9937V109.3H77.4327V106.932Z" fill="#CFCFCF"/>
<path d="M99.5569 106.932H94.1179V109.3H99.5569V106.932Z" fill="#CFCFCF"/>
<path d="M121.681 106.932H116.242V109.3H121.681V106.932Z" fill="#CFCFCF"/>
<path d="M143.807 106.932H138.368V109.3H143.807V106.932Z" fill="#CFCFCF"/>
<path d="M165.929 106.932H160.49V109.3H165.929V106.932Z" fill="#CFCFCF"/>
<path d="M33.1034 56.1055H27.8282C26.812 56.1055 25.9882 56.9248 25.9882 57.9355V61.3704C25.9882 62.381 26.812 63.2003 27.8282 63.2003H33.1034C34.1196 63.2003 34.9434 62.381 34.9434 61.3704V57.9355C34.9434 56.9248 34.1196 56.1055 33.1034 56.1055Z" fill="#1F669E"/>
<path d="M55.2275 47.5234H49.9522C48.936 47.5234 48.1122 48.3428 48.1122 49.3534V61.371C48.1122 62.3817 48.936 63.201 49.9522 63.201H55.2275C56.2437 63.201 57.0675 62.3817 57.0675 61.371V49.3534C57.0675 48.3428 56.2437 47.5234 55.2275 47.5234Z" fill="#1F669E"/>
<path d="M77.3519 53.3535H72.0766C71.0604 53.3535 70.2366 54.1728 70.2366 55.1835V61.3689C70.2366 62.3796 71.0604 63.1989 72.0766 63.1989H77.3519C78.3681 63.1989 79.1919 62.3796 79.1919 61.3689V55.1835C79.1919 54.1728 78.3681 53.3535 77.3519 53.3535Z" fill="#1F669E"/>
<path d="M99.4759 47.957H94.2007C93.1845 47.957 92.3607 48.7763 92.3607 49.787V61.3709C92.3607 62.3815 93.1845 63.2009 94.2007 63.2009H99.4759C100.492 63.2009 101.316 62.3815 101.316 61.3709V49.787C101.316 48.7763 100.492 47.957 99.4759 47.957Z" fill="#1F669E"/>
<path d="M121.6 50.9766H116.325C115.309 50.9766 114.485 51.7959 114.485 52.8066V61.3691C114.485 62.3798 115.309 63.1991 116.325 63.1991H121.6C122.616 63.1991 123.44 62.3798 123.44 61.3691V52.8066C123.44 51.7959 122.616 50.9766 121.6 50.9766Z" fill="#1F669E"/>
<path d="M143.724 35.8369H138.449C137.433 35.8369 136.609 36.6562 136.609 37.6669V61.3708C136.609 62.3815 137.433 63.2008 138.449 63.2008H143.724C144.74 63.2008 145.564 62.3815 145.564 61.3708V37.6669C145.564 36.6562 144.74 35.8369 143.724 35.8369Z" fill="#1F669E"/>
<path d="M165.849 42.6621H160.573C159.557 42.6621 158.733 43.4814 158.733 44.4921V61.3683C158.733 62.379 159.557 63.1983 160.573 63.1983H165.849C166.865 63.1983 167.689 62.379 167.689 61.3683V44.4921C167.689 43.4814 166.865 42.6621 165.849 42.6621Z" fill="#1F669E"/>
<path d="M160.573 82.1973H165.848C166.865 82.1973 167.688 81.378 167.688 80.3673V67.9782C167.688 66.9676 166.865 66.1482 165.848 66.1482H160.573C159.557 66.1482 158.733 66.9676 158.733 67.9782V80.3673C158.733 81.378 159.557 82.1973 160.573 82.1973Z" fill="#00B49D"/>
<path d="M138.447 87.7988H143.722C144.739 87.7988 145.562 86.9795 145.562 85.9688V67.9782C145.562 66.9675 144.739 66.1482 143.722 66.1482H138.447C137.431 66.1482 136.607 66.9675 136.607 67.9782V85.9688C136.607 86.9795 137.431 87.7988 138.447 87.7988Z" fill="#00B49D"/>
<path d="M116.323 82.1973H121.598C122.614 82.1973 123.438 81.378 123.438 80.3673V67.9782C123.438 66.9676 122.614 66.1482 121.598 66.1482H116.323C115.307 66.1482 114.483 66.9676 114.483 67.9782V80.3673C114.483 81.378 115.307 82.1973 116.323 82.1973Z" fill="#00B49D"/>
<path d="M94.1989 73.7715H99.4742C100.49 73.7715 101.314 72.9522 101.314 71.9415V67.9796C101.314 66.9689 100.49 66.1496 99.4742 66.1496H94.1989C93.1827 66.1496 92.3589 66.9689 92.3589 67.9796V71.9415C92.3589 72.9522 93.1827 73.7715 94.1989 73.7715Z" fill="#00B49D"/>
<path d="M72.0746 82.2822H77.3498C78.3661 82.2822 79.1898 81.4629 79.1898 80.4522V67.979C79.1898 66.9683 78.3661 66.149 77.3498 66.149H72.0746C71.0584 66.149 70.2346 66.9683 70.2346 67.979V80.4522C70.2346 81.4629 71.0584 82.2822 72.0746 82.2822Z" fill="#00B49D"/>
<path d="M49.9523 80.6553H55.2276C56.2438 80.6553 57.0676 79.836 57.0676 78.8253V67.9789C57.0676 66.9683 56.2438 66.1489 55.2276 66.1489H49.9523C48.9361 66.1489 48.1123 66.9683 48.1123 67.9789V78.8253C48.1123 79.836 48.9361 80.6553 49.9523 80.6553Z" fill="#00B49D"/>
<path d="M27.8263 75.0547H33.1016C34.1178 75.0547 34.9416 74.2354 34.9416 73.2247V67.9781C34.9416 66.9674 34.1178 66.1481 33.1016 66.1481H27.8263C26.8101 66.1481 25.9863 66.9674 25.9863 67.9781V73.2247C25.9863 74.2354 26.8101 75.0547 27.8263 75.0547Z" fill="#00B49D"/>
</g>
<defs>
<clipPath id="clip0_502_44">
<rect width="184" height="122" fill="white"/>
</clipPath>
</defs>
</svg>
