<svg width="184" height="122" viewBox="0 0 184 122" fill="none" xmlns="http://www.w3.org/2000/svg">
<g clip-path="url(#clip0_502_91)">
<path d="M178.48 0H5.52C2.47139 0 0 2.45794 0 5.48997V116.51C0 119.542 2.47139 122 5.52 122H178.48C181.529 122 184 119.542 184 116.51V5.48997C184 2.45794 181.529 0 178.48 0Z" fill="white"/>
<path d="M14.0117 14.798H12.5654V10.1406H14.0742C14.5287 10.1406 14.917 10.234 15.2408 10.4188C15.5646 10.6054 15.8112 10.8708 15.9842 11.2167C16.1571 11.5625 16.2436 11.9779 16.2436 12.4592C16.2436 12.9405 16.1571 13.3614 15.9823 13.7109C15.8075 14.0605 15.5554 14.3295 15.2224 14.5161C14.8894 14.7028 14.4864 14.798 14.0098 14.798H14.0117ZM13.134 14.2984H13.9749C14.3613 14.2984 14.6833 14.2233 14.9372 14.0751C15.1911 13.9269 15.3825 13.7146 15.5058 13.4401C15.6309 13.1656 15.6934 12.838 15.6934 12.4592C15.6934 12.0804 15.6309 11.7583 15.5076 11.4875C15.3843 11.2148 15.2003 11.0062 14.9538 10.8598C14.709 10.7134 14.4018 10.6402 14.0374 10.6402H13.1322V14.2984H13.134Z" fill="#A7B3C7"/>
<path d="M18.7405 14.8712C18.4241 14.8712 18.1462 14.7962 17.907 14.6461C17.6678 14.496 17.482 14.2856 17.3495 14.0166C17.217 13.7457 17.1489 13.431 17.1489 13.0705C17.1489 12.71 17.2152 12.3897 17.3495 12.1171C17.482 11.8462 17.6697 11.6358 17.907 11.4839C18.1462 11.3338 18.4241 11.2588 18.7405 11.2588C19.057 11.2588 19.3349 11.3338 19.5741 11.4839C19.8133 11.6339 19.9991 11.8444 20.1316 12.1171C20.2659 12.3879 20.3321 12.7063 20.3321 13.0705C20.3321 13.4346 20.2659 13.7476 20.1316 14.0166C19.9991 14.2856 19.8114 14.496 19.5741 14.6461C19.3349 14.7962 19.057 14.8712 18.7405 14.8712ZM18.7405 14.3881C18.9816 14.3881 19.1803 14.3259 19.3349 14.2032C19.4894 14.0806 19.6053 13.9196 19.6808 13.7183C19.7562 13.5188 19.793 13.3011 19.793 13.0686C19.793 12.8362 19.7562 12.6166 19.6808 12.4153C19.6053 12.214 19.4913 12.0512 19.3349 11.9267C19.1785 11.8023 18.9816 11.7401 18.7405 11.7401C18.4995 11.7401 18.3008 11.8023 18.1462 11.9267C17.9898 12.0512 17.8757 12.214 17.8003 12.4153C17.7249 12.6166 17.6881 12.8344 17.6881 13.0686C17.6881 13.3029 17.7249 13.5188 17.8003 13.7183C17.8757 13.9178 17.9898 14.0806 18.1462 14.2032C18.3008 14.3259 18.4995 14.3881 18.7405 14.3881Z" fill="#A7B3C7"/>
<path d="M21.8886 12.6972V14.798H21.3495V11.3045H21.8702V11.8499H21.9162C21.999 11.6724 22.1242 11.5296 22.2916 11.4217C22.459 11.3137 22.6762 11.2588 22.9411 11.2588C23.1785 11.2588 23.3864 11.3064 23.5649 11.4034C23.7434 11.5003 23.8814 11.6449 23.9807 11.8407C24.0801 12.0365 24.1298 12.2818 24.1298 12.5782V14.798H23.5906V12.6148C23.5906 12.3403 23.5189 12.1262 23.3754 11.9725C23.2318 11.8188 23.035 11.7419 22.7847 11.7419C22.6118 11.7419 22.459 11.7785 22.3247 11.8535C22.1904 11.9286 22.0837 12.0365 22.0064 12.1793C21.9291 12.322 21.8905 12.494 21.8905 12.6972H21.8886Z" fill="#A7B3C7"/>
<path d="M27.5246 13.3717V11.3057H28.0637V14.7991H27.5246V14.208H27.4878C27.405 14.3855 27.2781 14.5356 27.1033 14.66C26.9285 14.7845 26.7095 14.8449 26.4445 14.8449C26.2256 14.8449 26.0305 14.7973 25.8594 14.7003C25.6883 14.6033 25.554 14.4587 25.4565 14.2629C25.3589 14.069 25.3093 13.8219 25.3093 13.5254V11.3057H25.8484V13.4888C25.8484 13.7432 25.9201 13.9463 26.0637 14.0982C26.2072 14.2501 26.3912 14.3251 26.6157 14.3251C26.75 14.3251 26.8861 14.2904 27.026 14.2227C27.1658 14.155 27.2836 14.0507 27.3774 13.9079C27.4731 13.767 27.5209 13.5877 27.5209 13.3681L27.5246 13.3717Z" fill="#A7B3C7"/>
<path d="M30.7741 11.3051V11.7607H28.9543V11.3051H30.7741ZM29.4842 10.4688H30.0234V13.7993C30.0234 13.9512 30.0454 14.0647 30.0914 14.1397C30.1356 14.2147 30.1945 14.2642 30.2644 14.2898C30.3362 14.3154 30.4098 14.3282 30.4889 14.3282C30.5478 14.3282 30.5974 14.3245 30.6361 14.3172C30.6747 14.3099 30.7042 14.3044 30.7281 14.3008L30.8385 14.782C30.8017 14.7948 30.7502 14.8095 30.6858 14.8241C30.6195 14.8388 30.5367 14.8461 30.4374 14.8461C30.2846 14.8461 30.1356 14.8131 29.9902 14.7491C29.8449 14.6832 29.7234 14.5844 29.6296 14.4508C29.5339 14.3172 29.4861 14.1489 29.4861 13.9457V10.4706L29.4842 10.4688Z" fill="#A7B3C7"/>
<path d="M37.6281 11.5959H37.0614C37.0282 11.433 36.9694 11.2903 36.8866 11.1677C36.8038 11.0451 36.7026 10.9408 36.5848 10.8566C36.467 10.7724 36.3364 10.7084 36.1929 10.6663C36.0494 10.6242 35.9003 10.6022 35.7439 10.6022C35.4606 10.6022 35.203 10.6736 34.9748 10.8163C34.7448 10.9591 34.5626 11.1695 34.4283 11.4459C34.294 11.724 34.2259 12.0644 34.2259 12.467C34.2259 12.8696 34.294 13.21 34.4283 13.4881C34.5626 13.7663 34.7448 13.9749 34.9748 14.1176C35.2048 14.2604 35.4606 14.3318 35.7439 14.3318C35.8985 14.3318 36.0494 14.3098 36.1929 14.2677C36.3364 14.2256 36.467 14.1616 36.5848 14.0774C36.7026 13.9932 36.8038 13.8889 36.8866 13.7663C36.9694 13.6418 37.0282 13.5009 37.0614 13.3399H37.6281C37.5858 13.5778 37.5085 13.7919 37.3944 13.9786C37.2803 14.1652 37.1405 14.3263 36.973 14.458C36.8056 14.5898 36.6179 14.6886 36.41 14.7563C36.2021 14.824 35.9794 14.8588 35.7439 14.8588C35.3446 14.8588 34.9895 14.7618 34.6786 14.5678C34.3676 14.3738 34.1229 14.0975 33.9444 13.7407C33.7659 13.382 33.6758 12.9574 33.6758 12.467C33.6758 11.9766 33.7659 11.552 33.9444 11.1933C34.1229 10.8346 34.3676 10.5601 34.6786 10.3662C34.9895 10.1722 35.3446 10.0752 35.7439 10.0752C35.9794 10.0752 36.2021 10.11 36.41 10.1777C36.6179 10.2454 36.8056 10.346 36.973 10.476C37.1405 10.6059 37.2803 10.7669 37.3944 10.9536C37.5066 11.1402 37.5858 11.3544 37.6281 11.5941V11.5959Z" fill="#A7B3C7"/>
<path d="M39.2013 12.6971V14.798H38.6621V10.1406H39.2013V11.8517H39.2473C39.3301 11.6705 39.4533 11.5278 39.6189 11.4198C39.7845 11.3136 40.0053 11.2587 40.2813 11.2587C40.5205 11.2587 40.7303 11.3063 40.9106 11.4015C41.0909 11.4966 41.2308 11.6412 41.3301 11.8352C41.4295 12.0292 41.4792 12.2781 41.4792 12.5782V14.798H40.9401V12.6148C40.9401 12.3366 40.8683 12.1225 40.7248 11.9706C40.5813 11.8187 40.3807 11.7419 40.1268 11.7419C39.9501 11.7419 39.7919 11.7785 39.6521 11.8535C39.5122 11.9285 39.4037 12.0365 39.3227 12.1792C39.2417 12.322 39.2031 12.494 39.2031 12.6971H39.2013Z" fill="#A7B3C7"/>
<path d="M43.6946 14.8802C43.472 14.8802 43.2696 14.8381 43.0892 14.7539C42.9071 14.6698 42.7636 14.5472 42.6568 14.3879C42.5501 14.2287 42.4968 14.0348 42.4968 13.806C42.4968 13.6065 42.5372 13.4437 42.6164 13.3174C42.6955 13.193 42.8022 13.0941 42.9347 13.0228C43.0672 12.9514 43.2144 12.8983 43.3744 12.8617C43.5345 12.827 43.6964 12.7977 43.8602 12.7757C44.0736 12.7483 44.2466 12.7281 44.3809 12.7135C44.5152 12.6989 44.6128 12.6751 44.6735 12.6403C44.736 12.6055 44.7655 12.5451 44.7655 12.4591V12.4408C44.7655 12.2158 44.7048 12.0419 44.5815 11.9175C44.4582 11.793 44.2724 11.7308 44.024 11.7308C43.7756 11.7308 43.564 11.7875 43.4186 11.8992C43.2714 12.0108 43.1684 12.1316 43.1095 12.2578L42.598 12.0767C42.69 11.8644 42.8114 11.6979 42.966 11.5789C43.1187 11.46 43.2861 11.3758 43.4683 11.3282C43.6505 11.2806 43.8308 11.2568 44.0074 11.2568C44.1196 11.2568 44.2503 11.2696 44.3975 11.2971C44.5447 11.3245 44.6864 11.3776 44.8244 11.46C44.9624 11.5423 45.0764 11.6649 45.1684 11.8315C45.2604 11.9962 45.3064 12.2176 45.3064 12.4957V14.7979H44.7673V14.3239H44.7397C44.7029 14.3989 44.6422 14.4813 44.5576 14.5673C44.4729 14.6533 44.3588 14.7265 44.2172 14.7887C44.0755 14.8491 43.9025 14.8802 43.6983 14.8802H43.6946ZM43.7774 14.3989C43.9908 14.3989 44.1712 14.3568 44.3184 14.2745C44.4656 14.1903 44.576 14.0842 44.6514 13.9506C44.7268 13.8188 44.7655 13.6797 44.7655 13.5352V13.0447C44.7434 13.0722 44.6919 13.096 44.6164 13.1179C44.5392 13.1399 44.4508 13.1582 44.3515 13.1747C44.2521 13.1911 44.1546 13.2039 44.0608 13.2149C43.9669 13.2259 43.8915 13.2351 43.8326 13.2442C43.6928 13.2625 43.5621 13.2918 43.4407 13.332C43.3192 13.3723 43.2217 13.4327 43.1481 13.5114C43.0745 13.5919 43.0377 13.6999 43.0377 13.8353C43.0377 14.022 43.1076 14.1629 43.2475 14.258C43.3873 14.3532 43.564 14.4008 43.7792 14.4008L43.7774 14.3989Z" fill="#A7B3C7"/>
<path d="M46.4859 14.7984V11.3049H47.0066V11.8319H47.0434C47.1078 11.6599 47.2237 11.519 47.3912 11.411C47.5586 11.3031 47.7481 11.25 47.9579 11.25C47.9984 11.25 48.0481 11.25 48.1069 11.2518C48.1658 11.2518 48.2118 11.2555 48.2413 11.2591V11.8045C48.2229 11.8008 48.1805 11.7935 48.1161 11.7825C48.0517 11.7734 47.9837 11.7679 47.9119 11.7679C47.7408 11.7679 47.5899 11.8027 47.4556 11.874C47.3213 11.9454 47.2164 12.0424 47.1391 12.165C47.0618 12.2894 47.0232 12.4285 47.0232 12.5877V14.7984H46.4841H46.4859Z" fill="#A7B3C7"/>
<path d="M50.8227 11.3051V11.7607H49.003V11.3051H50.8227ZM49.5329 10.4688H50.072V13.7993C50.072 13.9512 50.0941 14.0647 50.1401 14.1397C50.1842 14.2147 50.2431 14.2642 50.313 14.2898C50.3848 14.3154 50.4584 14.3282 50.5375 14.3282C50.5964 14.3282 50.6461 14.3245 50.6847 14.3172C50.7234 14.3099 50.7528 14.3044 50.7767 14.3008L50.8871 14.782C50.8503 14.7948 50.7988 14.8095 50.7344 14.8241C50.6682 14.8388 50.5854 14.8461 50.486 14.8461C50.3333 14.8461 50.1842 14.8131 50.0389 14.7491C49.8935 14.6832 49.7721 14.5844 49.6782 14.4508C49.5826 14.3172 49.5347 14.1489 49.5347 13.9457V10.4706L49.5329 10.4688Z" fill="#A7B3C7"/>
<path d="M30.4943 92.0206C29.7344 92.7416 28.5182 92.6867 27.8337 91.8944C21.9236 85.0703 18.6907 76.4328 18.6907 67.367C18.6907 57.7705 22.3247 48.6334 28.9211 41.6373C35.0446 35.1427 43.1774 31.06 51.991 30.015C53.0343 29.8906 53.9672 30.6683 54.039 31.7096L54.2506 34.7895C54.3168 35.763 53.6029 36.6103 52.6295 36.7311C37.2655 38.6435 25.473 51.7773 25.473 67.367C25.473 74.751 28.0858 81.7873 32.8661 87.367C33.5027 88.1099 33.4567 89.2152 32.7446 89.8905L30.498 92.0206H30.4943Z" fill="#2F387A"/>
<path d="M124.366 44.3338V43.245L129.199 35.6395H129.994V37.3268H129.457L125.804 43.0748V43.1608H132.314V44.3356H124.366V44.3338ZM129.543 46.5774V35.6377H130.811V46.5774H129.543Z" fill="#078EBF"/>
<path d="M138.225 46.7277C137.593 46.7277 137.027 46.6032 136.523 46.3544C136.018 46.1055 135.614 45.7633 135.308 45.3296C135.005 44.8959 134.837 44.3999 134.809 43.8455H136.097C136.147 44.3395 136.373 44.7495 136.776 45.0715C137.179 45.3936 137.661 45.5547 138.225 45.5547C138.675 45.5547 139.078 45.4504 139.43 45.2399C139.783 45.0295 140.059 44.7403 140.261 44.3725C140.464 44.0047 140.565 43.5856 140.565 43.1208C140.565 42.656 140.46 42.2168 140.25 41.8416C140.041 41.4665 139.754 41.17 139.389 40.9522C139.025 40.7345 138.607 40.6247 138.138 40.621C137.801 40.6173 137.455 40.6686 137.102 40.7729C136.747 40.8772 136.456 41.0126 136.226 41.1755L134.981 41.0254L135.647 35.6416H141.362V36.8165H136.765L136.379 40.0427H136.443C136.67 39.8652 136.951 39.717 137.292 39.5999C137.632 39.4828 137.987 39.4242 138.355 39.4242C139.029 39.4242 139.628 39.5834 140.157 39.9018C140.685 40.2202 141.1 40.6558 141.402 41.2084C141.704 41.7611 141.857 42.3906 141.857 43.0988C141.857 43.807 141.7 44.4182 141.387 44.9654C141.075 45.5126 140.644 45.9426 140.096 46.2574C139.547 46.5721 138.926 46.7295 138.226 46.7295L138.225 46.7277Z" fill="#078EBF"/>
<path d="M144.563 38.2652V37.6888C144.563 37.2898 144.646 36.9238 144.813 36.5908C144.981 36.2577 145.224 35.9906 145.544 35.7893C145.864 35.588 146.254 35.4873 146.712 35.4873C147.17 35.4873 147.568 35.588 147.883 35.7893C148.197 35.9906 148.436 36.2577 148.597 36.5908C148.758 36.9238 148.838 37.2898 148.838 37.6888V38.2652C148.838 38.6642 148.757 39.0302 148.593 39.3632C148.429 39.6963 148.19 39.9635 147.873 40.1648C147.557 40.3661 147.169 40.4667 146.711 40.4667C146.252 40.4667 145.853 40.3661 145.535 40.1648C145.216 39.9635 144.974 39.6963 144.81 39.3632C144.646 39.0302 144.563 38.6642 144.563 38.2652ZM144.972 46.5771L152.534 35.6374H153.758L146.195 46.5771H144.97H144.972ZM145.66 37.6888V38.2652C145.66 38.5965 145.739 38.8929 145.895 39.1546C146.054 39.4163 146.326 39.5481 146.712 39.5481C147.099 39.5481 147.354 39.4163 147.509 39.1546C147.665 38.8929 147.743 38.5965 147.743 38.2652V37.6888C147.743 37.3576 147.667 37.0611 147.516 36.7994C147.366 36.5377 147.097 36.406 146.711 36.406C146.324 36.406 146.065 36.5377 145.903 36.7994C145.739 37.0611 145.658 37.3576 145.658 37.6888H145.66ZM150.043 44.5256V43.9492C150.043 43.5502 150.126 43.1842 150.293 42.8512C150.46 42.5181 150.703 42.251 151.023 42.0497C151.344 41.8484 151.734 41.7477 152.192 41.7477C152.65 41.7477 153.047 41.8484 153.362 42.0497C153.677 42.251 153.916 42.5181 154.076 42.8512C154.238 43.1842 154.317 43.5502 154.317 43.9492V44.5256C154.317 44.9246 154.236 45.2906 154.072 45.6236C153.91 45.9567 153.669 46.2239 153.353 46.4252C153.036 46.6265 152.648 46.7271 152.19 46.7271C151.732 46.7271 151.333 46.6265 151.014 46.4252C150.696 46.2239 150.455 45.9567 150.289 45.6236C150.126 45.2906 150.043 44.9246 150.043 44.5256ZM151.139 43.9492V44.5256C151.139 44.8569 151.219 45.1533 151.375 45.415C151.533 45.6767 151.804 45.8085 152.192 45.8085C152.58 45.8085 152.834 45.6785 152.989 45.415C153.145 45.1533 153.222 44.8569 153.222 44.5256V43.9492C153.222 43.618 153.147 43.3215 152.996 43.0598C152.845 42.7981 152.576 42.6664 152.19 42.6664C151.804 42.6664 151.544 42.7963 151.382 43.0598C151.218 43.3215 151.138 43.618 151.138 43.9492H151.139Z" fill="#078EBF"/>
<path d="M124.967 85.4739L129.887 75.795V75.709H124.217V74.5342H131.262V75.7731L126.364 85.472H124.967V85.4739Z" fill="#2F387A"/>
<path d="M137.063 85.6219C136.254 85.6219 135.566 85.4023 134.995 84.9631C134.427 84.5239 133.991 83.8834 133.691 83.0453C133.391 82.2071 133.24 81.1933 133.24 80.0038C133.24 78.8143 133.391 77.8115 133.694 76.9733C133.996 76.1352 134.434 75.4929 135.004 75.05C135.575 74.6072 136.263 74.3857 137.063 74.3857C137.864 74.3857 138.552 74.6072 139.122 75.05C139.693 75.4929 140.131 76.1352 140.432 76.9733C140.734 77.8115 140.887 78.8216 140.887 80.0038C140.887 81.186 140.736 82.2071 140.436 83.0453C140.136 83.8834 139.7 84.5239 139.132 84.9631C138.563 85.4023 137.873 85.6219 137.063 85.6219ZM137.063 84.447C137.866 84.447 138.488 84.0627 138.933 83.2941C139.376 82.5255 139.599 81.4275 139.599 80.0038C139.599 79.0559 139.498 78.2507 139.295 77.5846C139.093 76.9184 138.802 76.4115 138.425 76.062C138.048 75.7125 137.593 75.5386 137.063 75.5386C136.269 75.5386 135.647 75.9284 135.2 76.7062C134.752 77.4839 134.528 78.5837 134.528 80.0038C134.528 80.9517 134.627 81.7551 134.828 82.4176C135.028 83.08 135.317 83.5833 135.694 83.9291C136.072 84.275 136.528 84.447 137.062 84.447H137.063Z" fill="#2F387A"/>
<path d="M143.511 77.1617V76.5853C143.511 76.1863 143.594 75.8203 143.761 75.4873C143.928 75.1542 144.171 74.887 144.492 74.6857C144.812 74.4844 145.202 74.3838 145.66 74.3838C146.118 74.3838 146.516 74.4844 146.83 74.6857C147.145 74.887 147.384 75.1542 147.544 75.4873C147.706 75.8203 147.785 76.1863 147.785 76.5853V77.1617C147.785 77.5607 147.704 77.9267 147.54 78.2597C147.377 78.5928 147.137 78.8599 146.821 79.0612C146.504 79.2625 146.116 79.3632 145.658 79.3632C145.2 79.3632 144.801 79.2625 144.482 79.0612C144.164 78.8599 143.921 78.5928 143.757 78.2597C143.594 77.9267 143.511 77.5607 143.511 77.1617ZM143.919 85.4735L151.482 74.5338H152.705L145.143 85.4735H143.917H143.919ZM144.607 76.5853V77.1617C144.607 77.4929 144.687 77.7894 144.843 78.0511C145.001 78.3128 145.272 78.4445 145.66 78.4445C146.048 78.4445 146.302 78.3146 146.457 78.0511C146.613 77.7894 146.69 77.4929 146.69 77.1617V76.5853C146.69 76.254 146.615 75.9576 146.464 75.6959C146.313 75.4342 146.044 75.3024 145.658 75.3024C145.272 75.3024 145.012 75.4324 144.85 75.6959C144.687 75.9576 144.606 76.254 144.606 76.5853H144.607ZM148.99 83.4221V82.8457C148.99 82.4467 149.073 82.0807 149.241 81.7477C149.408 81.4146 149.651 81.1474 149.971 80.9461C150.291 80.7448 150.681 80.6442 151.139 80.6442C151.598 80.6442 151.995 80.7448 152.31 80.9461C152.624 81.1474 152.864 81.4146 153.024 81.7477C153.186 82.0807 153.265 82.4467 153.265 82.8457V83.4221C153.265 83.821 153.184 84.187 153.02 84.5201C152.858 84.8532 152.617 85.1203 152.3 85.3216C151.984 85.5229 151.596 85.6236 151.138 85.6236C150.679 85.6236 150.28 85.5229 149.962 85.3216C149.644 85.1203 149.402 84.8532 149.237 84.5201C149.073 84.187 148.99 83.821 148.99 83.4221ZM150.087 82.8457V83.4221C150.087 83.7533 150.166 84.0498 150.322 84.3115C150.481 84.5732 150.751 84.7049 151.139 84.7049C151.528 84.7049 151.782 84.575 151.936 84.3115C152.093 84.0498 152.17 83.7533 152.17 83.4221V82.8457C152.17 82.5144 152.094 82.218 151.944 81.9563C151.793 81.6946 151.524 81.5628 151.138 81.5628C150.751 81.5628 150.492 81.6928 150.33 81.9563C150.166 82.218 150.085 82.5144 150.085 82.8457H150.087Z" fill="#2F387A"/>
<path d="M37.5194 67.9864C37.0024 67.9864 36.5387 67.8839 36.1247 67.6808C35.7107 67.4759 35.3795 67.1959 35.1311 66.8408C34.8827 66.4858 34.7447 66.0796 34.7226 65.6239H35.7788C35.8192 66.0302 36.0051 66.3632 36.3344 66.6286C36.6638 66.8921 37.0594 67.0238 37.5194 67.0238C37.8892 67.0238 38.2186 66.9378 38.5075 66.7658C38.7964 66.5938 39.0245 66.3559 39.1901 66.0558C39.3557 65.7538 39.4385 65.4116 39.4385 65.0292C39.4385 64.6467 39.352 64.2898 39.1809 63.9806C39.0098 63.6731 38.7743 63.4297 38.4744 63.2522C38.1744 63.0747 37.834 62.9832 37.4495 62.9814C37.1735 62.9777 36.8901 63.0198 36.6012 63.1058C36.3105 63.1918 36.0713 63.3016 35.8836 63.4352L34.8624 63.3126L35.4071 58.9023H40.088V59.8649H36.3234L36.0069 62.5074H36.0603C36.2443 62.361 36.4761 62.2402 36.7558 62.1451C37.0336 62.0481 37.3244 62.0005 37.6261 62.0005C38.1781 62.0005 38.6694 62.1304 39.1018 62.3921C39.5342 62.6538 39.8746 63.0107 40.123 63.4627C40.3714 63.9147 40.4947 64.4307 40.4947 65.0109C40.4947 65.591 40.3659 66.0924 40.1101 66.5407C39.8544 66.9891 39.5011 67.3423 39.0521 67.6003C38.6032 67.8583 38.0935 67.9882 37.5212 67.9882L37.5194 67.9864Z" fill="#2F387A"/>
<path d="M45.2787 67.9861C44.6972 67.9861 44.182 67.8873 43.7276 67.6878C43.2749 67.4902 42.9161 67.2139 42.6493 66.8588C42.3825 66.5038 42.239 66.0921 42.2169 65.6236H43.3246C43.3485 65.9127 43.4479 66.1616 43.6245 66.3702C43.8012 66.5788 44.0312 66.7399 44.3145 66.8533C44.5997 66.9668 44.9144 67.0235 45.2603 67.0235C45.6467 67.0235 45.9908 66.9558 46.2888 66.8222C46.5888 66.6886 46.8224 66.502 46.9917 66.2623C47.161 66.0225 47.2475 65.7462 47.2475 65.4314C47.2475 65.1167 47.1647 64.8111 47.0009 64.5585C46.8372 64.306 46.5961 64.1084 46.2796 63.9656C45.9632 63.8229 45.5749 63.7515 45.1186 63.7515H44.3973V62.7889H45.1186C45.4756 62.7889 45.7902 62.7249 46.0625 62.5968C46.333 62.4687 46.5464 62.2875 46.701 62.0551C46.8556 61.8227 46.9328 61.5482 46.9328 61.2334C46.9328 60.9187 46.8648 60.6661 46.7304 60.4411C46.5961 60.216 46.4048 60.0421 46.16 59.9158C45.9153 59.7896 45.6264 59.7274 45.2952 59.7274C44.9843 59.7274 44.6917 59.7841 44.4176 59.8957C44.1434 60.0073 43.9189 60.1702 43.746 60.3807C43.573 60.5929 43.4792 60.8473 43.4644 61.1438H42.4083C42.4267 60.6735 42.5684 60.2617 42.8352 59.9085C43.102 59.5553 43.4516 59.2772 43.884 59.0795C44.3164 58.8819 44.7929 58.7812 45.3118 58.7812C45.8693 58.7812 46.3477 58.8929 46.7452 59.1161C47.1444 59.3394 47.4499 59.634 47.6652 59.9982C47.8786 60.3624 47.9872 60.7558 47.9872 61.1804C47.9872 61.6854 47.8547 62.1155 47.5897 62.4705C47.3248 62.8255 46.9641 63.0726 46.5096 63.2098V63.2794C47.0782 63.3727 47.5235 63.6124 47.8418 63.9986C48.162 64.3847 48.322 64.8623 48.322 65.4314C48.322 65.9182 48.1896 66.3556 47.9246 66.7417C47.6596 67.1278 47.2972 67.4316 46.8408 67.653C46.3827 67.8745 45.862 67.9861 45.2787 67.9861Z" fill="#2F387A"/>
<path d="M65.1434 67.8635V67.0766L68.1168 63.8393C68.4664 63.4605 68.7535 63.1293 68.9798 62.8475C69.2061 62.5657 69.3736 62.3003 69.484 62.0514C69.5944 61.8026 69.6496 61.5409 69.6496 61.2664C69.6496 60.9516 69.5741 60.679 69.4232 60.4484C69.2724 60.2178 69.0663 60.0403 68.805 59.914C68.5437 59.7877 68.2512 59.7255 67.9255 59.7255C67.5796 59.7255 67.2778 59.7969 67.022 59.9378C66.7663 60.0787 66.5676 60.2764 66.4277 60.5307C66.2879 60.7851 66.218 61.0815 66.218 61.4238H65.1802C65.1802 60.8985 65.3016 60.4374 65.5445 60.0421C65.7874 59.645 66.1204 59.3357 66.5418 59.1143C66.9632 58.8929 67.436 58.7812 67.9604 58.7812C68.4848 58.7812 68.9559 58.8929 69.3644 59.1143C69.7728 59.3357 70.0912 59.6359 70.323 60.011C70.5548 60.388 70.6708 60.8052 70.6708 61.2664C70.6708 61.5958 70.6119 61.9179 70.4923 62.2308C70.3727 62.5437 70.1684 62.8932 69.8759 63.2757C69.5833 63.66 69.1804 64.1267 68.6633 64.6775L66.6393 66.8296V66.8991H70.8272V67.8617H65.1434V67.8635Z" fill="#078EBF"/>
<path d="M72.9192 67.8639L76.9488 59.9364V59.8669H72.3028V58.9043H78.0748V59.9199L74.0636 67.8639H72.9192Z" fill="#078EBF"/>
<path d="M141.638 51.542H130.373C130.17 51.542 130.005 51.7059 130.005 51.908V54.2614C130.005 54.4635 130.17 54.6274 130.373 54.6274H141.638C141.841 54.6274 142.006 54.4635 142.006 54.2614V51.908C142.006 51.7059 141.841 51.542 141.638 51.542Z" fill="#A7B3C7"/>
<path d="M153.905 51.542H143.851C143.648 51.542 143.483 51.7059 143.483 51.908V54.2614C143.483 54.4635 143.648 54.6274 143.851 54.6274H153.905C154.108 54.6274 154.273 54.4635 154.273 54.2614V51.908C154.273 51.7059 154.108 51.542 153.905 51.542Z" fill="#A7B3C7"/>
<path d="M45.4058 72.4521H34.1413C33.9381 72.4521 33.7733 72.616 33.7733 72.8181V75.1715C33.7733 75.3736 33.9381 75.5375 34.1413 75.5375H45.4058C45.609 75.5375 45.7738 75.3736 45.7738 75.1715V72.8181C45.7738 72.616 45.609 72.4521 45.4058 72.4521Z" fill="#A7B3C7"/>
<path d="M57.6731 72.4521H47.6193C47.4161 72.4521 47.2513 72.616 47.2513 72.8181V75.1715C47.2513 75.3736 47.4161 75.5375 47.6193 75.5375H57.6731C57.8763 75.5375 58.0411 75.3736 58.0411 75.1715V72.8181C58.0411 72.616 57.8763 72.4521 57.6731 72.4521Z" fill="#A7B3C7"/>
<path d="M72.8087 72.4521H64.5784C64.3752 72.4521 64.2104 72.616 64.2104 72.8181V75.1715C64.2104 75.3736 64.3752 75.5375 64.5784 75.5375H72.8087C73.012 75.5375 73.1767 75.3736 73.1767 75.1715V72.8181C73.1767 72.616 73.012 72.4521 72.8087 72.4521Z" fill="#A7B3C7"/>
<path d="M79.6426 72.4521H75.3701C75.1669 72.4521 75.0021 72.616 75.0021 72.8181V75.1715C75.0021 75.3736 75.1669 75.5375 75.3701 75.5375H79.6426C79.8458 75.5375 80.0106 75.3736 80.0106 75.1715V72.8181C80.0106 72.616 79.8458 72.4521 79.6426 72.4521Z" fill="#A7B3C7"/>
<path d="M139.461 89.4463H130.373C130.17 89.4463 130.005 89.6102 130.005 89.8123V92.1657C130.005 92.3678 130.17 92.5317 130.373 92.5317H139.461C139.664 92.5317 139.829 92.3678 139.829 92.1657V89.8123C139.829 89.6102 139.664 89.4463 139.461 89.4463Z" fill="#A7B3C7"/>
<path d="M145.535 89.4463H141.662C141.458 89.4463 141.294 89.6102 141.294 89.8123V92.1657C141.294 92.3678 141.458 92.5317 141.662 92.5317H145.535C145.738 92.5317 145.903 92.3678 145.903 92.1657V89.8123C145.903 89.6102 145.738 89.4463 145.535 89.4463Z" fill="#A7B3C7"/>
<path d="M155.877 89.4463H147.55C147.346 89.4463 147.182 89.6102 147.182 89.8123V92.1657C147.182 92.3678 147.346 92.5317 147.55 92.5317H155.877C156.081 92.5317 156.245 92.3678 156.245 92.1657V89.8123C156.245 89.6102 156.081 89.4463 155.877 89.4463Z" fill="#A7B3C7"/>
<path d="M126.52 89.2051H124.036C123.731 89.2051 123.484 89.4509 123.484 89.7541V92.2246C123.484 92.5278 123.731 92.7736 124.036 92.7736H126.52C126.825 92.7736 127.072 92.5278 127.072 92.2246V89.7541C127.072 89.4509 126.825 89.2051 126.52 89.2051Z" fill="#2F387A"/>
<path d="M126.52 51.2998H124.036C123.731 51.2998 123.484 51.5456 123.484 51.8488V54.3193C123.484 54.6225 123.731 54.8683 124.036 54.8683H126.52C126.825 54.8683 127.072 54.6225 127.072 54.3193V51.8488C127.072 51.5456 126.825 51.2998 126.52 51.2998Z" fill="#078EBF"/>
<path d="M56.5138 104.987C47.6174 104.987 39.0945 101.907 32.3067 96.2744C31.5008 95.6065 31.4272 94.3987 32.1393 93.6301L34.2461 91.3609C34.9103 90.6453 36.018 90.5776 36.7743 91.1962C42.3255 95.751 49.2697 98.2416 56.5156 98.2416C73.6331 98.2416 87.5601 84.3904 87.5601 67.366C87.5601 50.3416 74.5715 37.4439 58.2636 36.5398C57.2847 36.4849 56.5175 35.6889 56.5175 34.7135V31.6245C56.5175 30.5832 57.3896 29.7433 58.4347 29.7963C78.4043 30.7937 94.3405 47.2636 94.3405 67.3679C94.3405 87.4721 77.372 104.987 56.5156 104.987H56.5138Z" fill="#078EBF"/>
</g>
<defs>
<clipPath id="clip0_502_91">
<rect width="184" height="122" fill="white"/>
</clipPath>
</defs>
</svg>
