<svg width="84" height="85" viewBox="0 0 84 85" fill="none" xmlns="http://www.w3.org/2000/svg">
<circle cx="41.9745" cy="42.3746" r="41.7438" fill="#00B49D"/>
<mask id="mask0_466_631" style="mask-type:alpha" maskUnits="userSpaceOnUse" x="14" y="14" width="56" height="57">
<rect x="14.1453" y="14.5449" width="55.6583" height="55.6583" fill="#D9D9D9"/>
</mask>
<g mask="url(#mask0_466_631)">
<path d="M27.2868 65.5643C26.2238 65.5643 25.3139 65.1859 24.557 64.429C23.8001 63.672 23.4216 62.7621 23.4216 61.6992V37.194C23.4216 36.1311 23.8001 35.2212 24.557 34.4642C25.3139 33.7073 26.2238 33.3289 27.2868 33.3289H30.7655V28.0722C30.7655 24.9711 31.8587 22.3277 34.0452 20.1419C36.2318 17.9562 38.8762 16.8633 41.9785 16.8633C45.0808 16.8633 47.7238 17.9562 49.9076 20.1419C52.0915 22.3277 53.1834 24.9711 53.1834 28.0722V33.3289H56.6621C57.725 33.3289 58.6349 33.7073 59.3918 34.4642C60.1487 35.2212 60.5272 36.1311 60.5272 37.194V61.6992C60.5272 62.7621 60.1487 63.672 59.3918 64.429C58.6349 65.1859 57.725 65.5643 56.6621 65.5643H27.2868ZM27.2868 61.6992H56.6621V37.194H27.2868V61.6992ZM41.9809 53.9688C43.2263 53.9688 44.2903 53.5336 45.1729 52.6631C46.0554 51.7927 46.4967 50.7462 46.4967 49.5239C46.4967 48.3257 46.0532 47.2596 45.1664 46.3255C44.2795 45.3914 43.2133 44.9244 41.9679 44.9244C40.7225 44.9244 39.6585 45.3914 38.776 46.3255C37.8934 47.2596 37.4522 48.3321 37.4522 49.5433C37.4522 50.7543 37.8956 51.7947 38.7825 52.6644C39.6694 53.534 40.7355 53.9688 41.9809 53.9688ZM34.6306 33.3289H49.3182V28.0722C49.3182 26.0323 48.6047 24.2983 47.1776 22.8704C45.7505 21.4424 44.0177 20.7284 41.9789 20.7284C39.9403 20.7284 38.2059 21.4424 36.7758 22.8704C35.3456 24.2983 34.6306 26.0323 34.6306 28.0722V33.3289Z" fill="white"/>
</g>
</svg>
