<svg width="234" height="234" viewBox="0 0 234 234" fill="none" xmlns="http://www.w3.org/2000/svg">
<path d="M41.5066 105.342C41.5066 105.342 41.3898 106.12 41.1172 107.483C41.0004 108.846 40.8447 110.792 40.6889 113.167C40.4553 115.503 40.6889 118.267 40.6889 121.226C40.9615 124.146 41.2341 127.3 41.8571 130.376C42.519 133.451 43.142 136.527 44.1543 139.291C44.972 142.133 46.0622 144.664 46.9967 146.805C47.8533 148.986 48.8267 150.699 49.4887 151.906C50.1506 153.113 50.54 153.813 50.54 153.813L32.045 164.481C32.045 164.481 31.5388 163.586 30.7211 162.028C29.8645 160.471 28.6185 158.291 27.4894 155.449C26.2434 152.684 24.8806 149.414 23.7904 145.793C22.5054 142.211 21.6878 138.279 20.8312 134.308C20.0524 130.337 19.663 126.288 19.3516 122.511C19.3126 118.735 19.0401 115.153 19.3126 112.155C19.5462 109.118 19.7409 106.588 19.8967 104.836C20.2082 103.084 20.3639 102.071 20.3639 102.071L41.4677 105.342H41.5066Z" fill="#078EBF"/>
<path d="M154.384 179.199C154.384 179.199 153.995 179.472 153.216 179.978C152.438 180.406 151.27 181.068 149.751 181.885C148.271 182.742 146.441 183.676 144.261 184.572C143.171 185.039 142.003 185.545 140.796 186.051C139.55 186.48 138.226 186.908 136.824 187.336C125.844 190.996 109.763 192.475 94.8111 188.037C91.0342 187.141 87.491 185.545 83.9088 184.144C80.5602 182.353 77.0948 180.795 74.1356 178.693C67.9836 174.839 62.9997 170.089 59.145 165.767C55.2902 161.407 52.6425 157.319 50.8903 154.438C49.255 151.479 48.3205 149.766 48.3205 149.766L29.2025 159.265C29.2025 159.265 30.4096 161.446 32.5121 165.3C34.7705 169.038 38.1969 174.293 43.1419 179.939C52.8761 191.268 69.6579 203.571 89.0485 208.632C108.361 214.317 129.114 212.448 143.21 207.737C145.001 207.153 146.675 206.608 148.31 206.063C149.868 205.401 151.386 204.778 152.749 204.155C155.553 203.026 157.928 201.819 159.836 200.729C161.744 199.678 163.262 198.821 164.274 198.276C165.248 197.653 165.793 197.303 165.793 197.303L154.346 179.277L154.384 179.199Z" fill="#00B3DD"/>
<path d="M187.403 102.851C187.403 102.851 187.091 101.411 186.546 98.8413C186.313 97.5565 185.768 96.0771 185.222 94.3251C184.638 92.612 184.132 90.6264 183.159 88.6019C179.888 80.3092 173.425 69.9919 164.586 61.9327C155.825 53.7957 144.845 48.4619 136.357 45.8923C134.215 45.3083 132.268 44.6464 130.477 44.296C128.686 43.9846 127.129 43.712 125.844 43.4784C124.559 43.2448 123.546 43.0891 122.846 43.0502C122.145 43.0112 121.794 42.9723 121.794 42.9723L123.858 21.7148C123.858 21.7148 124.325 21.7538 125.221 21.8316C126.116 21.8706 127.44 22.0652 129.075 22.3767C130.711 22.6882 132.736 23.0386 135.033 23.4279C137.33 23.8951 139.861 24.7127 142.626 25.4524C153.567 28.7617 167.623 35.614 178.993 46.1259C190.401 56.521 198.695 69.7972 202.939 80.4649C204.146 83.0734 204.886 85.6041 205.586 87.8232C206.287 90.0424 206.949 91.9891 207.261 93.6243C207.962 96.8947 208.39 98.7634 208.39 98.7634L187.442 102.774L187.403 102.851Z" fill="#1F669E"/>
<path d="M208.195 186.595C212.284 180.872 215.515 175.928 217.307 172.268C219.175 168.647 220.227 166.545 220.227 166.545L200.914 157.435C200.914 157.435 200.019 159.148 198.5 162.107C197.059 165.143 194.373 169.114 191.063 173.825C188.805 176.94 185.962 180.249 182.731 183.481L196.553 199.872C201.109 195.433 205.041 190.878 208.156 186.595H208.195Z" fill="#8BAD3D"/>
<path d="M182.73 183.481C176.345 189.944 168.246 196.29 159.213 201.001C145.702 208.398 130.321 211.552 118.874 211.98C113.111 212.292 108.322 211.902 104.974 211.591C103.299 211.474 101.975 211.318 101.119 211.124C100.223 210.968 99.756 210.89 99.756 210.89L96.4075 231.953C96.4075 231.953 96.9915 232.031 98.0817 232.226C99.172 232.42 100.768 232.654 102.832 232.81C106.92 233.199 112.8 233.666 119.847 233.277C133.904 232.771 152.671 228.877 169.219 219.845C179.654 214.433 189.038 207.231 196.631 199.833L182.808 183.442L182.73 183.481Z" fill="#9BC450"/>
<path d="M182.108 147.391C182.108 147.391 183.198 144.626 184.833 140.46C185.456 138.319 186.157 135.788 186.936 133.102C187.364 130.338 188.104 127.457 188.337 124.459C188.532 121.5 188.883 118.541 188.727 115.738C188.727 114.336 188.649 112.974 188.649 111.728C188.493 110.443 188.376 109.236 188.26 108.146C187.987 105.927 187.792 104.058 187.481 102.812C187.208 101.527 187.053 100.827 187.053 100.827L207.884 96.2324C207.884 96.2324 208.078 97.1668 208.429 98.802C208.857 100.437 209.13 102.812 209.48 105.654C209.636 107.095 209.792 108.652 209.986 110.287C210.025 111.922 210.064 113.674 210.103 115.465C210.298 119.086 209.908 122.902 209.597 126.717C209.285 130.532 208.39 134.309 207.806 137.852C206.871 141.317 205.976 144.548 205.119 147.313C203.017 152.646 201.615 156.189 201.615 156.189L182.185 147.352L182.108 147.391Z" fill="#078EBF"/>
<path d="M106.726 0.185029C94.3828 1.08049 82.3123 4.00047 71.5658 8.20525C60.7413 12.3322 51.5912 18.2111 44.1153 23.5838C40.5331 26.5038 37.1845 29.1512 34.4979 31.7598C31.8113 34.4072 29.514 36.7821 27.645 38.7288C24.1407 42.8557 22.2717 45.3085 22.2717 45.3085L39.1703 58.3511C39.1703 58.3511 40.7667 56.4044 43.5702 52.9783C45.1277 51.421 46.9966 49.4743 49.1382 47.2941C51.3576 45.1528 54.0831 43.0114 57.0034 40.5976C63.1554 36.2371 70.5924 31.3704 79.47 28.0222C88.2697 24.5961 98.1207 22.2212 108.205 21.4425C109.49 21.3646 110.736 21.3646 112.021 21.3646L111.242 0.0292969C109.724 0.0292969 108.244 0.0292969 106.726 0.146096V0.185029Z" fill="#00B49D"/>
<path d="M194.957 31.9926C193.905 30.9803 192.426 29.462 190.284 27.7878C188.182 26.0748 185.651 23.9724 182.614 21.7532C179.46 19.6897 175.994 17.237 171.945 15.0178C163.885 10.5794 154.034 6.17996 142.742 3.41572C132.891 1.00186 122.067 -0.205062 111.242 0.0285364L112.021 21.3249C120.821 21.1303 129.582 22.1036 137.642 24.0503C146.87 26.2694 154.93 29.9292 161.549 33.5499C164.858 35.3409 167.662 37.4043 170.271 39.0784C172.763 40.8693 174.787 42.6213 176.54 44.0229C178.292 45.3856 179.499 46.6314 180.355 47.449C181.212 48.2666 181.64 48.7338 181.64 48.7338L196.631 33.511C196.631 33.511 196.086 32.9659 195.035 31.9537L194.957 31.9926Z" fill="#1FCFB6"/>
<path d="M20.909 134.271C20.909 134.271 21.1815 135.516 21.6488 137.658C21.8824 138.748 22.1939 140.033 22.5443 141.551C23.0116 143.03 23.5177 144.666 24.1018 146.457C25.1141 150.116 26.9831 154.087 28.8521 158.409C31.0715 162.575 33.4077 167.052 36.3669 171.14C42.1295 179.394 49.2161 186.752 55.2902 191.307C58.1715 193.76 60.8582 195.434 62.7271 196.641C64.5961 197.848 65.6474 198.51 65.6474 198.51L54.7061 216.809C54.7061 216.809 53.4212 215.991 51.124 214.512C48.8656 213.032 45.5949 210.969 42.0517 207.971C34.6537 202.364 25.9318 193.41 18.8842 183.287C15.2631 178.265 12.3429 172.853 9.69515 167.714C7.35894 162.458 5.13954 157.514 3.85463 153.075C3.15376 150.856 2.53077 148.87 1.98566 147.079C1.55735 145.25 1.20692 143.653 0.895425 142.33C0.35031 139.682 -0.00012207 138.203 -0.00012207 138.203L20.9868 134.271H20.909Z" fill="#1F669E"/>
<path d="M197.449 69.3682C197.449 69.3682 197.254 68.9788 196.865 68.317C196.475 67.6551 195.969 66.6818 195.19 65.5917C193.672 63.4503 191.842 60.3746 189.583 57.6882C185.261 52.0819 180.044 47.2931 180.044 47.2931L194.684 31.7588C194.684 31.7588 201.07 37.6377 206.365 44.4899C209.13 47.7992 211.388 51.4979 213.218 54.1843C214.153 55.508 214.776 56.7149 215.243 57.5325L215.983 58.8173L197.449 69.4071V69.3682Z" fill="#1FCFB6"/>
<path d="M85.7389 104.602C85.7389 104.602 85.1548 105.692 84.6097 107.678C83.9478 109.625 83.4416 112.506 83.208 116.01C83.1301 119.514 83.6752 123.718 85.2716 127.884C86.907 132.05 89.5547 136.099 92.9032 139.331C96.2129 142.562 100.418 145.093 104.701 146.494C108.906 147.857 113.034 148.285 116.538 148.013C120.042 147.701 122.962 146.962 124.909 146.261C125.922 146.066 126.623 145.521 127.129 145.365C127.635 145.171 127.907 145.054 127.907 145.054L136.98 164.365C136.98 164.365 136.513 164.559 135.656 164.91C134.76 165.221 133.592 165.961 131.918 166.389C128.647 167.557 123.78 168.803 117.862 169.309C111.943 169.737 104.935 169.076 97.8482 166.701C90.7228 164.365 83.7141 160.199 78.0683 154.709C72.3446 149.259 67.9447 142.445 65.2581 135.476C62.5714 128.507 61.637 121.499 61.7927 115.543C62.0263 109.625 62.9997 104.719 64.09 101.449C64.4793 99.7357 65.1023 98.5288 65.4138 97.6333C65.7643 96.7768 65.92 96.3096 65.92 96.3096L85.622 104.563L85.7389 104.602Z" fill="#00D7FB"/>
<path d="M143.249 129.715C143.249 129.715 142.898 130.26 142.392 131.272C142.003 132.362 140.951 133.608 139.978 135.282C137.759 138.436 133.943 141.94 129.348 144.354C124.832 146.962 119.536 147.858 115.72 147.974C111.866 148.169 109.374 147.546 109.374 147.546L105.714 168.57C105.714 168.57 109.958 169.582 116.46 169.31C122.885 169.115 131.684 167.48 139.316 163.236C147.025 159.187 153.489 153.191 157.227 147.897C158.979 145.171 160.537 142.952 161.315 141.2C162.211 139.526 162.717 138.553 162.717 138.553L143.288 129.715H143.249Z" fill="#00B3DD"/>
<path d="M142.859 102.85C142.859 102.85 142.314 102.072 141.574 100.553C141.185 99.8135 140.484 99.0738 139.9 98.0616C139.199 97.1661 138.343 96.1538 137.408 95.1026C135.5 93.0002 132.852 91.0147 129.699 89.2237C126.545 87.3939 122.807 86.1091 119.108 85.6419C111.632 84.5128 103.806 86.6152 98.8995 89.6131C97.6146 90.236 96.6412 91.1704 95.6288 91.7155C94.7722 92.533 93.9934 93.1171 93.3315 93.6232C92.2413 94.869 91.5404 95.492 91.5404 95.492L75.8099 81.0867C75.8099 81.0867 76.9391 79.9577 78.886 77.9331C79.9762 77.0377 81.2611 75.9476 82.7407 74.7017C84.376 73.6505 86.0893 72.2489 88.2308 71.1199C96.4465 66.1364 109.49 62.5935 122.184 64.5012C134.994 66.0585 146.441 73.4948 152.905 80.3859C154.54 82.1379 155.903 83.851 157.11 85.4083C158.161 87.0435 159.213 88.4061 159.914 89.6131C161.276 92.0659 162.055 93.4674 162.055 93.4674L142.859 102.85Z" fill="#1F669E"/>
<path d="M136.162 93.8965C136.162 93.8965 140.445 97.8287 142.937 103.163C144.144 105.81 145.04 108.613 145.39 110.755C145.779 111.806 145.624 112.74 145.779 113.363C145.857 113.986 145.935 114.336 145.935 114.336L167.234 112.701C167.234 112.701 167.156 112.117 167 111.027C166.805 109.976 166.883 108.419 166.338 106.667C165.676 103.085 164.235 98.3738 162.172 93.9354C159.913 89.6138 157.422 85.4091 154.891 82.7227C153.8 81.2822 152.71 80.192 151.931 79.4912C151.192 78.7515 150.763 78.3232 150.763 78.3232L136.123 93.8575L136.162 93.8965Z" fill="#2F387A"/>
<path d="M141.691 47.7994C141.691 47.7994 140.99 47.5269 139.744 47.0208C138.537 46.4368 136.668 46.0085 134.449 45.3466C133.359 45.0352 132.152 44.7237 130.867 44.3733C129.582 44.1397 128.219 43.9061 126.778 43.6336C123.975 43.0106 120.899 42.9328 117.862 42.6603C114.825 42.5045 111.749 42.6603 108.906 42.777C106.064 43.1664 103.377 43.3221 101.158 43.8282C98.8995 44.3344 97.0306 44.7237 95.7457 44.9962C94.4607 45.3466 93.7209 45.6192 93.7209 45.6192L99.7562 66.098C99.7562 66.098 100.262 65.9033 101.197 65.6308C102.131 65.4361 103.455 65.1246 105.052 64.8132C106.648 64.4238 108.556 64.3849 110.581 64.0735C112.605 64.0345 114.786 63.8788 116.966 63.9956C119.108 64.2292 121.327 64.1903 123.313 64.6964C124.325 64.8521 125.299 65.0468 126.194 65.2025C127.09 65.475 127.946 65.7086 128.725 65.9422C130.283 66.4094 131.645 66.682 132.502 67.1102C133.398 67.4606 133.904 67.6553 133.904 67.6553L141.73 47.7994H141.691Z" fill="#2F387A"/>
<path d="M76.5497 180.211L87.491 161.912C87.491 161.912 85.8946 160.861 83.1301 158.992C80.5992 156.89 76.7055 154.009 73.279 149.376C69.7747 144.899 66.3483 139.02 64.2846 132.128C62.1431 125.276 61.3254 117.529 62.2988 110.014C63.2723 102.5 66.0368 95.142 69.7747 89.0295C73.5127 82.917 78.224 78.0893 82.7796 74.6243C87.4131 71.276 91.6962 69.0958 94.8111 67.8499C96.3297 67.1102 97.6146 66.8377 98.4712 66.5262C99.3278 66.2537 99.795 66.0979 99.795 66.0979L93.7598 45.6191C93.7598 45.6191 93.1368 45.8138 91.9298 46.2031C90.7617 46.6314 88.9317 47.0597 86.8291 48.033C82.4681 49.746 76.4719 52.7828 69.9694 57.5327C63.5838 62.3993 56.9256 69.2126 51.6691 77.7779C46.4126 86.3431 42.5968 96.5826 41.1951 107.211C39.8323 117.84 40.9615 128.741 43.9596 138.319C46.9188 147.935 51.6691 156.189 56.6141 162.496C61.4812 168.92 66.8545 173.086 70.4756 176.006C74.3303 178.692 76.5887 180.094 76.5887 180.094L76.5497 180.211Z" fill="#2F387A"/>
<path d="M264.584 149.727C263.238 149.35 262.162 148.704 261.354 147.789C260.601 146.82 260.224 145.69 260.224 144.398C260.224 143.698 260.412 142.837 260.789 141.814L280.409 93.7741C280.947 92.4284 281.997 91.7556 283.558 91.7556C285.011 91.7556 286.034 92.4284 286.626 93.7741L306.165 141.814C306.542 142.622 306.73 143.483 306.73 144.398C306.73 145.636 306.353 146.739 305.6 147.708C304.846 148.677 303.796 149.35 302.451 149.727L295.507 132.287H271.608L264.584 149.727ZM293.408 126.635L282.427 98.7799L281.943 98.9414L283.154 102.171L273.627 126.635H293.408ZM328.586 149.727C323.903 149.727 320.108 148.462 317.201 145.932C314.349 143.402 312.922 140.038 312.922 135.839V121.71C312.922 117.512 314.376 114.174 317.282 111.698C320.189 109.168 324.011 107.904 328.747 107.904C331.331 107.904 333.726 108.442 335.933 109.518C338.14 110.595 340.105 112.102 341.827 114.04L341.989 113.636C341.504 112.99 340.966 112.371 340.374 111.779V96.7614C340.374 93.4242 342.365 91.7556 346.349 91.7556V144.398C346.349 147.95 344.438 149.727 340.616 149.727V145.124L342.231 143.106L341.989 142.783C338.275 147.412 333.807 149.727 328.586 149.727ZM329.635 144.479C332.65 144.479 335.18 143.671 337.225 142.056C339.324 140.442 340.374 138.45 340.374 136.082V121.468C340.374 119.099 339.378 117.135 337.386 115.574C335.395 113.959 332.784 113.152 329.555 113.152C326.217 113.152 323.58 113.932 321.642 115.493C319.758 117.054 318.816 119.18 318.816 121.871V135.678C318.816 138.477 319.758 140.657 321.642 142.218C323.526 143.725 326.191 144.479 329.635 144.479ZM371.207 149.727C370.561 149.727 369.969 149.538 369.431 149.161C368.892 148.839 368.516 148.408 368.3 147.87L352.475 108.388C353.336 108.065 354.198 107.904 355.059 107.904C357.266 107.904 358.719 108.872 359.419 110.81L370.884 141.088L369.754 144.156L370.157 144.317L382.914 110.81C383.237 109.841 383.775 109.115 384.529 108.63C385.336 108.146 386.251 107.904 387.274 107.904C388.135 107.904 388.997 108.065 389.858 108.388L374.033 147.87C373.817 148.408 373.441 148.839 372.902 149.161C372.418 149.538 371.853 149.727 371.207 149.727ZM402.389 101.041C401.043 101.041 399.886 100.61 398.917 99.7488C398.002 98.8337 397.544 97.7034 397.544 96.3577C397.544 95.0659 398.002 93.9894 398.917 93.1281C399.886 92.2131 401.043 91.7556 402.389 91.7556C403.681 91.7556 404.784 92.2131 405.699 93.1281C406.668 93.9894 407.152 95.0659 407.152 96.3577C407.152 97.6496 406.668 98.753 405.699 99.6681C404.784 100.583 403.681 101.041 402.389 101.041ZM399.401 112.748C399.401 109.518 401.366 107.904 405.295 107.904V144.963C405.295 148.139 403.331 149.727 399.401 149.727V112.748ZM433.284 149.727C430.431 149.727 427.793 149.296 425.371 148.435C423.003 147.52 421.119 146.282 419.719 144.721C418.32 143.106 417.62 141.276 417.62 139.23C417.62 136.916 418.966 135.678 421.657 135.516C422.626 141.653 426.582 144.721 433.526 144.721C436.809 144.721 439.339 144.209 441.115 143.187C442.946 142.11 443.861 140.549 443.861 138.504C443.861 137.104 443.511 135.947 442.811 135.032C442.111 134.117 440.927 133.337 439.258 132.691C437.644 132.045 435.356 131.426 432.396 130.834C427.282 129.703 423.568 128.277 421.253 126.554C418.993 124.778 417.862 122.194 417.862 118.803C417.862 116.704 418.481 114.847 419.719 113.232C421.011 111.564 422.788 110.272 425.048 109.357C427.309 108.388 429.839 107.904 432.638 107.904C435.329 107.904 437.832 108.307 440.147 109.115C442.461 109.868 444.318 110.999 445.718 112.506C447.117 113.959 447.817 115.628 447.817 117.512C447.817 118.588 447.413 119.449 446.606 120.095C445.798 120.741 444.668 121.091 443.215 121.145C442.999 118.561 441.977 116.543 440.147 115.089C438.316 113.582 435.814 112.829 432.638 112.829C429.893 112.829 427.686 113.367 426.017 114.443C424.402 115.52 423.595 116.973 423.595 118.803C423.595 120.633 424.349 122.06 425.856 123.083C427.363 124.051 429.893 124.913 433.445 125.666C439.097 126.797 443.188 128.331 445.718 130.268C448.247 132.152 449.512 134.817 449.512 138.262C449.512 141.868 448.086 144.694 445.233 146.739C442.38 148.731 438.397 149.727 433.284 149.727ZM475.186 149.727C471.956 149.727 469.076 149.108 466.547 147.87C464.017 146.632 462.052 144.909 460.653 142.702C459.253 140.495 458.553 137.992 458.553 135.194V122.76C458.553 120.014 459.307 117.512 460.814 115.251C462.321 112.936 464.34 111.133 466.87 109.841C469.399 108.549 472.171 107.904 475.186 107.904C478.2 107.904 480.972 108.549 483.502 109.841C486.032 111.079 488.023 112.829 489.477 115.089C490.93 117.35 491.657 119.88 491.657 122.679V128.008C491.657 128.707 491.361 129.326 490.768 129.865C490.23 130.403 489.584 130.672 488.831 130.672H464.367V135.032C464.367 137.939 465.309 140.28 467.192 142.056C469.076 143.779 471.741 144.64 475.186 144.64C478.684 144.64 481.349 143.86 483.179 142.299C485.063 140.738 486.005 138.611 486.005 135.92C487.297 135.813 488.427 136.135 489.396 136.889C490.365 137.643 490.849 138.585 490.849 139.715C490.849 141.437 490.123 143.079 488.669 144.64C487.216 146.201 485.278 147.439 482.856 148.354C480.434 149.269 477.877 149.727 475.186 149.727ZM486.086 125.828V122.679C486.086 119.826 485.09 117.512 483.098 115.735C481.107 113.905 478.469 112.99 475.186 112.99C471.956 112.99 469.346 113.905 467.354 115.735C465.362 117.512 464.367 119.826 464.367 122.679V125.828H486.086ZM517.855 113.152C514.895 113.152 512.419 114.094 510.427 115.977C508.436 117.808 507.44 120.041 507.44 122.679V144.963C507.44 146.578 506.929 147.789 505.906 148.596C504.937 149.35 503.457 149.727 501.465 149.727V113.232C501.465 109.68 503.376 107.904 507.198 107.904V112.909C506.39 113.771 505.825 114.524 505.502 115.17L505.744 115.493C509.297 110.433 513.63 107.904 518.743 107.904C520.52 107.904 521.892 108.334 522.861 109.195C523.884 110.003 524.395 110.999 524.395 112.183C524.395 113.044 524.18 113.771 523.749 114.363C522.242 113.555 520.278 113.152 517.855 113.152Z" fill="white"/>
<path d="M532.189 99.7488C532.189 97.1651 533.104 95.2005 534.934 93.8548C536.764 92.4553 539.456 91.7556 543.008 91.7556V115.816H567.149V99.7488C567.149 97.1113 568.065 95.1197 569.895 93.7741C571.779 92.4284 574.47 91.7556 577.969 91.7556V141.733C577.969 144.317 577.027 146.309 575.143 147.708C573.313 149.054 570.648 149.727 567.149 149.727V125.182H543.008V141.733C543.008 144.317 542.066 146.309 540.182 147.708C538.352 149.054 535.688 149.727 532.189 149.727V99.7488ZM610.876 149.727C606.354 149.727 602.263 148.812 598.603 146.982C594.997 145.151 592.171 142.622 590.126 139.392C588.08 136.162 587.057 132.502 587.057 128.411V99.7488C587.057 97.1651 587.973 95.2005 589.803 93.8548C591.633 92.4553 594.324 91.7556 597.877 91.7556V128.411C597.877 132.018 599.061 134.897 601.429 137.051C603.797 139.204 606.946 140.28 610.876 140.28C614.805 140.28 617.954 139.204 620.322 137.051C622.691 134.897 623.875 132.018 623.875 128.411V99.7488C623.875 97.1113 624.79 95.1197 626.62 93.7741C628.45 92.4284 631.141 91.7556 634.694 91.7556V128.411C634.694 132.502 633.671 136.162 631.626 139.392C629.58 142.622 626.728 145.151 623.067 146.982C619.461 148.812 615.397 149.727 610.876 149.727ZM649.168 149C647.714 149 646.449 148.516 645.373 147.547C644.296 146.578 643.758 145.421 643.758 144.075V97.4073C643.758 96.0617 644.269 94.9044 645.292 93.9355C646.369 92.9667 647.661 92.4822 649.168 92.4822H670.887C676.054 92.4822 680.172 93.9355 683.24 96.8422C686.362 99.695 687.923 103.544 687.923 108.388C687.923 110.702 687.304 112.909 686.066 115.009C684.828 117.054 683.186 118.642 681.141 119.772V120.014C683.94 120.983 686.146 122.571 687.761 124.778C689.43 126.985 690.264 129.515 690.264 132.368C690.264 135.597 689.511 138.477 688.003 141.007C686.496 143.537 684.397 145.501 681.706 146.901C679.014 148.3 675.946 149 672.501 149H649.168ZM670.725 116.22C672.501 116.22 674.009 115.493 675.247 114.04C676.538 112.586 677.184 110.837 677.184 108.792C677.184 106.585 676.592 104.835 675.408 103.544C674.278 102.252 672.717 101.606 670.725 101.606H654.254V116.22H670.725ZM672.34 139.876C674.547 139.876 676.296 139.23 677.588 137.939C678.88 136.593 679.526 134.763 679.526 132.448C679.526 130.188 678.88 128.438 677.588 127.2C676.35 125.908 674.601 125.263 672.34 125.263H654.254V139.876H672.34Z" fill="#00B49D"/>
</svg>
