<svg width="67" height="67" viewBox="0 0 67 67" fill="none" xmlns="http://www.w3.org/2000/svg">
<circle cx="33.3012" cy="33.3012" r="33.3012" fill="#00B49D"/>
<mask id="mask0_502_131" style="mask-type:alpha" maskUnits="userSpaceOnUse" x="11" y="11" width="45" height="45">
<rect x="11" y="11" width="44.4016" height="44.4016" fill="#D9D9D9"/>
</mask>
<g mask="url(#mask0_502_131)">
<path d="M25.6155 44.6718H28.0822V40.725H32.0291V38.2583H28.0822V34.3114H25.6155V38.2583H21.6687V40.725H25.6155V44.6718ZM35.3283 43.1301H44.6095V40.6942H35.3283V43.1301ZM35.3283 38.2891H44.6095V35.8223H35.3283V38.2891ZM37.1476 30.9196L39.8919 28.1754L42.6361 30.9196L44.3937 29.1621L41.6494 26.387L44.3937 23.6427L42.6361 21.8851L39.8919 24.6294L37.1476 21.8851L35.39 23.6427L38.1343 26.387L35.39 29.1621L37.1476 30.9196ZM22.2854 27.6203H31.4124V25.1536H22.2854V27.6203ZM16.5502 49.852V16.5508H49.8514V49.852H16.5502ZM19.6336 46.7686H46.7679V19.6342H19.6336V46.7686Z" fill="white"/>
</g>
</svg>
