<?xml version="1.0" standalone="no"?>
<!DOCTYPE svg PUBLIC "-//W3C//DTD SVG 1.1//EN" "http://www.w3.org/Graphics/SVG/1.1/DTD/svg11.dtd" >
<svg>
<metadata>
Created by FontForge 20090622 at Tue Aug 14 09:23:42 2018
 By deploy user
2009 Erik Spiekermann published by FSI FontShop International GmbH
</metadata>
<defs>
<font id="MetaOffc-Bold" horiz-adv-x="1" >
  <font-face 
    font-family="Meta Offc"
    font-weight="700"
    font-stretch="normal"
    units-per-em="1000"
    panose-1="2 11 8 4 3 1 1 2 1 2"
    ascent="763"
    descent="-237"
    x-height="512"
    cap-height="695"
    bbox="-185 -307 1209 942"
    underline-thickness="98"
    underline-position="-21"
    unicode-range="U+0020-U+FEFF"
  />
<missing-glyph horiz-adv-x="554" 
d="M57 695h440v-695h-440v695zM447 50v595h-340v-595h340z" />
    <glyph glyph-name=".notdef" horiz-adv-x="554" 
d="M57 695h440v-695h-440v695zM447 50v595h-340v-595h340z" />
    <glyph glyph-name=".null" horiz-adv-x="0" 
 />
    <glyph glyph-name="nonmarkingreturn" horiz-adv-x="225" 
 />
    <glyph glyph-name="space" unicode=" " horiz-adv-x="225" 
 />
    <glyph glyph-name="exclam" unicode="!" horiz-adv-x="305" 
d="M203 221h-102l-30 466l160 23zM235 70q0 -35 -24.5 -59t-59.5 -24q-34 0 -57.5 24t-23.5 59t24 59t59 24q34 0 58 -24t24 -59z" />
    <glyph glyph-name="quotedbl" unicode="&#x22;" horiz-adv-x="498" 
d="M302 426v282h126v-282h-126zM70 426v282h126v-282h-126z" />
    <glyph glyph-name="numbersign" unicode="#" horiz-adv-x="572" 
d="M441 417l-17 -126h84v-90h-96l-28 -201h-97l28 201h-99l-28 -201h-97l28 201h-84v90h96l17 126h-84v90h96l28 201h97l-28 -201h99l28 201h97l-28 -201h84v-90h-96zM245 417l-17 -126h99l17 126h-99z" />
    <glyph glyph-name="dollar" unicode="$" horiz-adv-x="622" 
d="M573 219q0 -48 -17 -88t-49 -70t-77 -49t-100 -25v-81h-86v81q-51 5 -101 20.5t-94 40.5l52 109q49 -26 93.5 -41t97.5 -15q122 0 122 95q0 65 -91 90l-77 21q-52 14 -85 35t-52 53q-29 47 -29 106q0 43 15 79.5t42.5 64.5t66 45.5t85.5 23.5v72h86v-73
q53 -5 100.5 -22.5t85.5 -44.5l-66 -100q-48 29 -85.5 41t-76.5 12q-43 0 -70 -22.5t-27 -57.5q0 -27 16.5 -42.5t60.5 -27.5l84 -23q86 -23 131 -76t45 -131z" />
    <glyph glyph-name="percent" unicode="%" horiz-adv-x="850" 
d="M815 164q0 -43 -11 -73.5t-36 -54.5q-23 -22 -52 -34t-73 -12q-78 0 -123.5 46.5t-45.5 125.5q0 39 12 71t34 55t53.5 35.5t69.5 12.5q81 0 128 -50q23 -23 33.5 -52t10.5 -70zM376 533q0 -43 -11 -73.5t-36 -54.5q-23 -22 -52 -34t-73 -12q-78 0 -123.5 46.5
t-45.5 125.5q0 39 12 71t34 55t53.5 35.5t69.5 12.5q81 0 128 -50q23 -23 33.5 -52t10.5 -70zM291 0h-95l364 695h95zM265 535q0 61 -20 80q-16 16 -42 16q-37 0 -50 -30q-5 -13 -7 -28.5t-2 -38.5q0 -26 2.5 -45t8.5 -30q7 -11 20 -18t30 -7q32 0 46 23.5t14 77.5zM704 166
q0 61 -20 80q-16 16 -42 16q-37 0 -50 -30q-5 -13 -7 -28.5t-2 -38.5q0 -26 2.5 -45t8.5 -30q7 -11 20 -18t30 -7q32 0 46 23.5t14 77.5z" />
    <glyph glyph-name="ampersand" unicode="&#x26;" horiz-adv-x="715" 
d="M529 0l-42 42q-11 -10 -28 -20t-32 -16q-51 -20 -131 -20q-121 0 -186 49t-65 140q0 115 125 173q-27 21 -42 37t-23 34q-7 14 -11.5 36.5t-4.5 42.5q0 37 14.5 68t41 53t63.5 34.5t81 12.5q45 0 82 -11.5t64 -32.5t42 -50t15 -64q0 -28 -9 -53t-25 -43
q-15 -17 -34.5 -30t-53.5 -32l-9 -5l116 -110l5 20.5t2.5 18.5t1 23.5t0.5 35.5v7h112v-6q0 -113 -32 -186l149 -148h-186zM242 275q-54 -33 -54 -92q0 -48 29 -73.5t83 -25.5q72 0 105 34zM352 506q0 29 -17.5 48t-44.5 19q-29 0 -46.5 -18t-17.5 -47q0 -11 2 -20t8 -19
t16 -21.5t26 -27.5l8 -8q66 34 66 94z" />
    <glyph glyph-name="quotesingle" unicode="'" horiz-adv-x="266" 
d="M70 426v282h126v-282h-126z" />
    <glyph glyph-name="parenleft" unicode="(" horiz-adv-x="322" 
d="M302 -169q-73 25 -128 78.5t-86 128.5q-17 41 -26 89.5t-14 116.5q-3 43 -3 78q0 51 5.5 101.5t14.5 88.5q11 45 34.5 88.5t55.5 78.5q62 66 145 102l35 -79q-21 -15 -31 -23t-23 -21q-26 -26 -45 -56t-30 -65q-10 -28 -15.5 -57.5t-7.5 -73.5q-2 -22 -2 -43v-39
q0 -34 2 -74.5t6 -79.5q6 -54 16.5 -91.5t30.5 -72.5q9 -17 19 -30.5t22 -24.5t26.5 -21.5t33.5 -20.5z" />
    <glyph glyph-name="parenright" unicode=")" horiz-adv-x="320" 
d="M275 293q0 -52 -4.5 -103.5t-14.5 -89.5q-11 -45 -35 -88t-56 -78q-61 -67 -146 -102l-34 79l17.5 12.5t13.5 10.5t11 10t12 11q53 53 76 121q9 27 14 57t8 74q3 45 3 84q0 33 -1.5 73.5t-6.5 78.5q-6 54 -16 91.5t-30 72.5q-10 17 -19.5 30.5t-21.5 24.5t-26.5 21
t-33.5 21l35 78q73 -26 128.5 -78.5t85.5 -129.5q16 -41 25 -89.5t14 -116.5q2 -21 2 -40v-35z" />
    <glyph glyph-name="asterisk" unicode="*" horiz-adv-x="486" 
d="M325 476l83 -114l-83 -61l-84 115l-81 -110l-81 61l84 109l-133 46l32 95l131 -47v138h102v-138l131 43l30 -95z" />
    <glyph glyph-name="plus" unicode="+" horiz-adv-x="638" 
d="M382 240v-211h-126v211h-211v126h211v211h126v-211h211v-126h-211z" />
    <glyph glyph-name="comma" unicode="," horiz-adv-x="294" 
d="M239 36q0 -33 -10 -62t-29 -53t-45 -41t-57 -25l-53 56q33 8 52.5 23.5t19.5 33.5q0 10 -5.5 16.5t-20.5 15.5q-39 23 -39 70q0 36 25.5 61t61.5 25q44 0 72 -33.5t28 -86.5z" />
    <glyph glyph-name="hyphen" unicode="-" horiz-adv-x="330" 
d="M45 216v116h240v-116h-240z" />
    <glyph glyph-name="period" unicode="." horiz-adv-x="286" 
d="M231 73q0 -18 -7 -34.5t-19 -28.5t-28 -19t-34 -7q-37 0 -62.5 26t-25.5 63q0 36 25.5 61.5t61.5 25.5q37 0 63 -25.5t26 -61.5z" />
    <glyph glyph-name="slash" unicode="/" horiz-adv-x="446" 
d="M133 -154h-88l268 918h88z" />
    <glyph glyph-name="zero" unicode="0" horiz-adv-x="570" 
d="M522 333q0 -79 -17.5 -143t-49 -109.5t-75 -70t-96.5 -24.5q-55 0 -99 24.5t-74.5 69.5t-47 108.5t-16.5 141.5q0 79 17.5 143t49 109.5t75 70t96.5 24.5q55 0 98.5 -24.5t74.5 -69.5t47.5 -108.5t16.5 -141.5zM373 329q0 76 -6.5 124.5t-18.5 76.5t-28 38.5t-35 10.5
q-26 0 -43 -17.5t-27 -50t-14.5 -77.5t-4.5 -99q0 -76 6.5 -125t18.5 -77t28 -38.5t35 -10.5q25 0 42.5 18t27.5 50t14.5 77.5t4.5 99.5z" />
    <glyph glyph-name="one" unicode="1" horiz-adv-x="570" 
d="M120 0v109h117v404q-28 -17 -64 -34.5t-69 -28.5l-34 72l207 145h91v-558h87v-109h-335z" />
    <glyph glyph-name="two" unicode="2" horiz-adv-x="570" 
d="M488 0h-429v94l36 35l45 45l46 47l40 43q33 37 54.5 67t33.5 55t16.5 45.5t4.5 37.5q0 26 -6.5 43t-18 27.5t-26.5 15t-32 4.5q-32 0 -65.5 -15.5t-75.5 -50.5l-72 85q54 48 114 73.5t138 25.5q45 0 81 -14t61.5 -39t39 -60.5t13.5 -77.5q0 -54 -31.5 -111t-85.5 -116
l-54.5 -56.5l-64.5 -62.5q-8 -8 -19 -18t-19 -15q17 2 48.5 3.5t56.5 1.5h200z" />
    <glyph glyph-name="three" unicode="3" horiz-adv-x="570" 
d="M512 204q0 -52 -26 -95t-72.5 -74t-111 -48t-142.5 -17q-23 0 -39 0.5t-44 4.5l-32 93q23 -5 37.5 -6t38.5 -1q52 0 95 11.5t74 31.5t48 48.5t17 62.5q0 25 -12 46t-32 30q-14 7 -37 9.5t-56 2.5q-13 0 -25.5 -0.5t-25.5 -0.5v112q17 -2 34.5 -3t34.5 -1q111 0 111 79
q0 32 -20.5 53.5t-64.5 21.5q-51 0 -88 -18.5t-60 -37.5l-70 85q51 39 111.5 61.5t124.5 22.5q47 0 86.5 -13t68.5 -36.5t45 -55.5t16 -69q0 -55 -30 -94t-73 -53q57 -19 88 -59t31 -93z" />
    <glyph glyph-name="four" unicode="4" horiz-adv-x="570" 
d="M487 125q-13 0 -21 1t-10 1q1 -2 3 -11.5t2 -24.5v-115l-127 -16v143q0 6 1 14.5t1 10.5q-2 -1 -10 -2t-22 -1h-265v91l193 453h138l-142 -338q-12 -29 -24.5 -53.5t-22.5 -39.5q2 0 8 1t13 1h113q8 0 15 -0.5t9 -0.5q0 2 -0.5 8.5t-0.5 9.5q0 21 1.5 58.5t5.5 74.5
l11 117l105 24v-197q0 -17 -0.5 -45.5t-2.5 -49.5q3 0 13.5 0.5t18.5 0.5h42v-115h-45z" />
    <glyph glyph-name="five" unicode="5" horiz-adv-x="570" 
d="M497 224q0 -56 -23.5 -102.5t-65 -80t-99.5 -52.5t-127 -19q-24 0 -38 1t-38 6l-29 99q29 -8 50.5 -11t43.5 -3q40 0 73 10.5t57 30t37.5 46.5t13.5 59q0 48 -30 77t-79 29q-31 0 -64.5 -6.5t-81.5 -21.5l32 379h341l-20 -114h-196l-14 -138q16 3 24.5 4t22.5 1
q46 0 85 -14.5t66.5 -40t43 -61t15.5 -78.5z" />
    <glyph glyph-name="six" unicode="6" horiz-adv-x="570" 
d="M527 214q0 -48 -18 -90t-49.5 -72.5t-74.5 -48t-92 -17.5q-55 0 -101 21t-79.5 58.5t-52 89t-18.5 113.5q0 91 36 167.5t102 138.5q52 49 120 86t137 59l29 -96q-31 -12 -59 -24t-53.5 -27t-49 -34t-44.5 -46q-37 -46 -54 -100q40 33 107 33q45 0 84.5 -16t68 -44.5
t45 -67t16.5 -83.5zM386 212q0 48 -24.5 76.5t-66.5 28.5q-24 0 -49 -8t-55 -25q-3 -29 -3 -60q0 -64 26 -99.5t73 -35.5q45 0 72 33t27 90z" />
    <glyph glyph-name="seven" unicode="7" horiz-adv-x="570" 
d="M500 548q-27 -39 -52 -80t-47 -81l-31 -61.5t-38 -84.5t-35 -93.5t-23 -86.5l-13 -70l-147 -37q10 42 18.5 74t17 59l17 52.5t19.5 54.5q20 54 40.5 101t47.5 100l27 51t23 39l21 32t22 31q-8 -2 -18.5 -3t-21.5 -1h-265l30 121h430z" />
    <glyph glyph-name="eight" unicode="8" horiz-adv-x="570" 
d="M542 183q0 -42 -17.5 -78.5t-49.5 -63.5q-42 -36 -94.5 -48.5t-106.5 -12.5q-45 0 -89 10.5t-79.5 33t-57 59t-21.5 89.5q0 57 32.5 103.5t85.5 65.5q-24 9 -42.5 25.5t-31 37t-19 43t-6.5 45.5q0 41 17.5 75t49 58.5t75.5 38t98 13.5q51 0 93 -13t72.5 -36t47.5 -55
t17 -70q0 -51 -35 -91.5t-94 -56.5q30 -10 57.5 -25t49.5 -35.5t35 -48t13 -63.5zM391 165q0 47 -38 72q-40 26 -113 51q-64 -37 -64 -106q0 -48 30.5 -75.5t82.5 -27.5q45 0 73.5 24t28.5 62zM367 507q0 35 -23 53.5t-68 18.5q-42 0 -67 -20.5t-25 -54.5q0 -19 8.5 -33
t22.5 -25t32.5 -19.5l38.5 -17.5q15 7 29.5 16.5t26 21.5t18.5 26.5t7 33.5z" />
    <glyph glyph-name="nine" unicode="9" horiz-adv-x="570" 
d="M529 404q0 -199 -164 -338q-46 -38 -102 -71t-110 -52l-73 82q40 10 82.5 33t79 53t64 63t38.5 65q-23 -11 -41 -15t-40 -4q-46 0 -85 17t-68 47t-45.5 70.5t-16.5 88.5q0 51 18 93.5t50.5 74t76.5 49t97 17.5q56 0 100.5 -19t75 -54t47 -85.5t16.5 -114.5zM384 440
q0 63 -26 98.5t-71 35.5q-43 0 -68.5 -34.5t-25.5 -92.5q0 -54 27.5 -86.5t73.5 -32.5q25 0 42.5 8.5t37.5 28.5q10 34 10 75z" />
    <glyph glyph-name="colon" unicode=":" horiz-adv-x="304" 
d="M238 68q0 -35 -25.5 -59.5t-61.5 -24.5q-35 0 -60.5 24.5t-25.5 59.5q0 37 25.5 63t61.5 26t61 -26t25 -63zM239 368q0 -36 -25.5 -61t-61.5 -25q-35 0 -60 25t-25 60q0 18 6.5 34t18 28t27 19t33.5 7q36 0 61.5 -25.5t25.5 -61.5z" />
    <glyph glyph-name="semicolon" unicode=";" horiz-adv-x="324" 
d="M259 35q0 -32 -10.5 -61t-29.5 -53t-45 -41.5t-57 -24.5l-52 56q32 8 51.5 23.5t19.5 33.5q0 9 -4.5 15.5t-18.5 14.5q-23 14 -32.5 30.5t-9.5 39.5q0 38 25 63t63 25q44 0 72 -34t28 -87zM246 369q0 -18 -6.5 -33.5t-18 -27t-27 -18.5t-33.5 -7t-34 6.5t-27.5 18
t-18.5 27t-7 33.5t6.5 34t18 28t26.5 19t33 7q36 0 62 -25.5t26 -61.5z" />
    <glyph glyph-name="less" unicode="&#x3c;" horiz-adv-x="416" 
d="M266 -12l-241 311l241 311l105 -92l-168 -219l168 -221z" />
    <glyph glyph-name="equal" unicode="=" horiz-adv-x="638" 
d="M45 336v126h548v-126h-548zM45 144v126h548v-126h-548z" />
    <glyph glyph-name="greater" unicode="&#x3e;" horiz-adv-x="416" 
d="M150 -12l-105 90l168 221l-168 219l105 92l241 -311z" />
    <glyph glyph-name="question" unicode="?" horiz-adv-x="484" 
d="M424 538q0 -35 -9.5 -59.5t-23 -42.5t-30 -29.5l-29.5 -20.5q-46 -29 -61 -63.5t-16 -66.5q0 -9 0.5 -18t1.5 -17h-115l-5 26q-4 19 -4 40q0 46 23 82.5t69 69.5l22 15t21.5 17.5t16 21.5t6.5 27q0 37 -24.5 53t-57.5 16q-36 0 -60.5 -14t-47.5 -32l-61 86q9 10 26 23
t41.5 25t56 20t70.5 8q38 0 72.5 -11.5t60.5 -33t41.5 -52.5t15.5 -70zM296 70q0 -35 -24.5 -59t-59.5 -24q-34 0 -57.5 24t-23.5 59t24 59t59 24q34 0 58 -24t24 -59z" />
    <glyph glyph-name="at" unicode="@" horiz-adv-x="901" 
d="M856 276q0 -66 -18 -120.5t-49 -93t-72.5 -60t-87.5 -21.5q-38 0 -60 8t-33.5 21t-16 29.5t-5.5 33.5q-26 -32 -65.5 -56t-84.5 -24q-61 0 -96 37.5t-35 112.5q0 62 19 119t55 100.5t89 69.5t121 26q37 0 73.5 -12t68.5 -29q-20 -67 -34.5 -134l-28.5 -135q-8 -38 -8 -55
q0 -21 10.5 -28t33.5 -7t42.5 16t33.5 45t22 69t8 88q0 59 -20 108t-56.5 83.5t-88 53.5t-114.5 19q-60 0 -113.5 -26.5t-94 -72.5t-64 -108t-23.5 -132q0 -69 21.5 -123t59 -90.5t88 -56t108.5 -19.5q41 0 76.5 5.5t67.5 16.5l18 -85q-37 -12 -78.5 -20t-83.5 -8
q-86 0 -158.5 26t-125 74.5t-82.5 119t-30 160.5q0 88 31 166t86 136.5t131 92.5t166 34q84 0 156.5 -25.5t126 -72t84 -112t30.5 -144.5zM544 372q-8 4 -15.5 5.5t-20.5 1.5q-45 0 -76 -22t-51 -56.5t-29 -77t-9 -84.5q0 -30 9.5 -46.5t32.5 -16.5q15 0 34 8.5t36 24
t31.5 39t20.5 53.5z" />
    <glyph glyph-name="A" unicode="A" horiz-adv-x="592" 
d="M445 0l-49 165h-204l-49 -165h-146l228 697h151l219 -697h-150zM362 281q-2 6 -6.5 21.5l-10 36l-11.5 42.5t-10 40l-28 123q-2 -6 -5.5 -21l-8 -34.5t-10 -40.5t-9.5 -38l-18 -66t-19 -63h136z" />
    <glyph glyph-name="B" unicode="B" horiz-adv-x="610" 
d="M565 194q0 -36 -11.5 -69.5t-34 -60t-56.5 -43.5t-80 -19q-17 -1 -38.5 -1.5t-50.5 -0.5h-219v695h235q32 0 56.5 -2.5t45 -8.5t37 -15.5t32.5 -23.5q57 -50 57 -124q0 -72 -47 -116q-15 -14 -27.5 -21t-36.5 -15q65 -19 101.5 -62.5t36.5 -112.5zM407 211q0 30 -14 54
t-37 31q-13 4 -23.5 5t-30.5 1h-87v-188h91q22 0 38 3.5t27 12.5q16 12 26 34t10 47zM392 497q0 22 -10.5 42t-29.5 28q-9 4 -22 6.5t-36 2.5h-80v-159h82q25 0 38 2t22 7q14 8 25 29t11 42z" />
    <glyph glyph-name="C" unicode="C" horiz-adv-x="574" 
d="M549 53q-42 -34 -87.5 -49.5t-105.5 -15.5q-143 0 -227 96q-84 94 -84 249q0 128 47 216q41 76 111 118.5t155 42.5q52 0 99.5 -15t76.5 -40l-63 -95q-53 39 -111 39q-35 0 -67 -16t-51 -44q-39 -58 -39 -179q0 -72 6.5 -114.5t22.5 -71.5q43 -78 134 -78q31 0 59.5 10
t59.5 35z" />
    <glyph glyph-name="D" unicode="D" horiz-adv-x="628" 
d="M583 345q0 -72 -17.5 -132.5t-52.5 -108.5q-32 -43 -76 -69.5t-93 -30.5q-20 -2 -44.5 -3t-55.5 -1h-169v695h140q30 0 65 -1t56 -3q45 -4 82.5 -20.5t69.5 -48.5q48 -48 71.5 -115.5t23.5 -161.5zM426 332q0 61 -7 110.5t-28 84.5q-17 29 -42.5 43.5t-67.5 14.5h-64
v-471h75q69 0 101.5 53.5t32.5 164.5z" />
    <glyph glyph-name="E" unicode="E" horiz-adv-x="505" 
d="M75 0v695h396l-18 -114h-236v-161h197v-114h-197v-186h263v-120h-405z" />
    <glyph glyph-name="F" unicode="F" horiz-adv-x="447" 
d="M436 582h-221v-159h177v-114h-177v-309h-140v695h377z" />
    <glyph glyph-name="G" unicode="G" horiz-adv-x="652" 
d="M587 54q-54 -32 -111.5 -47t-119.5 -15q-78 0 -136.5 26t-100.5 80q-38 49 -56 107t-18 136q0 219 145 316q38 26 78.5 37.5t90.5 11.5q63 0 119 -20t102 -60l-74 -87q-66 54 -145 54q-63 0 -100 -35q-35 -34 -47 -90t-12 -134q0 -146 52 -198q41 -39 109 -39q46 0 79 17
v158h-106l-18 114h269v-332z" />
    <glyph glyph-name="H" unicode="H" horiz-adv-x="631" 
d="M414 0v310h-200v-310h-139v695h139v-270h200v270h142v-695h-142z" />
    <glyph glyph-name="I" unicode="I" horiz-adv-x="296" 
d="M75 0v695h146v-695h-146z" />
    <glyph glyph-name="J" unicode="J" horiz-adv-x="297" 
d="M222 135q0 -34 -0.5 -55.5t-2 -36t-3 -24.5t-4.5 -20q-8 -32 -25 -58t-39.5 -46.5t-48 -35t-49.5 -23.5l-65 72q27 17 49.5 40t31.5 44q4 9 7 20t4.5 25.5t2 34.5t0.5 48v575h142v-560z" />
    <glyph glyph-name="K" unicode="K" horiz-adv-x="598" 
d="M429 0l-211 363v-363h-143v695h143v-317l198 317h172l-222 -322l247 -373h-184z" />
    <glyph glyph-name="L" unicode="L" horiz-adv-x="477" 
d="M442 0h-367v695h143v-579h249z" />
    <glyph glyph-name="M" unicode="M" horiz-adv-x="828" 
d="M636 0l-26 371q-2 33 -3.5 60.5t-1.5 55.5q-6 -30 -11.5 -52.5t-14.5 -54.5l-110 -380h-119l-99 365q-7 26 -15 59q-8 32 -13 60q0 -29 -2 -58q-1 -31 -3 -63l-24 -363h-139l65 695h179l91 -348q5 -19 8.5 -33.5t6 -27l5 -24.5t4.5 -25q9 52 25 113l94 345h178l62 -695
h-137z" />
    <glyph glyph-name="N" unicode="N" horiz-adv-x="633" 
d="M412 0l-119 266l-29.5 66.5l-27.5 64l-23 55.5l-14 38q2 -19 3 -43l2 -51t1.5 -51.5t0.5 -47.5l4 -297h-135v695h155l133 -278q26 -56 45.5 -107.5t30.5 -89.5q-2 20 -4 45.5t-3.5 52t-2.5 51t-1 42.5l-3 284h133v-695h-146z" />
    <glyph glyph-name="O" unicode="O" horiz-adv-x="690" 
d="M645 351q0 -118 -39.5 -203t-115.5 -127q-32 -17 -63.5 -24.5t-75.5 -7.5q-79 0 -132.5 23t-93.5 75q-80 103 -80 258q0 113 41 198t116 127q31 17 68 25.5t76 8.5q69 0 124.5 -24.5t94.5 -70.5t59.5 -111t20.5 -147zM484 347q0 54 -4.5 93t-13.5 68q-4 13 -13 28.5
t-24 28.5t-36 22t-49 9q-35 0 -64 -16.5t-44 -44.5q-35 -66 -35 -190q0 -181 62 -225q33 -24 83 -24q73 0 105.5 59t32.5 192z" />
    <glyph glyph-name="P" unicode="P" horiz-adv-x="576" 
d="M551 481q0 -69 -31.5 -122t-88.5 -80q-12 -6 -24.5 -10t-28 -7t-36.5 -4.5t-50 -1.5h-77v-256h-140v695h183q44 0 74.5 -2t52 -6.5t36.5 -11t30 -14.5q49 -27 74.5 -73.5t25.5 -106.5zM398 478q0 49 -24.5 76.5t-69.5 27.5h-89v-212h73q21 0 35.5 1.5t25 5.5t18 11
t14.5 18q9 14 13 30.5t4 41.5z" />
    <glyph glyph-name="Q" unicode="Q" horiz-adv-x="690" 
d="M681 -118q-3 -2 -18.5 -7t-43.5 -5q-20 0 -39 5.5t-35.5 13t-30 16l-23.5 14.5q-25 17 -62.5 37t-78.5 33q-78 0 -131.5 23t-93.5 75q-80 103 -80 258q0 113 41 198.5t116 126.5q31 17 68 25.5t76 8.5q69 0 124.5 -24.5t94.5 -70.5t59.5 -111t20.5 -147
q0 -114 -37 -195.5t-100 -123.5q14 -5 32 -16t30 -19q19 -11 41 -20t45 -9q20 0 38.5 2t23.5 3zM484 347q0 54 -4.5 93t-13.5 68q-4 13 -13 28.5t-24 28.5t-36 22t-49 9q-35 0 -64 -16.5t-44 -44.5q-35 -66 -35 -190q0 -181 62 -225q33 -24 83 -24q73 0 105.5 59t32.5 192z
" />
    <glyph glyph-name="R" unicode="R" horiz-adv-x="594" 
d="M414 0l-17.5 30l-15 25.5t-15 26.5l-17.5 32l-43.5 78t-30.5 50t-22.5 28.5t-18.5 13.5q-11 5 -22 6v-290h-137v695h259q46 0 83.5 -14.5t64.5 -41.5t41.5 -64.5t14.5 -83.5q0 -39 -12 -73.5t-33 -60.5t-49.5 -41.5t-60.5 -16.5q11 -8 16.5 -14t12.5 -15q9 -11 23 -32.5
l30.5 -48l34 -55l33 -55l28 -47.5t18.5 -32h-165zM391 488q0 67 -50 85q-12 5 -32.5 7.5t-46.5 2.5h-50v-188h47q45 0 68 5t37 18q27 25 27 70z" />
    <glyph glyph-name="S" unicode="S" horiz-adv-x="594" 
d="M559 219q0 -53 -20.5 -96t-58 -74t-90.5 -47.5t-118 -16.5q-60 0 -122 16.5t-115 46.5l52 109q49 -26 93.5 -41t97.5 -15q122 0 122 95q0 65 -91 90l-77 21q-52 14 -85 35t-52 53q-29 47 -29 106q0 48 18 87.5t51 68t79 44t101 15.5q64 0 125 -18.5t107 -51.5l-66 -100
q-48 29 -85.5 41t-76.5 12q-43 0 -70 -22.5t-27 -57.5q0 -27 16.5 -42.5t60.5 -27.5l84 -23q86 -23 131 -76t45 -131z" />
    <glyph glyph-name="T" unicode="T" horiz-adv-x="501" 
d="M493 579h-166v-579h-142v579h-170v116h501z" />
    <glyph glyph-name="U" unicode="U" horiz-adv-x="646" 
d="M573 227q0 -25 -0.5 -41t-1.5 -27t-3 -20.5t-6 -20.5q-7 -21 -23.5 -44t-45 -42.5t-70 -32t-97.5 -12.5q-80 0 -137 23.5t-86 69.5q-9 13 -14.5 26t-9 28t-5 33.5t-1.5 43.5v484h143v-457q0 -32 3 -52t9 -31q25 -48 95 -48q46 0 73.5 21.5t32.5 59.5q2 11 2 22v485h142
v-468z" />
    <glyph glyph-name="V" unicode="V" horiz-adv-x="575" 
d="M348 -5h-127l-236 700h153l115 -362q8 -23 16 -53t16 -68q3 16 8 34.5l10.5 37l11 36t10.5 31.5l118 344h147z" />
    <glyph glyph-name="W" unicode="W" horiz-adv-x="842" 
d="M669 -6h-153l-62 283q-7 32 -13 62.5t-10 57t-6.5 46.5t-3.5 30q-1 -7 -4 -26l-7 -45t-9.5 -58t-12.5 -65l-58 -285h-159l-166 701h148l60 -274q10 -45 16.5 -84.5t11 -69.5t6.5 -49.5t3 -24.5q1 11 4 33.5t7.5 52.5t10.5 65t14 70l62 281h153l64 -311q5 -23 10 -53
t9 -57.5l7 -48t4 -24.5q1 9 5 36.5t9.5 62l11.5 70.5t12 61l57 264h147z" />
    <glyph glyph-name="X" unicode="X" horiz-adv-x="572" 
d="M413 0l-125 245l-124 -245h-174l218 372l-188 323h171l94 -187l95 187h167l-181 -314l216 -381h-169z" />
    <glyph glyph-name="Y" unicode="Y" horiz-adv-x="544" 
d="M342 286v-286h-146v286l-216 409h168l89 -190q14 -29 21.5 -49t13.5 -40l16 38.5l21 48.5l90 192h165z" />
    <glyph glyph-name="Z" unicode="Z" horiz-adv-x="540" 
d="M469 0h-434v98l256 423q13 21 26 39.5t17 23.5q-5 -1 -24 -3t-47 -2h-214l31 116h416v-101l-258 -435q-10 -17 -21.5 -31t-14.5 -18q6 1 28 2.5t41 1.5h234z" />
    <glyph glyph-name="bracketleft" unicode="[" horiz-adv-x="310" 
d="M75 -156v888h210v-90h-90v-708h90v-90h-210z" />
    <glyph glyph-name="backslash" unicode="\" horiz-adv-x="443" 
d="M315 -53l-300 779l114 35l299 -779z" />
    <glyph glyph-name="bracketright" unicode="]" horiz-adv-x="310" 
d="M25 -156v90h90v708h-90v90h210v-888h-210z" />
    <glyph glyph-name="asciicircum" unicode="^" horiz-adv-x="606" 
d="M414 343l-111 238l-112 -238h-141l180 365h146l180 -365h-142z" />
    <glyph glyph-name="underscore" unicode="_" horiz-adv-x="510" 
d="M5 -168v98h500v-98h-500z" />
    <glyph glyph-name="grave" unicode="`" horiz-adv-x="335" 
d="M259 557l-224 100l58 104l207 -130z" />
    <glyph glyph-name="a" unicode="a" horiz-adv-x="522" 
d="M422 -26q-23 10 -42.5 26t-29.5 36l-15.5 -15t-15.5 -12q-39 -28 -103 -28q-86 0 -131 41.5t-45 118.5q0 91 61.5 133.5t184.5 42.5h15q7 0 15 -1v21q0 43 -11.5 59.5t-48.5 16.5q-32 0 -69 -15t-79 -43l-57 96q20 13 38 22t45 20q38 16 71.5 23t68.5 7q65 0 107.5 -23
t57.5 -66q3 -8 4.5 -15.5t3 -17.5t1.5 -24v-35l-3 -172q0 -21 1 -36.5t6 -28.5t14.5 -24.5t26.5 -24.5zM308 224q-70 0 -97.5 -16t-27.5 -62q0 -30 16.5 -48.5t42.5 -18.5q19 0 37 9t33 26l2 110h-6z" />
    <glyph glyph-name="b" unicode="b" horiz-adv-x="562" 
d="M517 265q0 -78 -23.5 -137.5t-71.5 -97.5q-26 -21 -53 -30.5t-59 -9.5q-38 0 -65 11.5t-49 35.5q-3 -14 -5 -20t-9 -17h-120q4 9 6.5 17t4 19.5t2 28.5t0.5 44v474q0 48 -2 76t-7 50l137 32q3 -26 4 -45.5t1 -45.5v-121q0 -11 -0.5 -25t-2.5 -20q38 41 109 41
q47 0 84.5 -18t64 -52t40.5 -82t14 -108zM365 262q0 35 -1 52.5t-5 34.5q-8 33 -27.5 49t-45.5 16t-44.5 -13.5t-31.5 -27.5v-236q14 -12 31 -22.5t44 -10.5q49 0 65 40q9 21 12 46t3 72z" />
    <glyph glyph-name="c" unicode="c" horiz-adv-x="465" 
d="M440 58q-15 -15 -24 -22.5t-23 -15.5q-27 -16 -57.5 -24t-67.5 -8q-106 0 -164.5 69.5t-58.5 194.5q0 89 30 147.5t75 89.5q26 17 60.5 27.5t66.5 10.5q26 0 52 -6t47 -17q14 -8 23.5 -15t26.5 -21l-65 -88q-20 19 -41 29.5t-40 10.5q-45 0 -66 -40.5t-21 -131.5
q0 -51 6.5 -81.5t19.5 -47.5q23 -29 60 -29q44 0 92 42l8 7z" />
    <glyph glyph-name="d" unicode="d" horiz-adv-x="559" 
d="M383 0q-5 10 -8 30q-49 -43 -118 -43q-49 0 -88 18.5t-66.5 52t-42.5 81.5t-15 108t16 109.5t45 85.5t69 55.5t89 19.5q55 0 91 -29q-2 8 -3 30.5t-1 45.5v176l133 -21v-532q0 -47 1.5 -79.5t4.5 -54t6.5 -34t6.5 -19.5h-120zM353 377q-38 33 -73 33q-45 0 -65.5 -39
t-20.5 -125q0 -41 4.5 -69t15.5 -45t29 -24.5t44 -7.5q19 0 37.5 10.5t28.5 22.5v244z" />
    <glyph glyph-name="e" unicode="e" horiz-adv-x="516" 
d="M190 214v-4q0 -60 28 -92t80 -32q68 0 130 51l52 -80q-87 -71 -193 -71q-55 0 -100 19t-76.5 53.5t-48.5 83.5t-17 109q0 69 15 117t49 86q32 35 71 52t90 17q45 0 84 -14t64 -40q35 -36 51.5 -89.5t16.5 -134.5v-31h-296zM347 318q0 29 -3.5 46t-12.5 31q-20 30 -59 30
q-38 0 -59 -28.5t-21 -82.5v-2h155v6z" />
    <glyph glyph-name="f" unicode="f" horiz-adv-x="314" 
d="M316 626q-22 11 -32.5 14t-22.5 3q-26 0 -41 -15t-15 -43v-73h130l-34 -92h-95v-420h-131v420h-46v92h49q-2 16 -3.5 34.5t-1.5 35.5q0 76 43 117.5t122 41.5q33 0 61.5 -7.5t59.5 -24.5z" />
    <glyph glyph-name="g" unicode="g" horiz-adv-x="563" 
d="M582 456q-22 -20 -44 -29t-50 -9q-10 0 -19.5 1t-15.5 2q15 -18 22.5 -38t7.5 -46q0 -33 -14 -61t-39.5 -48t-60 -31.5t-75.5 -11.5h-9q-3 0 -11 1q-26 -12 -39.5 -21.5t-13.5 -20.5q0 -12 22 -12l72 -1q58 -1 93 -11t62 -35q44 -41 44 -109q0 -62 -41 -106
q-34 -36 -88 -51t-114 -15q-55 0 -107 11.5t-87 43.5q-42 39 -42 91q0 21 4 32.5t8 19.5h124q-4 -9 -5 -15.5t-1 -17.5q0 -31 24.5 -47t71.5 -16q26 0 47 3.5t37 13.5q15 9 24 22.5t9 29.5q0 35 -27 47.5t-67 13.5l-57 1q-88 1 -123 16q-18 7 -28.5 24t-10.5 43q0 12 3 24
t12.5 23t28 21t50.5 18q-110 28 -110 142q0 39 15.5 71t43.5 54.5t68 35t89 12.5q22 0 43 -3t49 -10q21 -5 35.5 -8t27.5 -3q28 0 55.5 11.5t50.5 32.5zM345 347q0 36 -21.5 56t-59.5 20t-59 -20t-21 -56q0 -39 22 -56t57 -17q82 0 82 73z" />
    <glyph glyph-name="h" unicode="h" horiz-adv-x="575" 
d="M369 0v344q0 38 -11.5 54t-40.5 16q-25 0 -54 -13.5t-52 -33.5v-367h-136v592q0 36 -2.5 68.5t-7.5 48.5l137 32q5 -21 7 -54.5t2 -70.5v-102q0 -12 -1 -25t-1 -18q26 25 66 40t79 15q49 0 85 -19.5t48 -53.5q4 -11 6.5 -20.5t4 -20t2 -23.5t0.5 -31v-358h-131z" />
    <glyph glyph-name="i" unicode="i" horiz-adv-x="284" 
d="M75 0v503l134 21v-524h-134zM225 653q0 -35 -24 -59t-59 -24q-34 0 -58 24t-24 59t24.5 59t59.5 24q34 0 57.5 -24t23.5 -59z" />
    <glyph glyph-name="j" unicode="j" horiz-adv-x="283" 
d="M208 14q0 -36 -3.5 -62.5t-9 -45t-12 -30.5t-13.5 -21q-36 -47 -104 -75l-56 74q16 13 28.5 28.5t20.5 29.5q9 17 12.5 39.5t3.5 58.5v481l133 32v-509zM226 655q0 -35 -24.5 -59.5t-59.5 -24.5t-58.5 24t-23.5 58q0 35 24 59.5t59 24.5q34 0 58.5 -24t24.5 -58z" />
    <glyph glyph-name="k" unicode="k" horiz-adv-x="527" 
d="M75 0v577q0 34 -1.5 63.5t-7.5 69.5l135 33q5 -29 6.5 -72t1.5 -94v-577h-134zM384 0l-172 290l131 222h161l-163 -214l201 -298h-158z" />
    <glyph glyph-name="l" unicode="l" horiz-adv-x="291" 
d="M286 2q-36 -14 -80 -14q-43 0 -75 19t-44 51q-4 10 -6 19t-3.5 21t-2 30t-0.5 45v382q0 51 -1.5 85t-5.5 69l137 31q4 -21 5.5 -50t1.5 -83v-399q0 -33 0.5 -53t1 -32t2.5 -18t5 -11q8 -14 27 -14h7q3 0 8 2z" />
    <glyph glyph-name="m" unicode="m" horiz-adv-x="803" 
d="M598 0v338q0 23 -1.5 37t-6 22t-13 11t-21.5 3q-19 0 -43 -11.5t-46 -31.5v-368h-127v333q0 48 -9 63.5t-37 15.5q-19 0 -42.5 -9.5t-45.5 -29.5v-373h-131v357q0 56 -4 84t-15 47l121 33q7 -11 10.5 -21.5t7.5 -30.5q54 52 125 52q63 0 104 -42q10 -10 20 -25
q35 36 69 51.5t76 15.5q30 0 57 -8.5t44 -23.5q11 -9 18 -20t11.5 -25.5t6.5 -34t2 -45.5v-364h-130z" />
    <glyph glyph-name="n" unicode="n" horiz-adv-x="554" 
d="M347 0v333q0 44 -9.5 59.5t-35.5 15.5q-20 0 -45 -12.5t-48 -33.5v-362h-134v371q0 33 -4.5 63.5t-13.5 56.5l119 34q19 -33 19 -64q15 11 28.5 20t30.5 18q20 11 44.5 16.5t47.5 5.5q43 0 77 -20.5t46 -53.5q10 -27 10 -73v-374h-132z" />
    <glyph glyph-name="o" unicode="o" horiz-adv-x="543" 
d="M503 258q0 -66 -15.5 -113t-48.5 -85q-29 -33 -69 -52t-100 -19q-52 0 -94.5 19t-72.5 53.5t-46.5 83.5t-16.5 109t16.5 109.5t46.5 85t72.5 54.5t94.5 19q109 0 174 -77q31 -36 45 -80t14 -107zM357 259q0 102 -27 137q-21 27 -58 27q-24 0 -42.5 -14t-26.5 -38
q-7 -20 -10.5 -48t-3.5 -66q0 -89 17 -129q9 -21 28.5 -31.5t39.5 -10.5q44 0 63.5 41t19.5 132z" />
    <glyph glyph-name="p" unicode="p" horiz-adv-x="562" 
d="M517 270q0 -41 -3.5 -73t-12 -58.5t-22 -48.5t-33.5 -43q-26 -28 -60.5 -43t-76.5 -15q-30 0 -57.5 7t-49.5 20q2 -9 2 -20v-182l-129 -34v592q0 25 -0.5 42.5t-1 31t-2 26.5t-4.5 29l119 21q4 -14 6 -25t3 -23q17 21 52 34.5t74 13.5q27 0 53.5 -8.5t47.5 -22.5
t38 -33.5t30 -46.5t20 -62t7 -79zM371 257q0 37 -3 65.5t-10 47.5q-15 43 -64 43q-52 0 -89 -39v-249q14 -11 34 -20.5t40 -9.5q50 0 71 37t21 125z" />
    <glyph glyph-name="q" unicode="q" horiz-adv-x="561" 
d="M498 513q-7 -29 -9.5 -67t-2.5 -84v-550l-127 -34v194q0 15 0.5 29.5t2.5 22.5q-41 -36 -102 -36q-58 0 -98.5 21.5t-66.5 57.5t-38 83t-12 98q0 69 12 114.5t40 81.5q29 37 71 59t89 22q20 0 39.5 -4t36 -11.5t28.5 -17t16 -19.5q1 14 3 21.5t7 18.5h111zM359 378
q-14 15 -34 25t-43 10q-30 0 -48 -14.5t-27.5 -36t-12 -47.5t-2.5 -50q0 -25 1.5 -54t10 -54t26.5 -42t52 -17q23 0 44 12.5t33 26.5v241z" />
    <glyph glyph-name="r" unicode="r" horiz-adv-x="357" 
d="M330 395q-19 10 -39 10q-45 0 -82 -43v-362h-134v342q0 52 -5.5 90t-13.5 60l120 32q18 -32 21 -73q22 29 52 51t68 22q15 0 24.5 -2t25.5 -9z" />
    <glyph glyph-name="s" unicode="s" horiz-adv-x="491" 
d="M456 162q0 -40 -16 -72.5t-44.5 -56t-69 -36.5t-89.5 -13q-94 0 -207 59l48 98q15 -9 35.5 -19.5t43 -19t46 -14t45.5 -5.5q29 0 48.5 16.5t19.5 41.5q0 26 -19 40.5t-60 22.5l-60 11q-26 5 -53 20t-41 32t-21.5 42t-7.5 50q0 37 14 68t40 53t62.5 34t81.5 12
q62 0 105 -15.5t78 -32.5l-44 -90q-38 20 -67.5 28.5t-58.5 8.5t-47 -13.5t-18 -36.5q0 -20 14.5 -31.5t49.5 -20.5l62 -16q24 -6 40 -12.5t27.5 -14t19.5 -15t15 -16.5q28 -35 28 -87z" />
    <glyph glyph-name="t" unicode="t" horiz-adv-x="351" 
d="M331 11q-56 -23 -109 -23q-51 0 -88.5 20.5t-49.5 54.5q-3 8 -5 15t-2.5 15t-1 19.5t-0.5 29.5v278h-51v92h51q0 38 0.5 65t4.5 56l136 34q-4 -35 -6 -75.5t-2 -79.5h120l-34 -92h-86v-257q0 -49 11.5 -65.5t46.5 -16.5q9 0 19.5 2.5t28.5 7.5z" />
    <glyph glyph-name="u" unicode="u" horiz-adv-x="546" 
d="M407 -14q-27 19 -40 50q-25 -24 -59.5 -36.5t-75.5 -12.5q-54 0 -96 23t-55 60q-6 17 -8.5 40t-2.5 62v328l132 25v-329q0 -35 3 -54t8 -30t18.5 -17.5t28.5 -6.5q25 0 50 15t33 34v360l128 27v-391q0 -26 8 -50.5t23 -42.5z" />
    <glyph glyph-name="v" unicode="v" horiz-adv-x="474" 
d="M292 0h-111l-186 504l137 17l74 -231l8.5 -29l9 -33l8.5 -33l7 -28q3 23 11 57.5t20 72.5l69 215h140z" />
    <glyph glyph-name="w" unicode="w" horiz-adv-x="709" 
d="M558 0h-123l-46 176l-16 64.5t-13 59.5l-8 51q-1 -8 -2 -15l-2 -13q-1 -6 -3 -15l-5 -23l-9.5 -40l-11.5 -48.5t-12.5 -49.5t-10.5 -42l-26 -105h-125l-140 503l133 15l42 -197l9 -44.5t9 -47.5l7 -41.5t4 -25.5q2 15 6 36.5t9 46l10.5 49.5t11.5 46l48 172h126l41 -169
l13.5 -62l11.5 -54l8.5 -41.5t4.5 -23.5q1 8 3.5 26t6.5 41.5l8.5 49.5t9.5 50l39 183h138z" />
    <glyph glyph-name="x" unicode="x" horiz-adv-x="510" 
d="M350 0l-54 94q-3 6 -9.5 17.5t-12.5 23.5t-12 22q-5 9 -6 12l-17 -37q-14 -28 -34 -61l-43 -71h-172l189 273l-142 215l139 39l24 -40.5t17.5 -30.5l14 -26.5t13.5 -27.5l16 -34q2 6 13.5 32l31.5 68q6 13 13.5 26l10.5 18h158l-152 -236l184 -276h-170z" />
    <glyph glyph-name="y" unicode="y" horiz-adv-x="507" 
d="M321 -8q-13 -37 -25 -64.5t-23.5 -47t-23.5 -33.5t-26 -24q-26 -19 -57.5 -30.5t-66.5 -16.5l-46 88q22 6 45 14.5t38 19.5q21 15 38 42l8.5 14t6.5 12.5t6 14.5t8 19h-34l-169 504l137 16l89 -299l27 -106q0 1 1.5 10.5t4 22l5.5 26.5l5 23q3 13 8.5 33t11.5 38l77 244
h141z" />
    <glyph glyph-name="z" unicode="z" horiz-adv-x="479" 
d="M412 0h-377v83l241 335h-221v94h380v-92l-226 -327h235z" />
    <glyph glyph-name="braceleft" unicode="{" horiz-adv-x="392" 
d="M262 -156q-27 0 -50.5 8t-41 26t-27.5 45.5t-10 66.5v172q0 23 -13.5 37t-31.5 21t-36 9t-27 2v114q9 0 27 2t36 9t31.5 21t13.5 37v173q0 39 9.5 66.5t27 45t41 25.5t51.5 8h105v-114h-49q-23 0 -36 -6t-19.5 -15.5t-8 -21t-1.5 -21.5v-161q0 -35 -9.5 -55t-24.5 -30.5
t-32.5 -14t-33.5 -4.5v-2q16 -1 33.5 -4t32.5 -13.5t24.5 -30.5t9.5 -55v-162q0 -10 1.5 -21.5t8 -21t19.5 -15.5t36 -6h49v-114h-105z" />
    <glyph glyph-name="bar" unicode="|" horiz-adv-x="276" 
d="M75 -208v964h126v-964h-126z" />
    <glyph glyph-name="braceright" unicode="}" horiz-adv-x="392" 
d="M367 231q-11 0 -29 -2t-35.5 -9t-30.5 -21t-13 -37v-173q0 -39 -10 -66.5t-27 -45t-40.5 -25.5t-51.5 -8h-105v114h49q23 0 36 6t19.5 15.5t8 21t1.5 21.5v161q0 35 9.5 55t24.5 30.5t32.5 13.5t33.5 5v2q-16 1 -33.5 4t-32.5 13.5t-24.5 30.5t-9.5 55v162
q0 10 -1.5 21.5t-8 21t-19.5 15.5t-36 6h-49v114h108q25 0 48 -8t40.5 -26t27.5 -45.5t10 -66.5v-172q0 -23 13 -37t30.5 -21t35.5 -9t29 -2v-114z" />
    <glyph glyph-name="asciitilde" unicode="~" horiz-adv-x="562" 
d="M512 292q-8 -16 -19.5 -31.5t-26.5 -27.5t-34.5 -19.5t-44.5 -7.5q-26 0 -54 9.5t-57 22.5l-55 24t-47 12q-26 0 -44.5 -17t-43.5 -51l-36 108q8 16 19.5 31.5t26.5 27.5t34.5 19.5t44.5 7.5q26 0 54 -9.5t57 -22.5l55 -24t47 -12q25 0 43.5 16.5t44.5 51.5z" />
    <glyph glyph-name="uni00A0" unicode="&#xa0;" horiz-adv-x="225" 
 />
    <glyph glyph-name="exclamdown" unicode="&#xa1;" horiz-adv-x="305" 
d="M74 -201l28 489h102l30 -466zM235 439q0 -35 -24 -59t-59 -24q-34 0 -58 24t-24 59t24.5 59t59.5 24q34 0 57.5 -24t23.5 -59z" />
    <glyph glyph-name="cent" unicode="&#xa2;" horiz-adv-x="622" 
d="M508 58q-15 -15 -24 -22.5t-23 -15.5q-35 -21 -77 -28v-103h-94v103q-85 14 -131 81.5t-46 178.5q0 89 30 147.5t75 89.5q31 21 72 31v97h94v-96q16 0 31 -5t29 -12q14 -8 23.5 -15t26.5 -21l-65 -88q-20 19 -41 29.5t-40 10.5q-45 0 -66 -40.5t-21 -131.5
q0 -51 6.5 -81.5t19.5 -47.5q23 -29 60 -29q44 0 92 42l8 7z" />
    <glyph glyph-name="sterling" unicode="&#xa3;" horiz-adv-x="622" 
d="M497 545q-20 20 -45.5 31.5t-45.5 11.5q-33 0 -55.5 -11t-36 -28.5t-19 -40t-5.5 -45.5v-49h156v-102h-156v-198h253v-114h-499v114h96v198h-96v102h96v71q0 45 16 87t47.5 75t77.5 53t107 20q57 0 112 -15t97 -53z" />
    <glyph glyph-name="currency" unicode="&#xa4;" horiz-adv-x="622" 
d="M382 31l-40 70q-7 -2 -15 -2h-15q-20 0 -38 3l-37 -71l-114 69l44 68q-14 20 -20 46.5t-6 54.5q0 60 28 102l-47 71l118 69l40 -70q6 1 14 1.5t16 0.5q10 0 20.5 -0.5t17.5 -2.5l37 71l114 -69l-44 -68q14 -20 20.5 -45.5t6.5 -57.5q0 -29 -7.5 -54.5t-21.5 -45.5l47 -71
zM371 273q0 60 -20 80q-16 16 -42 16q-37 0 -50 -30q-5 -13 -7 -28.5t-2 -38.5q0 -26 3 -46.5t8 -28.5q7 -11 20 -18t30 -7q32 0 46 23.5t14 77.5z" />
    <glyph glyph-name="yen" unicode="&#xa5;" horiz-adv-x="622" 
d="M450 415h103v-103h-158l-14 -26v-50h172v-103h-172v-133h-146v133h-169v103h169v50l-14 26h-155v103h101l-148 280h168l89 -190q14 -29 21.5 -49t13.5 -40l16 38.5l21 48.5l90 192h165z" />
    <glyph glyph-name="brokenbar" unicode="&#xa6;" horiz-adv-x="276" 
d="M75 342v414h126v-414h-126zM75 -208v414h126v-414h-126z" />
    <glyph glyph-name="section" unicode="&#xa7;" horiz-adv-x="598" 
d="M553 281q0 -42 -24 -77t-60 -53q26 -21 40.5 -52.5t14.5 -66.5q0 -49 -23.5 -84t-59.5 -57t-79.5 -32t-83.5 -10q-37 0 -72 6t-65 21t-54.5 39t-41.5 60l128 63q4 -18 15.5 -31t26.5 -21.5t32.5 -12.5t34.5 -4q12 0 26 2.5t26 8.5t20 16t8 25q0 24 -22.5 39.5t-55.5 30
t-72.5 29.5t-72.5 37.5t-55.5 55t-22.5 80.5q0 51 22.5 86.5t64.5 61.5q-29 20 -46 49.5t-17 65.5q0 44 19.5 76t50.5 53t69 31t76 10q32 0 65 -5t63.5 -18t55.5 -34t40 -52l-126 -72q-11 29 -36.5 45t-55.5 16q-24 0 -44.5 -13t-20.5 -40q0 -25 23 -42t58 -32t75 -30.5
t75 -37.5t58 -53.5t23 -76.5zM415 253q0 14 -6 25t-15.5 20t-21 15.5t-22.5 11.5l-116 55q-35 -20 -35 -59q0 -17 6.5 -29.5t17 -21.5t23.5 -15.5t27 -12.5l108 -50q34 20 34 61z" />
    <glyph glyph-name="dieresis" unicode="&#xa8;" horiz-adv-x="474" 
d="M419 635q0 -32 -22.5 -54.5t-54.5 -22.5t-54 22.5t-22 54.5q0 16 6 30t16.5 24.5t25 16.5t30.5 6q31 0 53 -22.5t22 -54.5zM208 635q0 -32 -22.5 -54.5t-54.5 -22.5q-31 0 -53.5 22.5t-22.5 54.5t23 54.5t55 22.5q31 0 53 -22.5t22 -54.5z" />
    <glyph glyph-name="copyright" unicode="&#xa9;" horiz-adv-x="834" 
d="M789 354q0 -77 -29.5 -144.5t-80 -118t-118 -80t-144.5 -29.5t-144.5 29.5t-118 80t-80 118t-29.5 144.5t29.5 144.5t80 118t118 80t144.5 29.5t144.5 -29.5t118 -80t80 -118t29.5 -144.5zM687 354q0 58 -21 109.5t-58 89.5t-86 60.5t-105 22.5t-105 -22.5t-86 -60.5
t-58 -89.5t-21 -109.5t21 -109.5t58 -89.5t86 -60.5t105 -22.5t105 22.5t86 60.5t58 89.5t21 109.5zM545 198q-31 -23 -59 -33t-63 -10q-41 0 -74.5 13.5t-57.5 38.5t-37 60t-13 79q0 45 13 83t36.5 65.5t57.5 43t76 15.5q31 0 60 -9.5t52 -28.5l-46 -66q-20 14 -35 19.5
t-30 5.5q-75 0 -75 -114q0 -69 18.5 -98.5t60.5 -29.5q20 0 36.5 7t30.5 21z" />
    <glyph glyph-name="ordfeminine" unicode="&#xaa;" horiz-adv-x="435" 
d="M339 360q-18 8 -35 20t-24 27q-11 -11 -15 -14.5t-9 -6.5q-29 -21 -77 -21q-64 0 -98 31.5t-34 88.5q0 68 46 100t139 32h22v15q0 32 -8.5 44.5t-36.5 12.5q-48 0 -111 -43l-43 72q10 7 28 15.5t35 15.5q53 23 105 23q48 0 80 -17.5t43 -49.5q5 -12 6.5 -25t0.5 -44
l-2 -136q0 -31 7 -46.5t29 -31.5zM35 231v78h365v-78h-365zM248 548q-53 0 -73.5 -12t-20.5 -47q0 -23 12.5 -36.5t32.5 -13.5q28 0 52 26l2 83h-5z" />
    <glyph glyph-name="guillemotleft" unicode="&#xab;" horiz-adv-x="552" 
d="M431 15l-159 234l159 234l91 -61l-116 -173l116 -173zM189 15l-159 234l159 234l91 -61l-116 -173l116 -173z" />
    <glyph glyph-name="logicalnot" unicode="&#xac;" horiz-adv-x="531" 
d="M363 58v140h-318v109h441v-249h-123z" />
    <glyph glyph-name="uni00AD" unicode="&#xad;" horiz-adv-x="330" 
d="M45 216v116h240v-116h-240z" />
    <glyph glyph-name="registered" unicode="&#xae;" horiz-adv-x="834" 
d="M789 354q0 -77 -29.5 -144.5t-80 -118t-118 -80t-144.5 -29.5t-144.5 29.5t-118 80t-80 118t-29.5 144.5t29.5 144.5t80 118t118 80t144.5 29.5t144.5 -29.5t118 -80t80 -118t29.5 -144.5zM687 354q0 58 -21 109.5t-58 89.5t-86 60.5t-105 22.5t-105 -22.5t-86 -60.5
t-58 -89.5t-21 -109.5t21 -109.5t58 -89.5t86 -60.5t105 -22.5t105 22.5t86 60.5t58 89.5t21 109.5zM470 171l-12 19l-9.5 15t-8.5 14l-10 17l-23 38l-15 25q-6 10 -9.5 15t-6.5 8v-151h-97v382h153q57 0 90 -32t33 -85q0 -43 -25 -71.5t-63 -32.5q17 -7 29 -22t22 -30
l19.5 -31l20 -32.5t16.5 -28.5l11 -17h-115zM452 435q0 21 -12 30t-37 9h-27v-77h26q29 0 39.5 9t10.5 29z" />
    <glyph glyph-name="macron" unicode="&#xaf;" horiz-adv-x="364" 
d="M25 666v78h314v-78h-314z" />
    <glyph glyph-name="degree" unicode="&#xb0;" horiz-adv-x="411" 
d="M376 533q0 -43 -11 -73.5t-36 -54.5q-23 -22 -52 -34t-73 -12q-78 0 -123.5 46.5t-45.5 125.5q0 39 12 71t34 55t53.5 35.5t69.5 12.5q41 0 72 -12.5t56 -37.5q23 -23 33.5 -52t10.5 -70zM265 535q0 61 -20 80q-16 16 -42 16q-37 0 -50 -30q-5 -13 -7 -28.5t-2 -38.5
q0 -26 2 -45t9 -30t20 -18t30 -7q32 0 46 23.5t14 77.5z" />
    <glyph glyph-name="plusminus" unicode="&#xb1;" horiz-adv-x="513" 
d="M318 283v-143h-123v143h-150v113h150v137h123v-137h150v-113h-150zM47 0v113h419v-113h-419z" />
    <glyph glyph-name="twosuperior" unicode="&#xb2;" horiz-adv-x="384" 
d="M326 250h-275v67l23.5 21.5l27.5 26.5l28 27.5t24 24.5q40 41 51 67.5t11 43.5q0 26 -11 34t-28 8t-36 -9t-50 -33l-56 63q39 33 77.5 49t87.5 16q58 0 92.5 -33t34.5 -86q0 -29 -15 -57.5t-37 -55t-47.5 -50l-46.5 -42.5q9 0 18 0.5t17 0.5h133z" />
    <glyph glyph-name="threesuperior" unicode="&#xb3;" horiz-adv-x="376" 
d="M341 386q0 -33 -17 -59.5t-47 -45.5t-70.5 -29t-87.5 -10q-14 0 -24.5 0.5t-32.5 3.5l-27 74q13 -2 21.5 -3.5t15 -2.5t11.5 -1h13q62 0 96 23t34 56q0 15 -7 23.5t-17.5 12.5t-23 4.5t-24.5 0.5h-40v81q13 -2 25.5 -3t25.5 -1q32 0 44.5 11t12.5 28q0 14 -9 23.5
t-32 9.5q-28 0 -50 -10.5t-41 -25.5l-54 64q35 26 72.5 41t82.5 15q29 0 54.5 -8t44.5 -22.5t30 -34.5t11 -44q0 -53 -47 -84q27 -14 42 -36t15 -51z" />
    <glyph glyph-name="acute" unicode="&#xb4;" horiz-adv-x="335" 
d="M76 557l-41 74l207 130l58 -104z" />
    <glyph glyph-name="mu" unicode="&#xb5;" horiz-adv-x="546" 
d="M407 -14q-27 19 -40 50q-25 -24 -59.5 -36.5t-75.5 -12.5q-8 0 -17.5 3.5t-17.5 10.5q0 -3 1 -13t1 -18v-156l-129 -34v720l132 25v-329q0 -35 3 -54t8 -30t18.5 -17.5t28.5 -6.5q25 0 50 15t33 34v360l128 27v-391q0 -26 8 -50.5t23 -42.5z" />
    <glyph glyph-name="paragraph" unicode="&#xb6;" horiz-adv-x="602" 
d="M437 -126v762h-107v-762h-90v464q-49 0 -88.5 13.5t-67.5 38t-43.5 58t-15.5 72.5q0 50 17 86t47.5 58.5t73.5 33t95 10.5h269v-834h-90z" />
    <glyph glyph-name="periodcentered" unicode="&#xb7;" horiz-adv-x="268" 
d="M223 273q0 -18 -7 -34t-19 -28t-28.5 -19t-35.5 -7q-37 0 -62.5 26t-25.5 63t26 63.5t64 26.5q37 0 62.5 -26.5t25.5 -64.5z" />
    <glyph glyph-name="cedilla" unicode="&#xb8;" horiz-adv-x="306" 
d="M251 -111q0 -37 -28 -62.5t-81 -25.5q-23 0 -47.5 8t-39.5 16l30 63l23.5 -10t28.5 -5q11 0 18 6t7 12q0 8 -5.5 14t-19.5 6q-8 0 -14 -2t-13 -4l-13 20l24 87l72 -6l-14 -38q38 -4 55 -27t17 -52z" />
    <glyph glyph-name="onesuperior" unicode="&#xb9;" horiz-adv-x="324" 
d="M74 250v81h64v208q-18 -10 -37.5 -19t-37.5 -15l-28 56l134 89h68v-319h52v-81h-215z" />
    <glyph glyph-name="ordmasculine" unicode="&#xba;" horiz-adv-x="435" 
d="M389 566q0 -50 -12 -84.5t-36 -62.5q-22 -25 -52 -39.5t-75 -14.5q-39 0 -71 14t-54.5 40t-34.5 62.5t-12 81.5t12.5 82.5t35 63.5t54 40.5t70.5 14.5q83 0 131 -57q23 -27 33.5 -60t10.5 -81zM35 231v78h365v-78h-365zM276 567q0 77 -19 99q-16 18 -41 18
q-17 0 -29.5 -10t-19.5 -27q-11 -28 -11 -81q0 -32 4 -55t9 -36q6 -15 20 -23.5t28 -8.5q32 0 45.5 29.5t13.5 94.5z" />
    <glyph glyph-name="guillemotright" unicode="&#xbb;" horiz-adv-x="552" 
d="M363 15l-91 61l116 173l-116 173l91 61l159 -234zM121 15l-91 61l116 173l-116 173l91 61l159 -234z" />
    <glyph glyph-name="onequarter" unicode="&#xbc;" horiz-adv-x="946" 
d="M74 250v81h64v208q-18 -10 -37.5 -19t-37.5 -15l-28 56l134 89h68v-319h52v-81h-215zM277 -154h-108l528 918h108zM889 71l-7 1q0 -2 0.5 -5t0.5 -6v-75l-96 -11v91l1 5h-178v63l109 267h105l-84 -207l-9.5 -20.5t-9.5 -17.5h69q0 38 3.5 70.5l7.5 70.5l82 18v-104
q0 -10 0.5 -25.5t-0.5 -23.5l-1 -7q2 0 4.5 0.5t4.5 0.5h35v-85h-37z" />
    <glyph glyph-name="onehalf" unicode="&#xbd;" horiz-adv-x="944" 
d="M74 250v81h64v208q-18 -10 -37.5 -19t-37.5 -15l-28 56l134 89h68v-319h52v-81h-215zM243 -154h-108l528 918h108zM901 0h-275v67l23.5 21.5l27.5 26.5l28 27.5t24 24.5q40 41 51 67.5t11 43.5q0 26 -11 34t-28 8t-36 -9t-50 -33l-56 63q39 33 77.5 49t87.5 16
q58 0 92.5 -33t34.5 -86q0 -29 -15 -57.5t-37 -55t-47.5 -50l-46.5 -42.5q9 0 18 0.5t17 0.5h133z" />
    <glyph glyph-name="threequarters" unicode="&#xbe;" horiz-adv-x="998" 
d="M341 386q0 -33 -17 -59.5t-47 -45.5t-70.5 -29t-87.5 -10q-14 0 -24.5 0.5t-32.5 3.5l-27 74q13 -2 21.5 -3.5t15 -2.5t11.5 -1h13q62 0 96 23t34 56q0 15 -7 23.5t-17.5 12.5t-23 4.5t-24.5 0.5h-40v81q13 -2 25.5 -3t25.5 -1q32 0 44.5 11t12.5 28q0 14 -9 23.5
t-32 9.5q-28 0 -50 -10.5t-41 -25.5l-54 64q35 26 72.5 41t82.5 15q29 0 54.5 -8t44.5 -22.5t30 -34.5t11 -44q0 -53 -47 -84q27 -14 42 -36t15 -51zM299 -154h-108l528 918h108zM941 71l-7 1q0 -2 0.5 -5t0.5 -6v-75l-96 -11v91l1 5h-178v63l109 267h105l-84 -207
l-9.5 -20.5t-9.5 -17.5h69q0 38 3.5 70.5l7.5 70.5l82 18v-104q0 -10 0.5 -25.5t-0.5 -23.5l-1 -7q2 0 4.5 0.5t4.5 0.5h35v-85h-37z" />
    <glyph glyph-name="questiondown" unicode="&#xbf;" horiz-adv-x="484" 
d="M444 -120q-9 -10 -26 -23t-41.5 -25t-56 -20t-70.5 -8q-38 0 -72.5 11.5t-60.5 33t-41.5 52.5t-15.5 70q0 34 9.5 59t23 43t29.5 29.5t30 20.5q46 29 61 63.5t16 66.5q0 9 -0.5 18t-1.5 17h115l5 -26q4 -19 4 -40q0 -46 -23 -82.5t-69 -69.5q-11 -8 -22.5 -15.5t-21 -17
t-16 -21.5t-6.5 -27q0 -37 24.5 -53t57.5 -16q38 0 62 14.5t46 31.5zM353 439q0 -35 -24 -59t-59 -24q-34 0 -58 24t-24 59t24.5 59t59.5 24q34 0 57.5 -24t23.5 -59z" />
    <glyph glyph-name="Agrave" unicode="&#xc0;" horiz-adv-x="592" 
d="M445 0l-49 165h-204l-49 -165h-146l228 697h151l219 -697h-150zM362 281q-2 6 -6.5 21.5l-10 36l-11.5 42.5t-10 40l-28 123q-2 -6 -5.5 -21l-8 -34.5t-10 -40.5t-9.5 -38l-18 -66t-19 -63h136zM377 717l-224 100l58 104l207 -130z" />
    <glyph glyph-name="Aacute" unicode="&#xc1;" horiz-adv-x="592" 
d="M445 0l-49 165h-204l-49 -165h-146l228 697h151l219 -697h-150zM362 281q-2 6 -6.5 21.5l-10 36l-11.5 42.5t-10 40l-28 123q-2 -6 -5.5 -21l-8 -34.5t-10 -40.5t-9.5 -38l-18 -66t-19 -63h136zM229 717l-41 74l207 130l58 -104z" />
    <glyph glyph-name="Acircumflex" unicode="&#xc2;" horiz-adv-x="592" 
d="M445 0l-49 165h-204l-49 -165h-146l228 697h151l219 -697h-150zM362 281q-2 6 -6.5 21.5l-10 36l-11.5 42.5t-10 40l-28 123q-2 -6 -5.5 -21l-8 -34.5t-10 -40.5t-9.5 -38l-18 -66t-19 -63h136zM433 712l-139 76l-135 -76l-45 73l180 135l184 -135z" />
    <glyph glyph-name="Atilde" unicode="&#xc3;" horiz-adv-x="592" 
d="M445 0l-49 165h-204l-49 -165h-146l228 697h151l219 -697h-150zM362 281q-2 6 -6.5 21.5l-10 36l-11.5 42.5t-10 40l-28 123q-2 -6 -5.5 -21l-8 -34.5t-10 -40.5t-9.5 -38l-18 -66t-19 -63h136zM486 799q-23 -29 -51 -43.5t-73 -14.5q-23 0 -38 5.5t-28.5 11.5t-28 11.5
t-36.5 5.5q-41 0 -68 -29l-41 75q21 26 51.5 42t72.5 16q22 0 37 -5.5t28.5 -11.5t28.5 -11.5t37 -5.5q41 0 68 30z" />
    <glyph glyph-name="Adieresis" unicode="&#xc4;" horiz-adv-x="592" 
d="M445 0l-49 165h-204l-49 -165h-146l228 697h151l219 -697h-150zM362 281q-2 6 -6.5 21.5l-10 36l-11.5 42.5t-10 40l-28 123q-2 -6 -5.5 -21l-8 -34.5t-10 -40.5t-9.5 -38l-18 -66t-19 -63h136zM272 795q0 -32 -22.5 -54.5t-54.5 -22.5q-31 0 -53.5 22.5t-22.5 54.5
t23 54.5t55 22.5q31 0 53 -22.5t22 -54.5zM483 795q0 -32 -22.5 -54.5t-54.5 -22.5q-31 0 -53.5 22.5t-22.5 54.5t23 54.5t55 22.5q31 0 53 -22.5t22 -54.5z" />
    <glyph glyph-name="Aring" unicode="&#xc5;" horiz-adv-x="592" 
d="M445 0l-49 165h-204l-49 -165h-146l228 697h151l219 -697h-150zM362 281q-2 6 -6.5 21.5l-10 36l-11.5 42.5t-10 40l-28 123q-2 -6 -5.5 -21l-8 -34.5t-10 -40.5t-9.5 -38l-18 -66t-19 -63h136zM405 819q0 -22 -8.5 -41t-23 -33.5t-33.5 -23t-41 -8.5q-21 0 -40 8.5
t-33.5 23t-22.5 33.5t-8 41t8.5 41t23 33.5t34 23t40.5 8.5t40 -8.5t33.5 -23t22.5 -33.5t8 -41zM350 819q0 21 -14.5 36t-34.5 15q-22 0 -37 -15t-15 -36t15 -36t35 -15q21 0 36 15t15 36z" />
    <glyph glyph-name="AE" unicode="&#xc6;" horiz-adv-x="859" 
d="M425 0v165h-191l-93 -165h-156l414 695h422l-18 -114h-237v-161h198v-114h-197v-186h267v-120h-409zM425 442q0 29 1 52q2 19 2 25q-3 -5 -10 -18q-8 -16 -20.5 -39l-27 -50l-28.5 -52.5l-25.5 -46.5l-17.5 -32h126v161z" />
    <glyph glyph-name="Ccedilla" unicode="&#xc7;" horiz-adv-x="574" 
d="M549 53q-42 -34 -87.5 -49.5t-105.5 -15.5h-17l-7 -20q38 -4 55 -27t17 -52q0 -37 -28 -62.5t-81 -25.5q-23 0 -47.5 8t-39.5 16l30 63l23.5 -10t28.5 -5q11 0 18 6t7 12q0 8 -5.5 14t-19.5 6q-8 0 -14 -3t-13 -3l-13 20l20 73q-84 21 -141 86q-84 94 -84 249
q0 128 47 216q41 76 111 118.5t155 42.5q52 0 99.5 -15t76.5 -40l-63 -95q-53 39 -111 39q-35 0 -67 -16t-51 -44q-39 -58 -39 -179q0 -72 6.5 -114.5t22.5 -71.5q43 -78 134 -78q25 0 55.5 9t63.5 36z" />
    <glyph glyph-name="Egrave" unicode="&#xc8;" horiz-adv-x="505" 
d="M75 0v695h396l-18 -114h-236v-161h197v-114h-197v-186h263v-120h-405zM341 717l-224 100l58 104l207 -130z" />
    <glyph glyph-name="Eacute" unicode="&#xc9;" horiz-adv-x="505" 
d="M75 0v695h396l-18 -114h-236v-161h197v-114h-197v-186h263v-120h-405zM182 717l-41 74l207 130l58 -104z" />
    <glyph glyph-name="Ecircumflex" unicode="&#xca;" horiz-adv-x="505" 
d="M75 0v695h396l-18 -114h-236v-161h197v-114h-197v-186h263v-120h-405zM409 712l-139 76l-135 -76l-45 73l180 135l184 -135z" />
    <glyph glyph-name="Edieresis" unicode="&#xcb;" horiz-adv-x="505" 
d="M75 0v695h396l-18 -114h-236v-161h197v-114h-197v-186h263v-120h-405zM245 795q0 -32 -22.5 -54.5t-54.5 -22.5q-31 0 -53.5 22.5t-22.5 54.5t23 54.5t55 22.5q31 0 53 -22.5t22 -54.5zM455 795q0 -32 -22.5 -54.5t-54.5 -22.5q-31 0 -53.5 22.5t-22.5 54.5t23 54.5
t55 22.5q31 0 53 -22.5t22 -54.5z" />
    <glyph glyph-name="Igrave" unicode="&#xcc;" horiz-adv-x="296" 
d="M75 0v695h146v-695h-146zM225 717l-224 100l58 104l207 -130z" />
    <glyph glyph-name="Iacute" unicode="&#xcd;" horiz-adv-x="296" 
d="M75 0v695h146v-695h-146zM77 717l-41 74l207 130l58 -104z" />
    <glyph glyph-name="Icircumflex" unicode="&#xce;" horiz-adv-x="296" 
d="M75 0v695h146v-695h-146zM286 712l-139 76l-135 -76l-45 73l180 135l184 -135z" />
    <glyph glyph-name="Idieresis" unicode="&#xcf;" horiz-adv-x="296" 
d="M75 0v695h146v-695h-146zM120 795q0 -32 -22.5 -54.5t-54.5 -22.5q-31 0 -53.5 22.5t-22.5 54.5t23 54.5t55 22.5q31 0 53 -22.5t22 -54.5zM330 795q0 -32 -22.5 -54.5t-54.5 -22.5q-31 0 -53.5 22.5t-22.5 54.5t23 54.5t55 22.5q31 0 53 -22.5t22 -54.5z" />
    <glyph glyph-name="Eth" unicode="&#xd0;" horiz-adv-x="628" 
d="M583 345q0 -72 -17.5 -132.5t-52.5 -108.5q-32 -43 -76 -69.5t-93 -30.5q-20 -2 -44.5 -3t-55.5 -1h-169v306h-76v89h76v300h140q30 0 65 -1t56 -3q45 -4 82.5 -20.5t69.5 -48.5q48 -48 71.5 -115.5t23.5 -161.5zM426 332q0 61 -7 110.5t-28 84.5q-17 29 -42.5 43.5
t-67.5 14.5h-64v-190h107l-5 -89h-102v-192h75q69 0 101.5 53.5t32.5 164.5z" />
    <glyph glyph-name="Ntilde" unicode="&#xd1;" horiz-adv-x="633" 
d="M412 0l-119 266l-29.5 66.5l-27.5 64l-23 55.5l-14 38q2 -19 3 -43l2 -51t1.5 -51.5t0.5 -47.5l4 -297h-135v695h155l133 -278q26 -56 45.5 -107.5t30.5 -89.5q-2 20 -4 45.5t-3.5 52t-2.5 51t-1 42.5l-3 284h133v-695h-146zM492 799q-23 -29 -51 -43.5t-73 -14.5
q-23 0 -38 5.5t-28.5 11.5t-28 11.5t-36.5 5.5q-41 0 -68 -29l-41 75q21 26 51.5 42t72.5 16q22 0 37 -5.5t28.5 -11.5t28.5 -11.5t37 -5.5q41 0 68 30z" />
    <glyph glyph-name="Ograve" unicode="&#xd2;" horiz-adv-x="690" 
d="M645 351q0 -118 -39.5 -203t-115.5 -127q-32 -17 -63.5 -24.5t-75.5 -7.5q-79 0 -132.5 23t-93.5 75q-80 103 -80 258q0 113 41 198t116 127q31 17 68 25.5t76 8.5q69 0 124.5 -24.5t94.5 -70.5t59.5 -111t20.5 -147zM484 347q0 54 -4.5 93t-13.5 68q-4 13 -13 28.5
t-24 28.5t-36 22t-49 9q-35 0 -64 -16.5t-44 -44.5q-35 -66 -35 -190q0 -181 62 -225q33 -24 83 -24q73 0 105.5 59t32.5 192zM421 717l-224 100l58 104l207 -130z" />
    <glyph glyph-name="Oacute" unicode="&#xd3;" horiz-adv-x="690" 
d="M645 351q0 -118 -39.5 -203t-115.5 -127q-32 -17 -63.5 -24.5t-75.5 -7.5q-79 0 -132.5 23t-93.5 75q-80 103 -80 258q0 113 41 198t116 127q31 17 68 25.5t76 8.5q69 0 124.5 -24.5t94.5 -70.5t59.5 -111t20.5 -147zM484 347q0 54 -4.5 93t-13.5 68q-4 13 -13 28.5
t-24 28.5t-36 22t-49 9q-35 0 -64 -16.5t-44 -44.5q-35 -66 -35 -190q0 -181 62 -225q33 -24 83 -24q73 0 105.5 59t32.5 192zM262 717l-41 74l207 130l58 -104z" />
    <glyph glyph-name="Ocircumflex" unicode="&#xd4;" horiz-adv-x="690" 
d="M645 351q0 -118 -39.5 -203t-115.5 -127q-32 -17 -63.5 -24.5t-75.5 -7.5q-79 0 -132.5 23t-93.5 75q-80 103 -80 258q0 113 41 198t116 127q31 17 68 25.5t76 8.5q69 0 124.5 -24.5t94.5 -70.5t59.5 -111t20.5 -147zM484 347q0 54 -4.5 93t-13.5 68q-4 13 -13 28.5
t-24 28.5t-36 22t-49 9q-35 0 -64 -16.5t-44 -44.5q-35 -66 -35 -190q0 -181 62 -225q33 -24 83 -24q73 0 105.5 59t32.5 192zM485 712l-139 76l-135 -76l-45 73l180 135l184 -135z" />
    <glyph glyph-name="Otilde" unicode="&#xd5;" horiz-adv-x="690" 
d="M645 351q0 -118 -39.5 -203t-115.5 -127q-32 -17 -63.5 -24.5t-75.5 -7.5q-79 0 -132.5 23t-93.5 75q-80 103 -80 258q0 113 41 198t116 127q31 17 68 25.5t76 8.5q69 0 124.5 -24.5t94.5 -70.5t59.5 -111t20.5 -147zM484 347q0 54 -4.5 93t-13.5 68q-4 13 -13 28.5
t-24 28.5t-36 22t-49 9q-35 0 -64 -16.5t-44 -44.5q-35 -66 -35 -190q0 -181 62 -225q33 -24 83 -24q73 0 105.5 59t32.5 192zM535 799q-23 -29 -51 -43.5t-73 -14.5q-23 0 -38 5.5t-28.5 11.5t-28 11.5t-36.5 5.5q-41 0 -68 -29l-41 75q21 26 51.5 42t72.5 16q22 0 37 -5.5
t28.5 -11.5t28.5 -11.5t37 -5.5q41 0 68 30z" />
    <glyph glyph-name="Odieresis" unicode="&#xd6;" horiz-adv-x="690" 
d="M645 351q0 -118 -39.5 -203t-115.5 -127q-32 -17 -63.5 -24.5t-75.5 -7.5q-79 0 -132.5 23t-93.5 75q-80 103 -80 258q0 113 41 198t116 127q31 17 68 25.5t76 8.5q69 0 124.5 -24.5t94.5 -70.5t59.5 -111t20.5 -147zM484 347q0 54 -4.5 93t-13.5 68q-4 13 -13 28.5
t-24 28.5t-36 22t-49 9q-35 0 -64 -16.5t-44 -44.5q-35 -66 -35 -190q0 -181 62 -225q33 -24 83 -24q73 0 105.5 59t32.5 192zM316 795q0 -32 -22.5 -54.5t-54.5 -22.5q-31 0 -53.5 22.5t-22.5 54.5t23 54.5t55 22.5q31 0 53 -22.5t22 -54.5zM527 795q0 -32 -22.5 -54.5
t-54.5 -22.5q-31 0 -53.5 22.5t-22.5 54.5t23 54.5t55 22.5q31 0 53 -22.5t22 -54.5z" />
    <glyph glyph-name="multiply" unicode="&#xd7;" horiz-adv-x="626" 
d="M462 65l-149 149l-149 -149l-89 89l149 149l-149 149l89 89l149 -149l149 149l89 -89l-149 -149l149 -149z" />
    <glyph glyph-name="Oslash" unicode="&#xd8;" horiz-adv-x="690" 
d="M645 351q0 -118 -39.5 -203t-115.5 -127q-32 -17 -63.5 -24.5t-75.5 -7.5q-93 0 -155 34l-67 -111l-73 41l76 125q-45 55 -66 122.5t-21 144.5q0 113 41 198.5t116 126.5q31 17 68 25.5t76 8.5q83 0 145 -35l61 99l73 -41l-68 -110q43 -46 65.5 -113t22.5 -153zM428 565
q-15 14 -35.5 22.5t-48.5 8.5q-35 0 -64.5 -16.5t-43.5 -44.5q-35 -66 -35 -190q0 -80 12 -134zM484 347q0 41 -3 73t-8 58l-216 -355q39 -27 89 -27q73 0 105.5 59t32.5 192z" />
    <glyph glyph-name="Ugrave" unicode="&#xd9;" horiz-adv-x="646" 
d="M573 227q0 -25 -0.5 -41t-1.5 -27t-3 -20.5t-6 -20.5q-7 -21 -23.5 -44t-45 -42.5t-70 -32t-97.5 -12.5q-80 0 -137 23.5t-86 69.5q-9 13 -14.5 26t-9 28t-5 33.5t-1.5 43.5v484h143v-457q0 -32 3 -52t9 -31q25 -48 95 -48q46 0 73.5 21.5t32.5 59.5q2 11 2 22v485h142
v-468zM398 717l-224 100l58 104l207 -130z" />
    <glyph glyph-name="Uacute" unicode="&#xda;" horiz-adv-x="646" 
d="M573 227q0 -25 -0.5 -41t-1.5 -27t-3 -20.5t-6 -20.5q-7 -21 -23.5 -44t-45 -42.5t-70 -32t-97.5 -12.5q-80 0 -137 23.5t-86 69.5q-9 13 -14.5 26t-9 28t-5 33.5t-1.5 43.5v484h143v-457q0 -32 3 -52t9 -31q25 -48 95 -48q46 0 73.5 21.5t32.5 59.5q2 11 2 22v485h142
v-468zM263 717l-41 74l207 130l58 -104z" />
    <glyph glyph-name="Ucircumflex" unicode="&#xdb;" horiz-adv-x="646" 
d="M573 227q0 -25 -0.5 -41t-1.5 -27t-3 -20.5t-6 -20.5q-7 -21 -23.5 -44t-45 -42.5t-70 -32t-97.5 -12.5q-80 0 -137 23.5t-86 69.5q-9 13 -14.5 26t-9 28t-5 33.5t-1.5 43.5v484h143v-457q0 -32 3 -52t9 -31q25 -48 95 -48q46 0 73.5 21.5t32.5 59.5q2 11 2 22v485h142
v-468zM466 712l-139 76l-135 -76l-45 73l180 135l184 -135z" />
    <glyph glyph-name="Udieresis" unicode="&#xdc;" horiz-adv-x="646" 
d="M573 227q0 -25 -0.5 -41t-1.5 -27t-3 -20.5t-6 -20.5q-7 -21 -23.5 -44t-45 -42.5t-70 -32t-97.5 -12.5q-80 0 -137 23.5t-86 69.5q-9 13 -14.5 26t-9 28t-5 33.5t-1.5 43.5v484h143v-457q0 -32 3 -52t9 -31q25 -48 95 -48q46 0 73.5 21.5t32.5 59.5q2 11 2 22v485h142
v-468zM295 795q0 -32 -22.5 -54.5t-54.5 -22.5q-31 0 -53.5 22.5t-22.5 54.5t23 54.5t55 22.5q31 0 53 -22.5t22 -54.5zM504 795q0 -32 -22.5 -54.5t-54.5 -22.5q-31 0 -53.5 22.5t-22.5 54.5t23 54.5t55 22.5q31 0 53 -22.5t22 -54.5z" />
    <glyph glyph-name="Yacute" unicode="&#xdd;" horiz-adv-x="544" 
d="M342 286v-286h-146v286l-216 409h168l89 -190q14 -29 21.5 -49t13.5 -40l16 38.5l21 48.5l90 192h165zM207 717l-41 74l207 130l58 -104z" />
    <glyph glyph-name="Thorn" unicode="&#xde;" horiz-adv-x="576" 
d="M551 371q0 -69 -31.5 -122t-88.5 -80q-12 -6 -24.5 -10t-28 -7t-36.5 -4.5t-50 -1.5h-77v-146h-140v695h140v-110h43q44 0 74.5 -2t52 -6.5t36.5 -11t30 -14.5q49 -27 74.5 -73.5t25.5 -106.5zM398 368q0 49 -24.5 76.5t-69.5 27.5h-89v-212h73q21 0 35.5 1.5t25 5.5
t18 11t14.5 18q9 14 13 30.5t4 41.5z" />
    <glyph glyph-name="germandbls" unicode="&#xdf;" horiz-adv-x="612" 
d="M577 193q0 -46 -16.5 -84t-46.5 -65t-72 -42t-93 -15q-26 0 -43.5 2.5t-31.5 9.5l30 92q13 -5 30 -5q46 0 71 26.5t25 75.5q0 21 -4 33.5t-17 26.5q-18 20 -37 32l-45 29q-44 28 -44 81q0 27 9.5 43t23.5 27l23 18q32 25 32 64q0 22 -4.5 35.5t-13.5 24.5q-8 9 -22 14.5
t-28 5.5q-26 0 -45 -16.5t-24 -42.5q-2 -11 -2.5 -26.5t-0.5 -43.5v-390q0 -38 -7.5 -65.5t-12.5 -37.5h-136q2 6 5.5 20t6.5 31.5t5.5 37.5t2.5 38v281h-82v104h82v16q0 22 1.5 41t6.5 36t15 32.5t27 31.5q42 39 104 51q13 2 26.5 3.5t28.5 1.5q100 0 158.5 -44.5
t58.5 -120.5q0 -81 -74 -125l-32 -19q-13 -8 -13 -18q0 -14 24 -25l40 -18.5t28 -15t21.5 -15.5t19.5 -18q23 -23 32.5 -51t9.5 -62z" />
    <glyph glyph-name="agrave" unicode="&#xe0;" horiz-adv-x="522" 
d="M422 -26q-23 10 -42.5 26t-29.5 36l-15.5 -15t-15.5 -12q-39 -28 -103 -28q-86 0 -131 41.5t-45 118.5q0 91 61.5 133.5t184.5 42.5h15q7 0 15 -1v21q0 43 -11.5 59.5t-48.5 16.5q-32 0 -69 -15t-79 -43l-57 96q20 13 38 22t45 20q38 16 71.5 23t68.5 7q65 0 107.5 -23
t57.5 -66q3 -8 4.5 -15.5t3 -17.5t1.5 -24v-35l-3 -172q0 -21 1 -36.5t6 -28.5t14.5 -24.5t26.5 -24.5zM308 224q-70 0 -97.5 -16t-27.5 -62q0 -30 16.5 -48.5t42.5 -18.5q19 0 37 9t33 26l2 110h-6zM340 557l-224 100l58 104l207 -130z" />
    <glyph glyph-name="aacute" unicode="&#xe1;" horiz-adv-x="522" 
d="M422 -26q-23 10 -42.5 26t-29.5 36l-15.5 -15t-15.5 -12q-39 -28 -103 -28q-86 0 -131 41.5t-45 118.5q0 91 61.5 133.5t184.5 42.5h15q7 0 15 -1v21q0 43 -11.5 59.5t-48.5 16.5q-32 0 -69 -15t-79 -43l-57 96q20 13 38 22t45 20q38 16 71.5 23t68.5 7q65 0 107.5 -23
t57.5 -66q3 -8 4.5 -15.5t3 -17.5t1.5 -24v-35l-3 -172q0 -21 1 -36.5t6 -28.5t14.5 -24.5t26.5 -24.5zM308 224q-70 0 -97.5 -16t-27.5 -62q0 -30 16.5 -48.5t42.5 -18.5q19 0 37 9t33 26l2 110h-6zM189 557l-41 74l207 130l58 -104z" />
    <glyph glyph-name="acircumflex" unicode="&#xe2;" horiz-adv-x="522" 
d="M422 -26q-23 10 -42.5 26t-29.5 36l-15.5 -15t-15.5 -12q-39 -28 -103 -28q-86 0 -131 41.5t-45 118.5q0 91 61.5 133.5t184.5 42.5h15q7 0 15 -1v21q0 43 -11.5 59.5t-48.5 16.5q-32 0 -69 -15t-79 -43l-57 96q20 13 38 22t45 20q38 16 71.5 23t68.5 7q65 0 107.5 -23
t57.5 -66q3 -8 4.5 -15.5t3 -17.5t1.5 -24v-35l-3 -172q0 -21 1 -36.5t6 -28.5t14.5 -24.5t26.5 -24.5zM308 224q-70 0 -97.5 -16t-27.5 -62q0 -30 16.5 -48.5t42.5 -18.5q19 0 37 9t33 26l2 110h-6zM393 552l-139 76l-135 -76l-45 73l180 135l184 -135z" />
    <glyph glyph-name="atilde" unicode="&#xe3;" horiz-adv-x="522" 
d="M422 -26q-23 10 -42.5 26t-29.5 36l-15.5 -15t-15.5 -12q-39 -28 -103 -28q-86 0 -131 41.5t-45 118.5q0 91 61.5 133.5t184.5 42.5h15q7 0 15 -1v21q0 43 -11.5 59.5t-48.5 16.5q-32 0 -69 -15t-79 -43l-57 96q20 13 38 22t45 20q38 16 71.5 23t68.5 7q65 0 107.5 -23
t57.5 -66q3 -8 4.5 -15.5t3 -17.5t1.5 -24v-35l-3 -172q0 -21 1 -36.5t6 -28.5t14.5 -24.5t26.5 -24.5zM308 224q-70 0 -97.5 -16t-27.5 -62q0 -30 16.5 -48.5t42.5 -18.5q19 0 37 9t33 26l2 110h-6zM442 639q-23 -29 -51 -43.5t-73 -14.5q-23 0 -38 5.5t-28.5 11.5
t-28 11.5t-36.5 5.5q-41 0 -68 -29l-41 75q21 26 51.5 42t72.5 16q22 0 37 -5.5t28.5 -11.5t28.5 -11.5t37 -5.5q41 0 68 30z" />
    <glyph glyph-name="adieresis" unicode="&#xe4;" horiz-adv-x="522" 
d="M422 -26q-23 10 -42.5 26t-29.5 36l-15.5 -15t-15.5 -12q-39 -28 -103 -28q-86 0 -131 41.5t-45 118.5q0 91 61.5 133.5t184.5 42.5h15q7 0 15 -1v21q0 43 -11.5 59.5t-48.5 16.5q-32 0 -69 -15t-79 -43l-57 96q20 13 38 22t45 20q38 16 71.5 23t68.5 7q65 0 107.5 -23
t57.5 -66q3 -8 4.5 -15.5t3 -17.5t1.5 -24v-35l-3 -172q0 -21 1 -36.5t6 -28.5t14.5 -24.5t26.5 -24.5zM308 224q-70 0 -97.5 -16t-27.5 -62q0 -30 16.5 -48.5t42.5 -18.5q19 0 37 9t33 26l2 110h-6zM226 635q0 -32 -22.5 -54.5t-54.5 -22.5q-31 0 -53.5 22.5t-22.5 54.5
t23 54.5t55 22.5q31 0 53 -22.5t22 -54.5zM437 635q0 -32 -22.5 -54.5t-54.5 -22.5q-31 0 -53.5 22.5t-22.5 54.5t23 54.5t55 22.5q31 0 53 -22.5t22 -54.5z" />
    <glyph glyph-name="aring" unicode="&#xe5;" horiz-adv-x="522" 
d="M422 -26q-23 10 -42.5 26t-29.5 36l-15.5 -15t-15.5 -12q-39 -28 -103 -28q-86 0 -131 41.5t-45 118.5q0 91 61.5 133.5t184.5 42.5h15q7 0 15 -1v21q0 43 -11.5 59.5t-48.5 16.5q-32 0 -69 -15t-79 -43l-57 96q20 13 38 22t45 20q38 16 71.5 23t68.5 7q65 0 107.5 -23
t57.5 -66q3 -8 4.5 -15.5t3 -17.5t1.5 -24v-35l-3 -172q0 -21 1 -36.5t6 -28.5t14.5 -24.5t26.5 -24.5zM308 224q-70 0 -97.5 -16t-27.5 -62q0 -30 16.5 -48.5t42.5 -18.5q19 0 37 9t33 26l2 110h-6zM366 659q0 -22 -8.5 -41t-23 -33.5t-33.5 -23t-41 -8.5q-21 0 -40 8.5
t-33.5 23t-22.5 33.5t-8 41t8.5 41t23 33.5t34 23t40.5 8.5t40 -8.5t33.5 -23t22.5 -33.5t8 -41zM311 659q0 21 -14.5 36t-34.5 15q-22 0 -37 -15t-15 -36t15 -36t35 -15q21 0 36 15t15 36z" />
    <glyph glyph-name="ae" unicode="&#xe6;" horiz-adv-x="772" 
d="M446 213v-4q0 -60 28 -92t80 -32q68 0 130 51l52 -80q-87 -71 -193 -71q-27 0 -47 2.5t-37.5 8.5t-34 15.5t-34.5 23.5q-5 3 -9 8t-9 10q-12 -17 -28.5 -28.5t-24.5 -16.5q-20 -11 -45.5 -19t-57.5 -8q-86 0 -131 41.5t-45 118.5q0 91 61.5 133.5t184.5 42.5
q8 0 13.5 -0.5t16.5 -0.5v21q0 43 -11.5 59.5t-48.5 16.5q-32 0 -69 -15t-79 -43l-57 96q17 11 36.5 21t46.5 21q38 16 71.5 23t68.5 7q42 0 74.5 -14.5t55.5 -32.5q21 20 53 33t69 13q45 0 84 -14t64 -40q35 -36 51.5 -89.5t16.5 -134.5v-31h-296zM308 224q-70 0 -97.5 -16
t-27.5 -62q0 -30 16.5 -48.5t42.5 -18.5q19 0 37.5 9.5t33.5 26.5l1 109h-6zM603 317q0 29 -3.5 46t-12.5 31q-20 30 -59 30q-38 0 -59 -28.5t-21 -82.5v-2h155v6z" />
    <glyph glyph-name="ccedilla" unicode="&#xe7;" horiz-adv-x="465" 
d="M440 58q-15 -15 -24 -22.5t-23 -15.5q-26 -15 -54.5 -23.5t-62.5 -8.5l-7 -20q38 -4 55 -27t17 -52q0 -37 -28 -62.5t-81 -25.5q-23 0 -47.5 8t-39.5 16l30 63l23.5 -10t28.5 -5q11 0 18 6t7 12q0 8 -5.5 14t-19.5 6q-8 0 -14 -3t-13 -3l-13 20l19 70q-78 19 -119.5 85
t-41.5 172q0 89 30 147.5t75 89.5q26 17 60.5 27.5t66.5 10.5q26 0 51.5 -6t47.5 -17q14 -8 23.5 -15t26.5 -21l-65 -88q-20 19 -41 29.5t-40 10.5q-45 0 -66 -40.5t-21 -131.5q0 -51 6 -81.5t20 -47.5q23 -29 60 -29q44 0 92 42l8 7z" />
    <glyph glyph-name="egrave" unicode="&#xe8;" horiz-adv-x="516" 
d="M190 214v-4q0 -60 28 -92t80 -32q68 0 130 51l52 -80q-87 -71 -193 -71q-55 0 -100 19t-76.5 53.5t-48.5 83.5t-17 109q0 69 15 117t49 86q32 35 71 52t90 17q45 0 84 -14t64 -40q35 -36 51.5 -89.5t16.5 -134.5v-31h-296zM347 318q0 29 -3.5 46t-12.5 31q-20 30 -59 30
q-38 0 -59 -28.5t-21 -82.5v-2h155v6zM324 557l-224 100l58 104l207 -130z" />
    <glyph glyph-name="eacute" unicode="&#xe9;" horiz-adv-x="516" 
d="M190 214v-4q0 -60 28 -92t80 -32q68 0 130 51l52 -80q-87 -71 -193 -71q-55 0 -100 19t-76.5 53.5t-48.5 83.5t-17 109q0 69 15 117t49 86q32 35 71 52t90 17q45 0 84 -14t64 -40q35 -36 51.5 -89.5t16.5 -134.5v-31h-296zM347 318q0 29 -3.5 46t-12.5 31q-20 30 -59 30
q-38 0 -59 -28.5t-21 -82.5v-2h155v6zM193 557l-41 74l207 130l58 -104z" />
    <glyph glyph-name="ecircumflex" unicode="&#xea;" horiz-adv-x="516" 
d="M190 214v-4q0 -60 28 -92t80 -32q68 0 130 51l52 -80q-87 -71 -193 -71q-55 0 -100 19t-76.5 53.5t-48.5 83.5t-17 109q0 69 15 117t49 86q32 35 71 52t90 17q45 0 84 -14t64 -40q35 -36 51.5 -89.5t16.5 -134.5v-31h-296zM347 318q0 29 -3.5 46t-12.5 31q-20 30 -59 30
q-38 0 -59 -28.5t-21 -82.5v-2h155v6zM409 552l-139 76l-135 -76l-45 73l180 135l184 -135z" />
    <glyph glyph-name="edieresis" unicode="&#xeb;" horiz-adv-x="516" 
d="M190 214v-4q0 -60 28 -92t80 -32q68 0 130 51l52 -80q-87 -71 -193 -71q-55 0 -100 19t-76.5 53.5t-48.5 83.5t-17 109q0 69 15 117t49 86q32 35 71 52t90 17q45 0 84 -14t64 -40q35 -36 51.5 -89.5t16.5 -134.5v-31h-296zM347 318q0 29 -3.5 46t-12.5 31q-20 30 -59 30
q-38 0 -59 -28.5t-21 -82.5v-2h155v6zM242 635q0 -32 -22.5 -54.5t-54.5 -22.5q-31 0 -53.5 22.5t-22.5 54.5t23 54.5t55 22.5q31 0 53 -22.5t22 -54.5zM453 635q0 -32 -22.5 -54.5t-54.5 -22.5q-31 0 -53.5 22.5t-22.5 54.5t23 54.5t55 22.5q31 0 53 -22.5t22 -54.5z" />
    <glyph glyph-name="igrave" unicode="&#xec;" horiz-adv-x="284" 
d="M75 0v503l134 21v-524h-134zM210 557l-224 100l58 104l207 -130z" />
    <glyph glyph-name="iacute" unicode="&#xed;" horiz-adv-x="284" 
d="M75 0v503l134 21v-524h-134zM80 557l-41 74l207 130l58 -104z" />
    <glyph glyph-name="icircumflex" unicode="&#xee;" horiz-adv-x="284" 
d="M75 0v503l134 21v-524h-134zM280 552l-139 76l-135 -76l-45 73l180 135l184 -135z" />
    <glyph glyph-name="idieresis" unicode="&#xef;" horiz-adv-x="284" 
d="M75 0v503l134 21v-524h-134zM114 635q0 -32 -22.5 -54.5t-54.5 -22.5q-31 0 -53.5 22.5t-22.5 54.5t23 54.5t55 22.5q31 0 53 -22.5t22 -54.5zM324 635q0 -32 -22.5 -54.5t-54.5 -22.5q-31 0 -53.5 22.5t-22.5 54.5t23 54.5t55 22.5q31 0 53 -22.5t22 -54.5z" />
    <glyph glyph-name="eth" unicode="&#xf0;" horiz-adv-x="536" 
d="M358 233q0 16 -2 34t-4 31q-14 9 -33.5 14t-55.5 5q-39 0 -61 -27t-22 -78t24 -83t68 -32t65 38.5t21 97.5zM377 535q56 -66 85 -139t29 -155q0 -63 -17 -110t-47.5 -79t-71.5 -48t-89 -16q-47 0 -87.5 15.5t-70 44.5t-46.5 71t-17 95q0 48 16 86.5t44 66t67 42t85 14.5
q15 0 28 -1t24 -2q-14 19 -30.5 38t-35.5 34l-15 12l-43 -48l-81 36l48 54q-29 14 -64.5 23.5t-77.5 14.5l80 95q32 -4 68.5 -14t73.5 -27l31 36l81 -36l-37 -43q22 -15 37.5 -27.5t32.5 -32.5z" />
    <glyph glyph-name="ntilde" unicode="&#xf1;" horiz-adv-x="554" 
d="M347 0v333q0 44 -9.5 59.5t-35.5 15.5q-20 0 -45 -12.5t-48 -33.5v-362h-134v371q0 33 -4.5 63.5t-13.5 56.5l119 34q19 -33 19 -64q15 11 28.5 20t30.5 18q20 11 44.5 16.5t47.5 5.5q43 0 77 -20.5t46 -53.5q10 -27 10 -73v-374h-132zM457 639q-23 -29 -51 -43.5
t-73 -14.5q-23 0 -38 5.5t-28.5 11.5t-28 11.5t-36.5 5.5q-41 0 -68 -29l-41 75q21 26 51.5 42t72.5 16q22 0 37 -5.5t28.5 -11.5t28.5 -11.5t37 -5.5q41 0 68 30z" />
    <glyph glyph-name="ograve" unicode="&#xf2;" horiz-adv-x="543" 
d="M503 258q0 -66 -15.5 -113t-48.5 -85q-29 -33 -69 -52t-100 -19q-52 0 -94.5 19t-72.5 53.5t-46.5 83.5t-16.5 109t16.5 109.5t46.5 85t72.5 54.5t94.5 19q109 0 174 -77q31 -36 45 -80t14 -107zM357 259q0 102 -27 137q-21 27 -58 27q-24 0 -42.5 -14t-26.5 -38
q-7 -20 -10.5 -48t-3.5 -66q0 -89 17 -129q9 -21 28.5 -31.5t39.5 -10.5q44 0 63.5 41t19.5 132zM322 557l-224 100l58 104l207 -130z" />
    <glyph glyph-name="oacute" unicode="&#xf3;" horiz-adv-x="543" 
d="M503 258q0 -66 -15.5 -113t-48.5 -85q-29 -33 -69 -52t-100 -19q-52 0 -94.5 19t-72.5 53.5t-46.5 83.5t-16.5 109t16.5 109.5t46.5 85t72.5 54.5t94.5 19q109 0 174 -77q31 -36 45 -80t14 -107zM357 259q0 102 -27 137q-21 27 -58 27q-24 0 -42.5 -14t-26.5 -38
q-7 -20 -10.5 -48t-3.5 -66q0 -89 17 -129q9 -21 28.5 -31.5t39.5 -10.5q44 0 63.5 41t19.5 132zM193 557l-41 74l207 130l58 -104z" />
    <glyph glyph-name="ocircumflex" unicode="&#xf4;" horiz-adv-x="543" 
d="M503 258q0 -66 -15.5 -113t-48.5 -85q-29 -33 -69 -52t-100 -19q-52 0 -94.5 19t-72.5 53.5t-46.5 83.5t-16.5 109t16.5 109.5t46.5 85t72.5 54.5t94.5 19q109 0 174 -77q31 -36 45 -80t14 -107zM357 259q0 102 -27 137q-21 27 -58 27q-24 0 -42.5 -14t-26.5 -38
q-7 -20 -10.5 -48t-3.5 -66q0 -89 17 -129q9 -21 28.5 -31.5t39.5 -10.5q44 0 63.5 41t19.5 132zM409 552l-139 76l-135 -76l-45 73l180 135l184 -135z" />
    <glyph glyph-name="otilde" unicode="&#xf5;" horiz-adv-x="543" 
d="M503 258q0 -66 -15.5 -113t-48.5 -85q-29 -33 -69 -52t-100 -19q-52 0 -94.5 19t-72.5 53.5t-46.5 83.5t-16.5 109t16.5 109.5t46.5 85t72.5 54.5t94.5 19q109 0 174 -77q31 -36 45 -80t14 -107zM357 259q0 102 -27 137q-21 27 -58 27q-24 0 -42.5 -14t-26.5 -38
q-7 -20 -10.5 -48t-3.5 -66q0 -89 17 -129q9 -21 28.5 -31.5t39.5 -10.5q44 0 63.5 41t19.5 132zM452 639q-23 -29 -51 -43.5t-73 -14.5q-23 0 -38 5.5t-28.5 11.5t-28 11.5t-36.5 5.5q-41 0 -68 -29l-41 75q21 26 51.5 42t72.5 16q22 0 37 -5.5t28.5 -11.5t28.5 -11.5
t37 -5.5q41 0 68 30z" />
    <glyph glyph-name="odieresis" unicode="&#xf6;" horiz-adv-x="543" 
d="M503 258q0 -66 -15.5 -113t-48.5 -85q-29 -33 -69 -52t-100 -19q-52 0 -94.5 19t-72.5 53.5t-46.5 83.5t-16.5 109t16.5 109.5t46.5 85t72.5 54.5t94.5 19q109 0 174 -77q31 -36 45 -80t14 -107zM357 259q0 102 -27 137q-21 27 -58 27q-24 0 -42.5 -14t-26.5 -38
q-7 -20 -10.5 -48t-3.5 -66q0 -89 17 -129q9 -21 28.5 -31.5t39.5 -10.5q44 0 63.5 41t19.5 132zM242 635q0 -32 -22.5 -54.5t-54.5 -22.5q-31 0 -53.5 22.5t-22.5 54.5t23 54.5t55 22.5q31 0 53 -22.5t22 -54.5zM453 635q0 -32 -22.5 -54.5t-54.5 -22.5q-31 0 -53.5 22.5
t-22.5 54.5t23 54.5t55 22.5q31 0 53 -22.5t22 -54.5z" />
    <glyph glyph-name="divide" unicode="&#xf7;" horiz-adv-x="595" 
d="M45 214v105h505v-105h-505zM382 68q0 -35 -25.5 -59.5t-61.5 -24.5q-35 0 -60.5 24.5t-25.5 59.5q0 37 25.5 63t61.5 26t61 -26t25 -63zM383 467q0 -36 -25.5 -61t-61.5 -25q-35 0 -60 25t-25 60q0 18 6.5 34t18 28t27 19t33.5 7q36 0 61.5 -25.5t25.5 -61.5z" />
    <glyph glyph-name="oslash" unicode="&#xf8;" horiz-adv-x="543" 
d="M503 258q0 -66 -15.5 -113t-48.5 -85q-29 -33 -69 -52t-100 -19q-57 0 -103 23l-58 -96l-62 35l62 103q-33 35 -51 85.5t-18 114.5q0 60 16.5 109.5t46.5 85t72.5 54.5t94.5 19q61 0 109 -24l59 96l62 -35l-65 -105q37 -36 52.5 -84.5t15.5 -111.5zM357 259q0 17 -0.5 34
t-2.5 26l-131 -215q11 -9 24.5 -13.5t26.5 -4.5q44 0 63.5 41t19.5 132zM322 404q-21 19 -50 19q-24 0 -42.5 -14t-26.5 -38q-7 -20 -10.5 -48t-3.5 -66q0 -19 1 -36t2 -31z" />
    <glyph glyph-name="ugrave" unicode="&#xf9;" horiz-adv-x="546" 
d="M407 -14q-27 19 -40 50q-25 -24 -59.5 -36.5t-75.5 -12.5q-54 0 -96 23t-55 60q-6 17 -8.5 40t-2.5 62v328l132 25v-329q0 -35 3 -54t8 -30t18.5 -17.5t28.5 -6.5q25 0 50 15t33 34v360l128 27v-391q0 -26 8 -50.5t23 -42.5zM354 557l-224 100l58 104l207 -130z" />
    <glyph glyph-name="uacute" unicode="&#xfa;" horiz-adv-x="546" 
d="M407 -14q-27 19 -40 50q-25 -24 -59.5 -36.5t-75.5 -12.5q-54 0 -96 23t-55 60q-6 17 -8.5 40t-2.5 62v328l132 25v-329q0 -35 3 -54t8 -30t18.5 -17.5t28.5 -6.5q25 0 50 15t33 34v360l128 27v-391q0 -26 8 -50.5t23 -42.5zM206 557l-41 74l207 130l58 -104z" />
    <glyph glyph-name="ucircumflex" unicode="&#xfb;" horiz-adv-x="546" 
d="M407 -14q-27 19 -40 50q-25 -24 -59.5 -36.5t-75.5 -12.5q-54 0 -96 23t-55 60q-6 17 -8.5 40t-2.5 62v328l132 25v-329q0 -35 3 -54t8 -30t18.5 -17.5t28.5 -6.5q25 0 50 15t33 34v360l128 27v-391q0 -26 8 -50.5t23 -42.5zM411 552l-139 76l-135 -76l-45 73l180 135
l184 -135z" />
    <glyph glyph-name="udieresis" unicode="&#xfc;" horiz-adv-x="546" 
d="M407 -14q-27 19 -40 50q-25 -24 -59.5 -36.5t-75.5 -12.5q-54 0 -96 23t-55 60q-6 17 -8.5 40t-2.5 62v328l132 25v-329q0 -35 3 -54t8 -30t18.5 -17.5t28.5 -6.5q25 0 50 15t33 34v360l128 27v-391q0 -26 8 -50.5t23 -42.5zM240 635q0 -32 -22.5 -54.5t-54.5 -22.5
q-31 0 -53.5 22.5t-22.5 54.5t23 54.5t55 22.5q31 0 53 -22.5t22 -54.5zM455 635q0 -32 -22.5 -54.5t-54.5 -22.5q-31 0 -53.5 22.5t-22.5 54.5t23 54.5t55 22.5q31 0 53 -22.5t22 -54.5z" />
    <glyph glyph-name="yacute" unicode="&#xfd;" horiz-adv-x="507" 
d="M321 -8q-13 -37 -25 -64.5t-23.5 -47t-23.5 -33.5t-26 -24q-26 -19 -57.5 -30.5t-66.5 -16.5l-46 88q22 6 45 14.5t38 19.5q21 15 38 42l8.5 14t6.5 12.5t6 14.5t8 19h-34l-169 504l137 16l89 -299l27 -106q0 1 1.5 10.5t4 22l5.5 26.5l5 23q3 13 8.5 33t11.5 38l77 244
h141zM197 557l-41 74l207 130l58 -104z" />
    <glyph glyph-name="thorn" unicode="&#xfe;" horiz-adv-x="558" 
d="M513 265q0 -78 -23.5 -137.5t-71.5 -97.5q-26 -21 -53 -30.5t-59 -9.5q-38 0 -63 10.5t-43 28.5v-215l-129 -34v803q0 48 -2 76t-7 50l137 32q3 -26 4 -45.5t1 -45.5v-121q0 -11 -0.5 -25t-2.5 -20q38 41 109 41q47 0 84.5 -18t64 -52t40.5 -82t14 -108zM361 262
q0 35 -1 52.5t-5 34.5q-8 33 -27.5 49t-45.5 16t-44.5 -13.5t-31.5 -27.5v-236q14 -12 31 -22.5t44 -10.5q49 0 65 40q9 21 12 46t3 72z" />
    <glyph glyph-name="ydieresis" unicode="&#xff;" horiz-adv-x="507" 
d="M321 -8q-13 -37 -25 -64.5t-23.5 -47t-23.5 -33.5t-26 -24q-26 -19 -57.5 -30.5t-66.5 -16.5l-46 88q22 6 45 14.5t38 19.5q21 15 38 42l8.5 14t6.5 12.5t6 14.5t8 19h-34l-169 504l137 16l89 -299l27 -106q0 1 1.5 10.5t4 22l5.5 26.5l5 23q3 13 8.5 33t11.5 38l77 244
h141zM238 635q0 -32 -22.5 -54.5t-54.5 -22.5q-31 0 -53.5 22.5t-22.5 54.5t23 54.5t55 22.5q31 0 53 -22.5t22 -54.5zM448 635q0 -32 -22.5 -54.5t-54.5 -22.5q-31 0 -53.5 22.5t-22.5 54.5t23 54.5t55 22.5q31 0 53 -22.5t22 -54.5z" />
    <glyph glyph-name="dotlessi" unicode="&#x131;" horiz-adv-x="284" 
d="M75 0v503l134 21v-524h-134z" />
    <glyph glyph-name="IJ" unicode="&#x132;" horiz-adv-x="593" 
d="M75 0v695h146v-695h-146zM518 135q0 -34 -0.5 -55.5t-2 -36t-3 -24.5t-4.5 -20q-8 -32 -25 -58t-39.5 -46.5t-48 -35t-49.5 -23.5l-65 72q27 17 49.5 40t31.5 44q4 9 7 20t4.5 25.5t2 34.5t0.5 48v575h142v-560z" />
    <glyph glyph-name="ij" unicode="&#x133;" horiz-adv-x="567" 
d="M75 0v503l134 21v-524h-134zM225 653q0 -35 -24 -59t-59 -24q-34 0 -58 24t-24 59t24.5 59t59.5 24q34 0 57.5 -24t23.5 -59zM492 14q0 -36 -3.5 -62.5t-9 -45t-12 -30.5t-13.5 -21q-36 -47 -104 -75l-56 74q16 13 28.5 28.5t20.5 29.5q9 17 12.5 39.5t3.5 58.5v481
l133 32v-509zM510 655q0 -35 -24.5 -59.5t-59.5 -24.5t-58.5 24t-23.5 58q0 35 24 59.5t59 24.5q34 0 58.5 -24t24.5 -58z" />
    <glyph glyph-name="Lslash" unicode="&#x141;" horiz-adv-x="477" 
d="M442 0h-367v294l-56 -18v92l56 18v309h143v-262l148 48v-92l-148 -48v-225h249z" />
    <glyph glyph-name="lslash" unicode="&#x142;" horiz-adv-x="291" 
d="M286 2q-36 -14 -80 -14q-43 0 -75 19t-44 51q-4 10 -6 19t-3.5 21t-2 30t-0.5 45v113l-40 -13v92l40 13v177q0 51 -1.5 85t-5.5 69l137 31q4 -21 5.5 -50t1.5 -83v-182l54 18v-92l-54 -18v-125q0 -33 0.5 -53t1 -32t2.5 -18t5 -11q8 -14 27 -14h7q3 0 8 2z" />
    <glyph glyph-name="OE" unicode="&#x152;" horiz-adv-x="846" 
d="M413 0q-55 0 -95 2t-71 9.5t-56.5 21.5t-50.5 39q-95 92 -95 277q0 143 70 237q32 43 76 66.5t93 33.5q20 4 49.5 6.5t77.5 2.5h397l-18 -114h-237v-161h198v-114h-198v-186h268v-120h-408zM421 566q-6 2 -28 6t-47 4q-69 0 -101.5 -51.5t-32.5 -162.5q0 -61 7 -110.5
t28 -84.5q17 -29 43 -43.5t67 -14.5q22 0 40.5 4t23.5 6v447z" />
    <glyph glyph-name="oe" unicode="&#x153;" horiz-adv-x="812" 
d="M486 213v-4q0 -60 28 -92t80 -32q68 0 130 51l52 -80q-87 -71 -193 -71q-98 0 -161 57q-28 -25 -64.5 -39t-87.5 -14q-52 0 -94.5 19t-72.5 53.5t-46.5 83.5t-16.5 109t16.5 109.5t46.5 85t72.5 54.5t94.5 19q91 0 150 -53q57 53 146 53q45 0 84 -14t64 -40
q35 -36 51.5 -89.5t16.5 -134.5v-31h-296zM357 259q0 102 -27 137q-21 27 -58 27q-24 0 -42.5 -14t-26.5 -38q-7 -20 -10.5 -48t-3.5 -66q0 -89 17 -129q9 -21 28.5 -31.5t39.5 -10.5q44 0 63.5 41t19.5 132zM643 311q0 33 -3.5 51t-12.5 32q-20 30 -59 30q-38 0 -59 -29
t-21 -84h155z" />
    <glyph glyph-name="Scaron" unicode="&#x160;" horiz-adv-x="594" 
d="M559 219q0 -53 -20.5 -96t-58 -74t-90.5 -47.5t-118 -16.5q-60 0 -122 16.5t-115 46.5l52 109q49 -26 93.5 -41t97.5 -15q122 0 122 95q0 65 -91 90l-77 21q-52 14 -85 35t-52 53q-29 47 -29 106q0 48 18 87.5t51 68t79 44t101 15.5q64 0 125 -18.5t107 -51.5l-66 -100
q-48 29 -85.5 41t-76.5 12q-43 0 -70 -22.5t-27 -57.5q0 -27 16.5 -42.5t60.5 -27.5l84 -23q86 -23 131 -76t45 -131zM306 734l-184 135l45 73l139 -76l135 76l45 -73z" />
    <glyph glyph-name="scaron" unicode="&#x161;" horiz-adv-x="491" 
d="M456 162q0 -40 -16 -72.5t-44.5 -56t-69 -36.5t-89.5 -13q-94 0 -207 59l48 98q15 -9 35.5 -19.5t43 -19t46 -14t45.5 -5.5q29 0 48.5 16.5t19.5 41.5q0 26 -19 40.5t-60 22.5l-60 11q-26 5 -53 20t-41 32t-21.5 42t-7.5 50q0 37 14 68t40 53t62.5 34t81.5 12
q62 0 105 -15.5t78 -32.5l-44 -90q-38 20 -67.5 28.5t-58.5 8.5t-47 -13.5t-18 -36.5q0 -20 14.5 -31.5t49.5 -20.5l62 -16q24 -6 40 -12.5t27.5 -14t19.5 -15t15 -16.5q28 -35 28 -87zM243 554l-184 135l45 73l139 -76l135 76l45 -73z" />
    <glyph glyph-name="Ydieresis" unicode="&#x178;" horiz-adv-x="544" 
d="M342 286v-286h-146v286l-216 409h168l89 -190q14 -29 21.5 -49t13.5 -40l16 38.5l21 48.5l90 192h165zM241 795q0 -32 -22.5 -54.5t-54.5 -22.5q-31 0 -53.5 22.5t-22.5 54.5t23 54.5t55 22.5q31 0 53 -22.5t22 -54.5zM451 795q0 -32 -22.5 -54.5t-54.5 -22.5
q-31 0 -53.5 22.5t-22.5 54.5t23 54.5t55 22.5q31 0 53 -22.5t22 -54.5z" />
    <glyph glyph-name="Zcaron" unicode="&#x17d;" horiz-adv-x="540" 
d="M469 0h-434v98l256 423q13 21 26 39.5t17 23.5q-5 -1 -24 -3t-47 -2h-214l31 116h416v-101l-258 -435q-10 -17 -21.5 -31t-14.5 -18q6 1 28 2.5t41 1.5h234zM270 734l-184 135l45 73l139 -76l135 76l45 -73z" />
    <glyph glyph-name="zcaron" unicode="&#x17e;" horiz-adv-x="479" 
d="M412 0h-377v83l241 335h-221v94h380v-92l-226 -327h235zM245 554l-184 135l45 73l139 -76l135 76l45 -73z" />
    <glyph glyph-name="longs" unicode="&#x17f;" horiz-adv-x="367" 
d="M304 741q32 0 62.5 -10.5t51.5 -20.5l-55 -92q-14 8 -27.5 14t-32.5 6q-26 0 -45 -16.5t-24 -42.5q-2 -11 -2.5 -26.5t-0.5 -43.5v-509h-136v408h-82v104h82v32q0 22 1.5 41t6.5 36t15 32.5t27 31.5q42 39 104 51q13 2 26.5 3.5t28.5 1.5z" />
    <glyph glyph-name="florin" unicode="&#x192;" horiz-adv-x="322" 
d="M344 626q-20 11 -29.5 14t-21.5 3q-23 0 -39 -15t-18 -43l-5 -73h118l-32 -94h-90l-27 -384q-5 -63 -13 -100.5t-24 -62.5t-42 -44.5t-66 -46.5l-62 91q24 18 39 32t24.5 28.5t14 33t6.5 45.5l27 408h-43v94h52q0 17 1 35l2 35q5 76 46 117.5t115 41.5q32 0 60.5 -10
t47.5 -22z" />
    <glyph glyph-name="uni02BB" unicode="&#x2bb;" horiz-adv-x="269" 
d="M234 661q-33 -8 -52.5 -23t-19.5 -34q0 -10 5.5 -17t20.5 -15q39 -22 39 -70q0 -36 -25.5 -61t-61.5 -25q-44 0 -72 34t-28 86q0 33 10 62t29 53t44.5 41t57.5 25z" />
    <glyph glyph-name="afii57929" unicode="&#x2bc;" horiz-adv-x="269" 
d="M229 591q0 -32 -10 -61.5t-29 -53t-45 -40.5t-57 -25l-53 55q32 8 52 23.5t20 33.5q0 10 -5.5 16.5t-20.5 15.5q-39 23 -39 70q0 36 25 61t62 25q44 0 72 -33.5t28 -86.5z" />
    <glyph glyph-name="circumflex" unicode="&#x2c6;" horiz-adv-x="414" 
d="M344 552l-139 76l-135 -76l-45 73l180 135l184 -135z" />
    <glyph glyph-name="caron" unicode="&#x2c7;" horiz-adv-x="414" 
d="M209 554l-184 135l45 73l139 -76l135 76l45 -73z" />
    <glyph glyph-name="breve" unicode="&#x2d8;" horiz-adv-x="391" 
d="M366 693q-5 -7 -21.5 -26t-39.5 -38.5t-51.5 -35t-57.5 -15.5t-57.5 15.5t-52 35t-40 38.5t-21.5 26l36 44l20.5 -17t32 -21.5t40.5 -18.5t46 -8q20 0 41.5 8.5t40 19.5t33 21.5t20.5 15.5z" />
    <glyph glyph-name="dotaccent" unicode="&#x2d9;" horiz-adv-x="215" 
d="M190 653q0 -35 -24 -59t-59 -24q-34 0 -58 24t-24 59t24.5 59t59.5 24q34 0 57.5 -24t23.5 -59z" />
    <glyph glyph-name="ring" unicode="&#x2da;" horiz-adv-x="260" 
d="M235 659q0 -22 -8.5 -41t-23 -33.5t-33.5 -23t-41 -8.5q-21 0 -40 8.5t-33.5 23t-22.5 33.5t-8 41t8.5 41t23 33.5t34 23t40.5 8.5t40 -8.5t33.5 -23t22.5 -33.5t8 -41zM180 659q0 21 -14.5 36t-34.5 15q-22 0 -37 -15t-15 -36t15 -36t35 -15q21 0 36 15t15 36z" />
    <glyph glyph-name="ogonek" unicode="&#x2db;" horiz-adv-x="306" 
d="M251 -175q-15 -8 -39.5 -16t-47.5 -8q-53 0 -81 25.5t-28 62.5q0 27 9 50t21.5 41t24.5 29.5t18 16.5l71 -40q-18 -17 -36 -38.5t-18 -48.5q0 -11 6.5 -18.5t17.5 -7.5q17 0 28.5 5l23.5 10z" />
    <glyph glyph-name="tilde" unicode="&#x2dc;" horiz-adv-x="414" 
d="M389 639q-23 -29 -51 -43.5t-73 -14.5q-23 0 -38 5.5t-28.5 11.5t-28 11.5t-36.5 5.5q-41 0 -68 -29l-41 75q21 26 51.5 42t72.5 16q22 0 37 -5.5t28.5 -11.5t28.5 -11.5t37 -5.5q41 0 68 30z" />
    <glyph glyph-name="hungarumlaut" unicode="&#x2dd;" horiz-adv-x="471" 
d="M103 524l-78 34l83 229l111 -46zM299 527l-72 46l117 213l102 -63z" />
    <glyph glyph-name="gravecomb" unicode="&#x300;" 
d="M322 557l-224 100l58 104l207 -130z" />
    <glyph glyph-name="acutecomb" unicode="&#x301;" 
d="M193 557l-41 74l207 130l58 -104z" />
    <glyph glyph-name="uni0302" unicode="&#x302;" 
d="M409 552l-139 76l-135 -76l-45 73l180 135l184 -135z" />
    <glyph glyph-name="tildecomb" unicode="&#x303;" 
d="M452 639q-23 -29 -51 -43.5t-73 -14.5q-23 0 -38 5.5t-28.5 11.5t-28 11.5t-36.5 5.5q-41 0 -68 -29l-41 75q21 26 51.5 42t72.5 16q22 0 37 -5.5t28.5 -11.5t28.5 -11.5t37 -5.5q41 0 68 30z" />
    <glyph glyph-name="uni0304" unicode="&#x304;" 
d="M25 558v78h314v-78h-314z" />
    <glyph glyph-name="uni0306" unicode="&#x306;" 
d="M366 669q-5 -7 -21.5 -26t-39.5 -38.5t-51.5 -35t-57.5 -15.5t-57.5 15.5t-52 35t-40 38.5t-21.5 26l36 44l20.5 -17t32 -21.5t40.5 -18.5t46 -8q20 0 41.5 8.5t40 19.5t33 21.5t20.5 15.5z" />
    <glyph glyph-name="uni0307" unicode="&#x307;" 
d="M190 653q0 -35 -24 -59t-59 -24q-34 0 -58 24t-24 59t24.5 59t59.5 24q34 0 57.5 -24t23.5 -59z" />
    <glyph glyph-name="uni0308" unicode="&#x308;" 
d="M453 635q0 -32 -22.5 -54.5t-54.5 -22.5t-54 22.5t-22 54.5q0 16 6 30t16.5 24.5t25 16.5t30.5 6q31 0 53 -22.5t22 -54.5zM242 635q0 -32 -22.5 -54.5t-54.5 -22.5q-31 0 -53.5 22.5t-22.5 54.5t23 54.5t55 22.5q31 0 53 -22.5t22 -54.5z" />
    <glyph glyph-name="uni030A" unicode="&#x30a;" 
d="M366 659q0 -22 -8.5 -41t-23 -33.5t-33.5 -23t-41 -8.5q-21 0 -40 8.5t-33.5 23t-22.5 33.5t-8 41t8.5 41t23 33.5t34 23t40.5 8.5t40 -8.5t33.5 -23t22.5 -33.5t8 -41zM311 659q0 21 -14.5 36t-34.5 15q-22 0 -37 -15t-15 -36t15 -36t35 -15q21 0 36 15t15 36z" />
    <glyph glyph-name="uni030B" unicode="&#x30b;" 
d="M103 557l-78 34l83 229l111 -46zM299 560l-72 46l117 213l102 -63z" />
    <glyph glyph-name="uni030C" unicode="&#x30c;" 
d="M245 554l-184 135l45 73l139 -76l135 76l45 -73z" />
    <glyph glyph-name="uni0312" unicode="&#x312;" 
d="M57 667q0 27 9 50.5t26 43.5q13 16 37 32t53 24l43 -46q-28 -8 -44 -23.5t-16 -32.5q0 -8 6.5 -10t15.5 -8q33 -20 33 -58q0 -29 -21.5 -49t-53.5 -20q-41 0 -64.5 26t-23.5 71z" />
    <glyph glyph-name="uni0313" unicode="&#x313;" 
d="M168 606q0 -53 -35 -94q-13 -16 -37 -32t-53 -24l-43 46q28 8 44 23.5t16 32.5q0 8 -6.5 10t-15.5 8q-33 19 -33 58q0 29 21.5 49t53.5 20q41 0 64.5 -26t23.5 -71z" />
    <glyph glyph-name="uni0326" unicode="&#x326;" 
d="M225 -141q0 -53 -35 -94q-13 -16 -37 -32t-53 -24l-43 46q28 8 44 23.5t16 31.5q0 9 -6.5 11t-15.5 8q-33 19 -33 58q0 29 21.5 49t53.5 20q41 0 64.5 -26t23.5 -71z" />
    <glyph glyph-name="uni0327" unicode="&#x327;" 
d="M251 -111q0 -37 -28 -62.5t-81 -25.5q-23 0 -47.5 8t-39.5 16l30 63l23.5 -10t28.5 -5q11 0 18 6t7 12q0 8 -5.5 14t-19.5 6q-8 0 -14 -2t-13 -4l-13 20l24 87l72 -6l-14 -38q38 -4 55 -27t17 -52z" />
    <glyph glyph-name="uni0328" unicode="&#x328;" 
d="M251 -175q-15 -8 -39.5 -16t-47.5 -8q-53 0 -81 25.5t-28 62.5q0 27 9 50t21.5 41t24.5 29.5t18 16.5l71 -40q-18 -17 -36 -38.5t-18 -48.5q0 -11 6.5 -18.5t17.5 -7.5q17 0 28.5 5l23.5 10z" />
    <glyph glyph-name="uni037E" unicode="&#x37e;" horiz-adv-x="324" 
d="M259 35q0 -32 -10.5 -61t-29.5 -53t-45 -41.5t-57 -24.5l-52 56q32 8 51.5 23.5t19.5 33.5q0 9 -4.5 15.5t-18.5 14.5q-23 14 -32.5 30.5t-9.5 39.5q0 38 25 63t63 25q44 0 72 -34t28 -87zM246 369q0 -18 -6.5 -33.5t-18 -27t-27 -18.5t-33.5 -7t-34 6.5t-27.5 18
t-18.5 27t-7 33.5t6.5 34t18 28t26.5 19t33 7q36 0 62 -25.5t26 -61.5z" />
    <glyph glyph-name="uni0394" unicode="&#x394;" horiz-adv-x="599" 
d="M558 0h-533v106l215 591h124l215 -599zM339 370q-3 8 -8.5 27.5l-12 41.5t-11.5 42q-5 17 -6 26q-2 -9 -7 -26q-5 -20 -11.5 -41.5t-13.5 -41.5l-9 -28l-89 -250h253z" />
    <glyph glyph-name="uni03A9" unicode="&#x3a9;" horiz-adv-x="716" 
d="M667 366q0 -36 -11 -73t-28.5 -70.5t-40 -61.5t-45.5 -47h119l-25 -114h-250v100q27 25 49.5 59t38.5 71t25 74t9 70q0 37 -5.5 76t-21.5 71.5t-45.5 53.5t-77.5 21t-77.5 -21.5t-46.5 -54.5t-23 -73t-6 -77q0 -33 8.5 -69.5t24.5 -72.5t38.5 -69t50.5 -59v-100h-272
l25 114h91q-24 19 -46 48t-39 62.5t-27 70t-10 71.5q0 72 20 133.5t59.5 107t97.5 71.5t134 26q69 0 125.5 -22.5t97 -66t62.5 -106.5t22 -143z" />
    <glyph glyph-name="uni03BC" unicode="&#x3bc;" horiz-adv-x="546" 
d="M407 -14q-27 19 -40 50q-25 -24 -59.5 -36.5t-75.5 -12.5q-8 0 -17.5 3.5t-17.5 10.5q0 -3 1 -13t1 -18v-156l-129 -34v720l132 25v-329q0 -35 3 -54t8 -30t18.5 -17.5t28.5 -6.5q25 0 50 15t33 34v360l128 27v-391q0 -26 8 -50.5t23 -42.5z" />
    <glyph glyph-name="pi" unicode="&#x3c0;" horiz-adv-x="559" 
d="M507 416h-40v-260q0 -21 1.5 -34.5t7 -23.5t16 -19.5t28.5 -22.5l-71 -82q-54 20 -84 61t-30 99v282h-126v-416h-134v416h-55v96h522z" />
    <glyph glyph-name="uni2007" unicode="&#x2007;" horiz-adv-x="570" 
 />
    <glyph glyph-name="uni2008" unicode="&#x2008;" horiz-adv-x="286" 
 />
    <glyph glyph-name="uni200B" unicode="&#x200b;" horiz-adv-x="0" 
 />
    <glyph glyph-name="uniFEFF" unicode="&#xfeff;" horiz-adv-x="0" 
 />
    <glyph glyph-name="endash" unicode="&#x2013;" horiz-adv-x="577" 
d="M45 223v103h487v-103h-487z" />
    <glyph glyph-name="emdash" unicode="&#x2014;" horiz-adv-x="803" 
d="M45 223v103h713v-103h-713z" />
    <glyph glyph-name="quoteleft" unicode="&#x2018;" horiz-adv-x="269" 
d="M234 661q-33 -8 -52.5 -23t-19.5 -34q0 -10 5.5 -17t20.5 -15q39 -22 39 -70q0 -36 -25.5 -61t-61.5 -25q-44 0 -72 34t-28 86q0 33 10 62t29 53t44.5 41t57.5 25z" />
    <glyph glyph-name="quoteright" unicode="&#x2019;" horiz-adv-x="269" 
d="M229 591q0 -32 -10 -61.5t-29 -53t-45 -40.5t-57 -25l-53 55q32 8 52 23.5t20 33.5q0 10 -5.5 16.5t-20.5 15.5q-39 23 -39 70q0 36 25 61t62 25q44 0 72 -33.5t28 -86.5z" />
    <glyph glyph-name="quotesinglbase" unicode="&#x201a;" horiz-adv-x="269" 
d="M229 36q0 -33 -10 -62t-29 -53t-45 -41t-57 -25l-53 56q33 8 52.5 23.5t19.5 33.5q0 10 -5.5 16.5t-20.5 15.5q-39 23 -39 70q0 36 25.5 61t61.5 25q44 0 72 -33.5t28 -86.5z" />
    <glyph glyph-name="quotedblleft" unicode="&#x201c;" horiz-adv-x="494" 
d="M234 662q-33 -8 -52.5 -23t-19.5 -34q0 -10 5.5 -16.5t20.5 -15.5q39 -23 39 -70q0 -36 -25.5 -61t-62.5 -25q-43 0 -71 33.5t-28 86.5q0 33 10 62t29 53t44.5 41t57.5 25zM459 662q-32 -8 -51.5 -23t-19.5 -34q0 -10 5 -16t21 -16q39 -24 39 -70q0 -36 -25.5 -61
t-62.5 -25q-44 0 -71.5 33.5t-27.5 86.5q0 66 38.5 115.5t101.5 65.5z" />
    <glyph glyph-name="quotedblright" unicode="&#x201d;" horiz-adv-x="494" 
d="M229 591q0 -32 -10 -61.5t-29 -53t-45 -40.5t-57 -25l-53 55q32 8 52 23.5t20 33.5q0 10 -5.5 16.5t-20.5 15.5q-39 23 -39 70q0 36 25 61t62 25q44 0 72 -33.5t28 -86.5zM454 591q0 -32 -10 -61.5t-28.5 -53t-44.5 -40.5t-57 -25l-53 55q32 8 51.5 23.5t19.5 33.5
q0 10 -5 16.5t-20 15.5q-39 23 -39 70q0 36 25 61t62 25q44 0 71.5 -33.5t27.5 -86.5z" />
    <glyph glyph-name="quotedblbase" unicode="&#x201e;" horiz-adv-x="495" 
d="M455 36q0 -33 -10 -62t-29 -53t-45 -41t-57 -25l-53 56q32 8 51.5 23.5t19.5 33.5q0 10 -5 16.5t-20 15.5q-39 23 -39 70q0 36 25 61t62 25q44 0 72 -33.5t28 -86.5zM229 36q0 -33 -10 -62t-29 -53t-45 -41t-57 -25l-53 56q33 8 52.5 23.5t19.5 33.5q0 10 -5.5 16.5
t-20.5 15.5q-39 23 -39 70q0 36 25.5 61t61.5 25q44 0 72 -33.5t28 -86.5z" />
    <glyph glyph-name="dagger" unicode="&#x2020;" horiz-adv-x="494" 
d="M446 424h-139v-424h-132v424h-150v121h150v150h132v-150h162z" />
    <glyph glyph-name="daggerdbl" unicode="&#x2021;" horiz-adv-x="506" 
d="M187 424h-150v121h150v150h132v-150h162l-23 -121h-139v-153h162l-23 -121h-139v-150h-132v150h-150v121h150v153z" />
    <glyph glyph-name="bullet" unicode="&#x2022;" horiz-adv-x="484" 
d="M419 354q0 -37 -14 -69t-38 -56t-56 -38t-69 -14t-69 14t-56 38t-38 56t-14 69t14 69t38 56t56 38t69 14t69 -14t56 -38t38 -56t14 -69z" />
    <glyph glyph-name="ellipsis" unicode="&#x2026;" horiz-adv-x="786" 
d="M731 73q0 -18 -7 -34.5t-19 -28.5t-28 -19t-34 -7q-37 0 -62.5 26t-25.5 63q0 36 25.5 61.5t61.5 25.5q37 0 63 -25.5t26 -61.5zM481 73q0 -18 -7 -34.5t-19 -28.5t-28 -19t-34 -7q-37 0 -62.5 26t-25.5 63q0 36 25.5 61.5t61.5 25.5q37 0 63 -25.5t26 -61.5zM231 73
q0 -18 -7 -34.5t-19 -28.5t-28 -19t-34 -7q-37 0 -62.5 26t-25.5 63q0 36 25.5 61.5t61.5 25.5q37 0 63 -25.5t26 -61.5z" />
    <glyph glyph-name="perthousand" unicode="&#x2030;" horiz-adv-x="1220" 
d="M815 164q0 -43 -11 -73.5t-36 -54.5q-23 -22 -52 -34t-73 -12q-78 0 -123.5 46.5t-45.5 125.5q0 39 12 71t34 55t53.5 35.5t69.5 12.5q79 0 127 -48q25 -25 35 -54t10 -70zM1185 164q0 -43 -11 -73.5t-36 -54.5q-23 -22 -52 -34t-73 -12q-78 0 -123.5 46.5t-45.5 125.5
q0 39 12 71t34 55t53.5 35.5t69.5 12.5q79 0 128 -49q23 -23 33.5 -52.5t10.5 -70.5zM376 533q0 -43 -11 -73.5t-36 -54.5q-23 -22 -52 -34t-73 -12q-78 0 -123.5 46.5t-45.5 125.5q0 39 12 71t34 55t53.5 35.5t69.5 12.5q41 0 71.5 -12t53.5 -35q26 -26 36.5 -55t10.5 -70z
M291 0h-95l364 695h95zM704 166q0 60 -20 80q-16 16 -42 16q-37 0 -50 -30q-5 -13 -7 -28.5t-2 -38.5q0 -26 2 -45t9 -30t20 -18t30 -7q32 0 46 23.5t14 77.5zM1074 166q0 60 -20 80q-16 16 -42 16q-37 0 -50 -30q-5 -13 -7 -28.5t-2 -38.5q0 -26 2 -45t9 -30t20 -18t30 -7
q32 0 46 23.5t14 77.5zM265 535q0 60 -20 80q-16 16 -42 16q-37 0 -50 -30q-5 -13 -7 -28.5t-2 -38.5q0 -26 2 -45t9 -30t20 -18t30 -7q32 0 46 23.5t14 77.5z" />
    <glyph glyph-name="guilsinglleft" unicode="&#x2039;" horiz-adv-x="310" 
d="M189 15l-159 234l159 234l91 -61l-116 -173l116 -173z" />
    <glyph glyph-name="guilsinglright" unicode="&#x203a;" horiz-adv-x="310" 
d="M121 15l-91 61l116 173l-116 173l91 61l159 -234z" />
    <glyph glyph-name="fraction" unicode="&#x2044;" horiz-adv-x="266" 
d="M-77 -154h-108l528 918h108z" />
    <glyph glyph-name="uni2070" unicode="&#x2070;" horiz-adv-x="345" 
d="M325 460q0 -46 -11 -84t-31 -65.5t-48 -43t-63 -15.5q-36 0 -64.5 15t-48 42.5t-29.5 65.5t-10 83q0 46 10.5 84.5t30.5 66t48 42.5t63 15q36 0 64.5 -15t48 -42.5t30 -65.5t10.5 -83zM215 457q0 45 -4 71.5t-10.5 40.5t-14 18t-14.5 4q-28 0 -35.5 -36.5t-7.5 -93.5
q0 -45 4 -71.5t10.5 -40.5t14 -18t14.5 -4q28 0 35.5 36.5t7.5 93.5z" />
    <glyph glyph-name="uni2074" unicode="&#x2074;" horiz-adv-x="356" 
d="M299 321l-7 1q0 -2 0.5 -5t0.5 -6v-75l-96 -11v91l1 5h-178v63l109 267h105l-84 -207l-9.5 -20.5t-9.5 -17.5h69q0 38 3.5 70.5l7.5 70.5l82 18v-104q0 -14 0.5 -27.5t-0.5 -21.5l-1 -7q2 0 4.5 0.5t4.5 0.5h35v-85h-37z" />
    <glyph glyph-name="uni2075" unicode="&#x2075;" horiz-adv-x="316" 
d="M296 387q0 -35 -15 -63.5t-41.5 -48.5t-63 -31.5t-79.5 -11.5q-15 0 -24.5 0.5t-28.5 4.5l-24 79q29 -8 44 -10t27 -2q45 0 71.5 21t26.5 53q0 23 -14.5 38t-40.5 15q-17 0 -38 -3t-60 -15l20 236h226l-15 -84h-117l-7 -58q5 1 17 1q60 0 98 -33.5t38 -87.5z" />
    <glyph glyph-name="uni2076" unicode="&#x2076;" horiz-adv-x="351" 
d="M331 382q0 -30 -11.5 -55.5t-32 -44.5t-48 -29.5t-58.5 -10.5q-35 0 -64.5 13t-51 35.5t-33.5 54t-12 68.5q0 45 15 82.5t40.5 68.5t60 54.5t73.5 41.5l15.5 7t13.5 5.5t15.5 5t20.5 6.5l23 -73q-24 -9 -46 -18.5t-41.5 -21.5t-35.5 -28.5t-29 -40.5q10 4 23 7.5t25 3.5
q29 0 54.5 -10t44 -27.5t29 -41.5t10.5 -52zM227 381q0 25 -12.5 38.5t-32.5 13.5q-16 0 -29.5 -4.5t-23.5 -9.5q-1 -7 -1 -16v-15q0 -35 13.5 -52t35.5 -17t36 16t14 46z" />
    <glyph glyph-name="uni2077" unicode="&#x2077;" horiz-adv-x="341" 
d="M305 569q-17 -23 -32 -46.5t-28 -46.5l-14 -28l-21.5 -45t-22 -52t-14.5 -48l-12 -58l-110 -26q19 74 42 138.5t59 131.5q14 26 24.5 42.5t20.5 30.5l-10 -1h-167l23 88h278z" />
    <glyph glyph-name="uni2078" unicode="&#x2078;" horiz-adv-x="369" 
d="M349 364q0 -43 -29 -75.5t-76 -43.5q-15 -4 -32 -5.5t-34 -1.5q-60 0 -100 23q-58 34 -58 96q0 30 16 56.5t42 41.5q-47 31 -47 86q0 53 43.5 84t110.5 31q31 0 58.5 -8t47 -22t31 -34t11.5 -45q0 -27 -16 -49.5t-43 -35.5q32 -15 53.5 -38t21.5 -60zM238 353
q0 26 -18 37q-11 7 -26 13t-35 13q-15 -9 -22.5 -23t-7.5 -30q0 -23 15 -37t43 -14q24 0 37.5 12t13.5 29zM224 549q0 14 -10.5 23.5t-34.5 9.5q-22 0 -33.5 -10t-11.5 -24q0 -19 18 -30t33 -17q14 7 26.5 19t12.5 29z" />
    <glyph glyph-name="uni2079" unicode="&#x2079;" horiz-adv-x="349" 
d="M329 490q0 -119 -102 -201q-28 -23 -63.5 -42.5t-73.5 -32.5l-59 64q25 6 49 17.5t45 25.5t37.5 29.5t26.5 30.5l-14.5 -4t-15.5 -2q-30 0 -55 10.5t-44 29t-29.5 43.5t-10.5 54q0 31 11.5 57.5t32.5 45.5t49.5 30t61.5 11q72 0 113 -44.5t41 -121.5zM222 511
q0 35 -13.5 51.5t-34.5 16.5q-20 0 -33.5 -16t-13.5 -48q0 -29 14 -45.5t37 -16.5q12 0 21 3t18 8q2 9 3.5 22.5t1.5 24.5z" />
    <glyph glyph-name="uni2080" unicode="&#x2080;" horiz-adv-x="345" 
d="M325 -50q0 -46 -11 -84t-31 -65.5t-48 -43t-63 -15.5q-36 0 -64.5 15t-48 42.5t-29.5 65.5t-10 83q0 46 10.5 84.5t30.5 66t48 42.5t63 15q36 0 64.5 -15t48 -42.5t30 -65.5t10.5 -83zM215 -53q0 45 -4 71.5t-10.5 40.5t-14 18t-14.5 4q-28 0 -35.5 -36.5t-7.5 -93.5
q0 -45 4 -71.5t10.5 -40.5t14 -18t14.5 -4q28 0 35.5 36.5t7.5 93.5z" />
    <glyph glyph-name="uni2081" unicode="&#x2081;" horiz-adv-x="294" 
d="M59 -250v81h64v208q-18 -10 -35 -18t-40 -16l-28 56l134 89h68v-319h52v-81h-215z" />
    <glyph glyph-name="uni2082" unicode="&#x2082;" horiz-adv-x="354" 
d="M311 -250h-275v67l23.5 21.5l27.5 26.5l28 27.5t24 24.5q40 41 51 67.5t11 43.5q0 26 -11 34t-28 8t-36 -9t-50 -33l-56 63q39 33 77.5 49t87.5 16q58 0 92.5 -33t34.5 -86q0 -29 -15 -57.5t-37 -55t-47.5 -50l-46.5 -42.5q9 0 18 0.5t17 0.5h133z" />
    <glyph glyph-name="uni2083" unicode="&#x2083;" horiz-adv-x="346" 
d="M326 -124q0 -33 -17 -59.5t-47 -45.5t-70.5 -29t-87.5 -10q-14 0 -24.5 0.5t-32.5 3.5l-27 74q13 -2 21.5 -3.5t15 -2.5t11.5 -1h13q62 0 96 23t34 56q0 15 -7 23.5t-17.5 12.5t-23 4.5t-24.5 0.5h-40v81q13 -2 25.5 -3t25.5 -1q32 0 44.5 11t12.5 28q0 14 -9 23.5
t-32 9.5q-28 0 -50 -10.5t-41 -25.5l-54 64q35 26 72.5 41t82.5 15q29 0 54.5 -8t44.5 -22.5t30 -34.5t11 -44q0 -53 -47 -84q27 -14 42 -36t15 -51z" />
    <glyph glyph-name="uni2084" unicode="&#x2084;" horiz-adv-x="356" 
d="M299 -179l-7 1q0 -2 0.5 -5t0.5 -6v-75l-96 -11v91l1 5h-178v63l109 267h105l-84 -207l-9.5 -20.5t-9.5 -17.5h69q0 38 3.5 70.5l7.5 70.5l82 18v-104q0 -11 0.5 -26t-0.5 -23l-1 -7q2 0 4.5 0.5t4.5 0.5h35v-85h-37z" />
    <glyph glyph-name="uni2085" unicode="&#x2085;" horiz-adv-x="316" 
d="M296 -113q0 -35 -15 -63.5t-41.5 -48.5t-63 -31.5t-79.5 -11.5q-15 0 -24.5 0.5t-28.5 4.5l-24 79q29 -8 44 -10t27 -2q45 0 71.5 21t26.5 53q0 23 -14.5 38t-40.5 15q-17 0 -38 -3t-60 -15l20 236h226l-15 -84h-117l-7 -58q5 1 17 1q60 0 98 -33.5t38 -87.5z" />
    <glyph glyph-name="uni2086" unicode="&#x2086;" horiz-adv-x="351" 
d="M331 -118q0 -30 -11.5 -55.5t-32 -44.5t-48 -29.5t-58.5 -10.5q-35 0 -64.5 13t-51 35.5t-33.5 54t-12 68.5q0 45 15 82.5t40.5 68.5t60 54.5t73.5 41.5l15.5 7t13.5 5.5t15.5 5t20.5 6.5l23 -73q-24 -9 -46 -18.5t-41.5 -21.5t-35.5 -28.5t-29 -40.5q10 4 23 7.5t25 3.5
q29 0 54.5 -10t44 -27.5t29 -41.5t10.5 -52zM227 -119q0 25 -12.5 38.5t-32.5 13.5q-16 0 -29.5 -4.5t-23.5 -9.5q-1 -7 -1 -15v-16q0 -35 13.5 -52t35.5 -17t36 16t14 46z" />
    <glyph glyph-name="uni2087" unicode="&#x2087;" horiz-adv-x="341" 
d="M305 69q-17 -23 -32 -46.5t-28 -46.5l-14 -28l-21.5 -45t-22 -52t-14.5 -48l-12 -58l-110 -26q19 74 42 138.5t59 131.5q14 26 24.5 42.5t20.5 30.5l-10 -1h-167l23 88h278z" />
    <glyph glyph-name="uni2088" unicode="&#x2088;" horiz-adv-x="369" 
d="M349 -136q0 -43 -29 -75.5t-76 -43.5q-15 -4 -32 -5.5t-34 -1.5q-60 0 -100 23q-58 34 -58 96q0 30 16 56.5t42 41.5q-47 31 -47 86q0 53 43.5 84t110.5 31q31 0 58.5 -8t47 -22t31 -34t11.5 -45q0 -27 -16 -49.5t-43 -35.5q32 -15 53.5 -38t21.5 -60zM238 -147
q0 26 -18 37q-11 7 -26 13t-35 13q-15 -9 -22.5 -23t-7.5 -30q0 -23 15 -37t43 -14q24 0 37.5 12t13.5 29zM224 49q0 14 -10.5 23.5t-34.5 9.5q-22 0 -33.5 -10t-11.5 -24q0 -19 18 -30t33 -17q14 7 26.5 19t12.5 29z" />
    <glyph glyph-name="uni2089" unicode="&#x2089;" horiz-adv-x="349" 
d="M329 -10q0 -119 -102 -201q-28 -23 -63.5 -42.5t-73.5 -32.5l-59 64q25 6 49 17.5t45 25.5t37.5 29.5t26.5 30.5l-14.5 -4t-15.5 -2q-30 0 -55 10.5t-44 29t-29.5 43.5t-10.5 54q0 31 11.5 57.5t32.5 45.5t49.5 30t61.5 11q72 0 113 -44.5t41 -121.5zM222 11
q0 35 -13.5 51.5t-34.5 16.5q-20 0 -33.5 -16t-13.5 -48q0 -29 14 -45.5t37 -16.5q12 0 21 3t18 8q2 9 3.5 22.5t1.5 24.5z" />
    <glyph glyph-name="Euro" unicode="&#x20ac;" horiz-adv-x="622" 
d="M598 33q-18 -11 -34.5 -19.5t-35.5 -14t-41 -8.5t-52 -3q-143 0 -227 96q-49 55 -70 132h-114v98h100v46q0 17 2 31h-102v98h122q11 34 25 60q41 76 111 118.5t155 42.5q52 0 87.5 -10.5t58.5 -24.5l-33 -115q-53 39 -111 39q-35 0 -67 -16t-51 -44q-8 -11 -13 -23.5
t-10 -26.5h193v-98h-208q-1 -19 -1.5 -38t1.5 -39h208v-98h-196q6 -26 16 -42q43 -78 134 -78q31 0 59.5 10t59.5 35z" />
    <glyph glyph-name="uni20B4" unicode="&#x20b4;" horiz-adv-x="622" 
d="M399 489q4 9 4 22q0 45 -26.5 68t-71.5 23q-31 0 -63.5 -9.5t-68.5 -38.5l-56 104q48 32 101 44t109 12q45 0 81 -13.5t60.5 -37t37.5 -54t13 -64.5q0 -29 -8 -56h51v-98h-117q-23 -23 -50.5 -41.5l-54.5 -35.5h222v-98h-330q-7 -15 -7 -34q0 -43 32.5 -63.5t92.5 -20.5
q48 0 85.5 15t68.5 38l36 -110q-47 -27 -97 -41.5t-113 -14.5q-48 0 -88 12.5t-69 36t-45 56t-16 71.5q0 28 8 55h-61v98h132q25 22 52.5 40.5l54.5 36.5h-239v98h340z" />
    <glyph glyph-name="afii61352" unicode="&#x2116;" horiz-adv-x="992" 
d="M407 0l-117 274l-24 53.5l-26 60.5l-25 60.5l-21 53.5q2 -27 3.5 -54t2 -51t1 -44t0.5 -33v-320h-126v695h144l130 -289l32 -71.5l22.5 -52t15.5 -40t11 -33.5l-12 191v295h126v-695h-137zM922 530q0 -27 -6.5 -57t-23 -54.5t-45 -40.5t-71.5 -16q-29 0 -55 10.5
t-45.5 31t-31 51.5t-11.5 72q0 50 15 82.5t36.5 51.5t46.5 26.5t45 7.5q24 0 53 -8t56 -39q23 -26 30 -56t7 -62zM832 531q0 51 -10.5 76.5t-42.5 25.5q-17 0 -28 -8t-17 -21.5t-8 -32.5t-2 -41q0 -56 13 -82t42 -26q10 0 19.5 3.5t17 15t12 33t4.5 57.5zM633 201v61h289
v-61h-289z" />
    <glyph glyph-name="uni2117" unicode="&#x2117;" horiz-adv-x="834" 
d="M789 354q0 -77 -29.5 -144.5t-80 -118t-118 -80t-144.5 -29.5t-144.5 29.5t-118 80t-80 118t-29.5 144.5t29.5 144.5t80 118t118 80t144.5 29.5t144.5 -29.5t118 -80t80 -118t29.5 -144.5zM687 354q0 58 -21 109.5t-58 89.5t-86 60.5t-105 22.5t-105 -22.5t-86 -60.5
t-58 -89.5t-21 -109.5t21 -109.5t58 -89.5t86 -60.5t105 -22.5t105 22.5t86 60.5t58 89.5t21 109.5zM586 431q0 -38 -18.5 -68.5t-53.5 -45.5q-14 -7 -31 -10t-49 -3h-32v-133h-97v382h110q49 0 71.5 -5.5t39.5 -14.5q60 -32 60 -102zM482 429q0 23 -11 34.5t-31 11.5h-38
v-92h30q23 0 30.5 3t12.5 11q4 6 5.5 13t1.5 19z" />
    <glyph glyph-name="trademark" unicode="&#x2122;" horiz-adv-x="1030" 
d="M857 296v268h-2l-98 -268h-70l-98 268h-2v-268h-108v412h145l98 -268l98 268h145v-412h-108zM272 612v-316h-108v316h-119v96h346v-96h-119z" />
    <glyph glyph-name="Omega" unicode="&#x2126;" horiz-adv-x="716" 
d="M667 366q0 -36 -11 -73t-28.5 -70.5t-40 -61.5t-45.5 -47h119l-25 -114h-250v100q27 25 49.5 59t38.5 71t25 74t9 70q0 37 -5.5 76t-21.5 71.5t-45.5 53.5t-77.5 21t-77.5 -21.5t-46.5 -54.5t-23 -73t-6 -77q0 -33 8.5 -69.5t24.5 -72.5t38.5 -69t50.5 -59v-100h-272
l25 114h91q-24 19 -46 48t-39 62.5t-27 70t-10 71.5q0 72 20 133.5t59.5 107t97.5 71.5t134 26q69 0 125.5 -22.5t97 -66t62.5 -106.5t22 -143z" />
    <glyph glyph-name="uni2150" unicode="&#x2150;" horiz-adv-x="931" 
d="M74 250v81h64v208q-18 -10 -37.5 -19t-37.5 -15l-28 56l134 89h68v-319h52v-81h-215zM237 -154h-108l528 918h108zM895 319q-17 -23 -32 -46.5t-28 -46.5l-14 -28l-21.5 -45t-22 -52t-14.5 -48l-12 -58l-110 -26q19 74 42 138.5t59 131.5q14 26 24.5 42.5t20.5 30.5
l-10 -1h-167l23 88h278z" />
    <glyph glyph-name="uni2151" unicode="&#x2151;" horiz-adv-x="939" 
d="M74 250v81h64v208q-18 -10 -37.5 -19t-37.5 -15l-28 56l134 89h68v-319h52v-81h-215zM247 -154h-108l528 918h108zM919 240q0 -119 -102 -201q-28 -23 -63.5 -42.5t-73.5 -32.5l-59 64q25 6 49 17.5t45 25.5t37.5 29.5t26.5 30.5l-14.5 -4t-15.5 -2q-30 0 -55 10.5
t-44 29t-29.5 43.5t-10.5 54q0 31 11.5 57.5t32.5 45.5t49.5 30t61.5 11q72 0 113 -44.5t41 -121.5zM812 261q0 35 -13.5 51.5t-34.5 16.5q-20 0 -33.5 -16t-13.5 -48q0 -29 14 -45.5t37 -16.5q12 0 21 3t18 8q2 9 3.5 22.5t1.5 24.5z" />
    <glyph glyph-name="uni2152" unicode="&#x2152;" horiz-adv-x="1229" 
d="M74 250v81h64v208q-18 -10 -37.5 -19t-37.5 -15l-28 56l134 89h68v-319h52v-81h-215zM247 -154h-108l528 918h108zM649 0v81h64v208q-20 -11 -40.5 -20t-34.5 -14l-28 56l134 89h68v-319h52v-81h-215zM1209 200q0 -46 -11 -84t-31 -65.5t-48 -43t-63 -15.5
q-36 0 -64.5 15t-48 42.5t-29.5 65.5t-10 83q0 46 10.5 84.5t30.5 66t48 42.5t63 15q36 0 64.5 -15t48 -42.5t30 -65.5t10.5 -83zM1099 197q0 45 -4 71.5t-10.5 40.5t-14 18t-14.5 4q-28 0 -35.5 -36.5t-7.5 -93.5q0 -45 4 -71.5t10.5 -40.5t14 -18t14.5 -4q28 0 35.5 36.5
t7.5 93.5z" />
    <glyph glyph-name="onethird" unicode="&#x2153;" horiz-adv-x="936" 
d="M74 250v81h64v208q-18 -10 -37.5 -19t-37.5 -15l-28 56l134 89h68v-319h52v-81h-215zM247 -154h-108l528 918h108zM916 126q0 -33 -17 -59.5t-47 -45.5t-70.5 -29t-87.5 -10q-14 0 -24.5 0.5t-32.5 3.5l-27 74q13 -2 21.5 -3.5t15 -2.5t11.5 -1h13q62 0 96 23t34 56
q0 15 -7 23.5t-17.5 12.5t-23 4.5t-24.5 0.5h-40v81q13 -2 25.5 -3t25.5 -1q32 0 44.5 11t12.5 28q0 14 -9 23.5t-32 9.5q-28 0 -50 -10.5t-41 -25.5l-54 64q35 26 72.5 41t82.5 15q29 0 54.5 -8t44.5 -22.5t30 -34.5t11 -44q0 -53 -47 -84q27 -14 42 -36t15 -51z" />
    <glyph glyph-name="twothirds" unicode="&#x2154;" horiz-adv-x="996" 
d="M326 250h-275v67l23.5 21.5l27.5 26.5l28 27.5t24 24.5q40 41 51 67.5t11 43.5q0 26 -11 34t-28 8t-36 -9t-50 -33l-56 63q39 33 77.5 49t87.5 16q58 0 92.5 -33t34.5 -86q0 -29 -15 -57.5t-37 -55t-47.5 -50l-46.5 -42.5q9 0 18 0.5t17 0.5h133zM297 -154h-108l528 918
h108zM976 126q0 -33 -17 -59.5t-47 -45.5t-70.5 -29t-87.5 -10q-14 0 -24.5 0.5t-32.5 3.5l-27 74q13 -2 21.5 -3.5t15 -2.5t11.5 -1h13q62 0 96 23t34 56q0 15 -7 23.5t-17.5 12.5t-23 4.5t-24.5 0.5h-40v81q13 -2 25.5 -3t25.5 -1q32 0 44.5 11t12.5 28q0 14 -9 23.5
t-32 9.5q-28 0 -50 -10.5t-41 -25.5l-54 64q35 26 72.5 41t82.5 15q29 0 54.5 -8t44.5 -22.5t30 -34.5t11 -44q0 -53 -47 -84q27 -14 42 -36t15 -51z" />
    <glyph glyph-name="uni2155" unicode="&#x2155;" horiz-adv-x="906" 
d="M74 250v81h64v208q-18 -10 -37.5 -19t-37.5 -15l-28 56l134 89h68v-319h52v-81h-215zM247 -154h-108l528 918h108zM886 137q0 -35 -15 -63.5t-41.5 -48.5t-63 -31.5t-79.5 -11.5q-15 0 -24.5 0.5t-28.5 4.5l-24 79q29 -8 44 -10t27 -2q45 0 71.5 21t26.5 53
q0 23 -14.5 38t-40.5 15q-17 0 -38 -3t-60 -15l20 236h226l-15 -84h-117l-7 -58q5 1 17 1q60 0 98 -33.5t38 -87.5z" />
    <glyph glyph-name="uni2156" unicode="&#x2156;" horiz-adv-x="966" 
d="M326 250h-275v67l23.5 21.5l27.5 26.5l28 27.5t24 24.5q40 41 51 67.5t11 43.5q0 26 -11 34t-28 8t-36 -9t-50 -33l-56 63q39 33 77.5 49t87.5 16q58 0 92.5 -33t34.5 -86q0 -29 -15 -57.5t-37 -55t-47.5 -50l-46.5 -42.5q9 0 18 0.5t17 0.5h133zM307 -154h-108l528 918
h108zM946 137q0 -35 -15 -63.5t-41.5 -48.5t-63 -31.5t-79.5 -11.5q-15 0 -24.5 0.5t-28.5 4.5l-24 79q29 -8 44 -10t27 -2q45 0 71.5 21t26.5 53q0 23 -14.5 38t-40.5 15q-17 0 -38 -3t-60 -15l20 236h226l-15 -84h-117l-7 -58q5 1 17 1q60 0 98 -33.5t38 -87.5z" />
    <glyph glyph-name="uni2157" unicode="&#x2157;" horiz-adv-x="958" 
d="M341 386q0 -33 -17 -59.5t-47 -45.5t-70.5 -29t-87.5 -10q-14 0 -24.5 0.5t-32.5 3.5l-27 74q13 -2 21.5 -3.5t15 -2.5t11.5 -1h13q62 0 96 23t34 56q0 15 -7 23.5t-17.5 12.5t-23 4.5t-24.5 0.5h-40v81q13 -2 25.5 -3t25.5 -1q32 0 44.5 11t12.5 28q0 14 -9 23.5
t-32 9.5q-28 0 -50 -10.5t-41 -25.5l-54 64q35 26 72.5 41t82.5 15q29 0 54.5 -8t44.5 -22.5t30 -34.5t11 -44q0 -53 -47 -84q27 -14 42 -36t15 -51zM289 -154h-108l528 918h108zM938 137q0 -35 -15 -63.5t-41.5 -48.5t-63 -31.5t-79.5 -11.5q-15 0 -24.5 0.5t-28.5 4.5
l-24 79q29 -8 44 -10t27 -2q45 0 71.5 21t26.5 53q0 23 -14.5 38t-40.5 15q-17 0 -38 -3t-60 -15l20 236h226l-15 -84h-117l-7 -58q5 1 17 1q60 0 98 -33.5t38 -87.5z" />
    <glyph glyph-name="uni2158" unicode="&#x2158;" horiz-adv-x="938" 
d="M299 321l-7 1q0 -2 0.5 -5t0.5 -6v-75l-96 -11v91l1 5h-178v63l109 267h105l-84 -207l-9.5 -20.5t-9.5 -17.5h69q0 38 3.5 70.5l7.5 70.5l82 18v-104q0 -14 0.5 -27.5t-0.5 -21.5l-1 -7q2 0 4.5 0.5t4.5 0.5h35v-85h-37zM279 -154h-108l528 918h108zM918 137
q0 -35 -15 -63.5t-41.5 -48.5t-63 -31.5t-79.5 -11.5q-15 0 -24.5 0.5t-28.5 4.5l-24 79q29 -8 44 -10t27 -2q45 0 71.5 21t26.5 53q0 23 -14.5 38t-40.5 15q-17 0 -38 -3t-60 -15l20 236h226l-15 -84h-117l-7 -58q5 1 17 1q60 0 98 -33.5t38 -87.5z" />
    <glyph glyph-name="uni2159" unicode="&#x2159;" horiz-adv-x="941" 
d="M74 250v81h64v208q-18 -10 -37.5 -19t-37.5 -15l-28 56l134 89h68v-319h52v-81h-215zM257 -154h-108l528 918h108zM921 132q0 -30 -11.5 -55.5t-32 -44.5t-48 -29.5t-58.5 -10.5q-35 0 -64.5 13t-51 35.5t-33.5 54t-12 68.5q0 45 15 82.5t40.5 68.5t60 54.5t73.5 41.5
l15.5 7t13.5 5.5t15.5 5t20.5 6.5l23 -73q-24 -9 -46 -18.5t-41.5 -21.5t-35.5 -28.5t-29 -40.5q10 4 23 7.5t25 3.5q29 0 54.5 -10t44 -27.5t29 -41.5t10.5 -52zM817 131q0 25 -12.5 38.5t-32.5 13.5q-16 0 -29.5 -4.5t-23.5 -9.5q-1 -7 -1 -16v-15q0 -35 13.5 -52
t35.5 -17t36 16t14 46z" />
    <glyph glyph-name="uni215A" unicode="&#x215a;" horiz-adv-x="933" 
d="M296 387q0 -35 -15 -63.5t-41.5 -48.5t-63 -31.5t-79.5 -11.5q-15 0 -24.5 0.5t-28.5 4.5l-24 79q29 -8 44 -10t27 -2q45 0 71.5 21t26.5 53q0 23 -14.5 38t-40.5 15q-17 0 -38 -3t-60 -15l20 236h226l-15 -84h-117l-7 -58q5 1 17 1q60 0 98 -33.5t38 -87.5zM249 -154
h-108l528 918h108zM913 132q0 -30 -11.5 -55.5t-32 -44.5t-48 -29.5t-58.5 -10.5q-35 0 -64.5 13t-51 35.5t-33.5 54t-12 68.5q0 45 15 82.5t40.5 68.5t60 54.5t73.5 41.5l15.5 7t13.5 5.5t15.5 5t20.5 6.5l23 -73q-24 -9 -46 -18.5t-41.5 -21.5t-35.5 -28.5t-29 -40.5
q10 4 23 7.5t25 3.5q29 0 54.5 -10t44 -27.5t29 -41.5t10.5 -52zM809 131q0 25 -12.5 38.5t-32.5 13.5q-16 0 -29.5 -4.5t-23.5 -9.5q-1 -7 -1 -16v-15q0 -35 13.5 -52t35.5 -17t36 16t14 46z" />
    <glyph glyph-name="oneeighth" unicode="&#x215b;" horiz-adv-x="959" 
d="M74 250v81h64v208q-18 -10 -37.5 -19t-37.5 -15l-28 56l134 89h68v-319h52v-81h-215zM257 -154h-108l528 918h108zM939 114q0 -43 -29 -75.5t-76 -43.5q-15 -4 -32 -5.5t-34 -1.5q-60 0 -100 23q-58 34 -58 96q0 30 16 56.5t42 41.5q-47 31 -47 86q0 53 43.5 84t110.5 31
q31 0 58.5 -8t47 -22t31 -34t11.5 -45q0 -27 -16 -49.5t-43 -35.5q32 -15 53.5 -38t21.5 -60zM828 103q0 26 -18 37q-11 7 -26 13t-35 13q-15 -9 -22.5 -23t-7.5 -30q0 -23 15 -37t43 -14q24 0 37.5 12t13.5 29zM814 299q0 14 -10.5 23.5t-34.5 9.5q-22 0 -33.5 -10
t-11.5 -24q0 -19 18 -30t33 -17q14 7 26.5 19t12.5 29z" />
    <glyph glyph-name="threeeighths" unicode="&#x215c;" horiz-adv-x="1011" 
d="M341 386q0 -33 -17 -59.5t-47 -45.5t-70.5 -29t-87.5 -10q-14 0 -24.5 0.5t-32.5 3.5l-27 74q13 -2 21.5 -3.5t15 -2.5t11.5 -1h13q62 0 96 23t34 56q0 15 -7 23.5t-17.5 12.5t-23 4.5t-24.5 0.5h-40v81q13 -2 25.5 -3t25.5 -1q32 0 44.5 11t12.5 28q0 14 -9 23.5
t-32 9.5q-28 0 -50 -10.5t-41 -25.5l-54 64q35 26 72.5 41t82.5 15q29 0 54.5 -8t44.5 -22.5t30 -34.5t11 -44q0 -53 -47 -84q27 -14 42 -36t15 -51zM279 -154h-108l528 918h108zM991 114q0 -43 -29 -75.5t-76 -43.5q-15 -4 -32 -5.5t-34 -1.5q-60 0 -100 23q-58 34 -58 96
q0 30 16 56.5t42 41.5q-47 31 -47 86q0 53 43.5 84t110.5 31q31 0 58.5 -8t47 -22t31 -34t11.5 -45q0 -27 -16 -49.5t-43 -35.5q32 -15 53.5 -38t21.5 -60zM880 103q0 26 -18 37q-11 7 -26 13t-35 13q-15 -9 -22.5 -23t-7.5 -30q0 -23 15 -37t43 -14q24 0 37.5 12t13.5 29z
M866 299q0 14 -10.5 23.5t-34.5 9.5q-22 0 -33.5 -10t-11.5 -24q0 -19 18 -30t33 -17q14 7 26.5 19t12.5 29z" />
    <glyph glyph-name="fiveeighths" unicode="&#x215d;" horiz-adv-x="951" 
d="M296 387q0 -35 -15 -63.5t-41.5 -48.5t-63 -31.5t-79.5 -11.5q-15 0 -24.5 0.5t-28.5 4.5l-24 79q29 -8 44 -10t27 -2q45 0 71.5 21t26.5 53q0 23 -14.5 38t-40.5 15q-17 0 -38 -3t-60 -15l20 236h226l-15 -84h-117l-7 -58q5 1 17 1q60 0 98 -33.5t38 -87.5zM239 -154
h-108l528 918h108zM931 114q0 -43 -29 -75.5t-76 -43.5q-15 -4 -32 -5.5t-34 -1.5q-60 0 -100 23q-58 34 -58 96q0 30 16 56.5t42 41.5q-47 31 -47 86q0 53 43.5 84t110.5 31q31 0 58.5 -8t47 -22t31 -34t11.5 -45q0 -27 -16 -49.5t-43 -35.5q32 -15 53.5 -38t21.5 -60z
M820 103q0 26 -18 37q-11 7 -26 13t-35 13q-15 -9 -22.5 -23t-7.5 -30q0 -23 15 -37t43 -14q24 0 37.5 12t13.5 29zM806 299q0 14 -10.5 23.5t-34.5 9.5q-22 0 -33.5 -10t-11.5 -24q0 -19 18 -30t33 -17q14 7 26.5 19t12.5 29z" />
    <glyph glyph-name="seveneighths" unicode="&#x215e;" horiz-adv-x="976" 
d="M305 569q-17 -23 -32 -46.5t-28 -46.5l-14 -28l-21.5 -45t-22 -52t-14.5 -48l-12 -58l-110 -26q19 74 42 138.5t59 131.5q14 26 24.5 42.5t20.5 30.5l-10 -1h-167l23 88h278zM204 -154h-108l528 918h108zM956 114q0 -43 -29 -75.5t-76 -43.5q-15 -4 -32 -5.5t-34 -1.5
q-60 0 -100 23q-58 34 -58 96q0 30 16 56.5t42 41.5q-47 31 -47 86q0 53 43.5 84t110.5 31q31 0 58.5 -8t47 -22t31 -34t11.5 -45q0 -27 -16 -49.5t-43 -35.5q32 -15 53.5 -38t21.5 -60zM845 103q0 26 -18 37q-11 7 -26 13t-35 13q-15 -9 -22.5 -23t-7.5 -30q0 -23 15 -37
t43 -14q24 0 37.5 12t13.5 29zM831 299q0 14 -10.5 23.5t-34.5 9.5q-22 0 -33.5 -10t-11.5 -24q0 -19 18 -30t33 -17q14 7 26.5 19t12.5 29z" />
    <glyph glyph-name="uni215F" unicode="&#x215f;" horiz-adv-x="590" 
d="M74 250v81h64v208q-18 -10 -37.5 -19t-37.5 -15l-28 56l134 89h68v-319h52v-81h-215zM247 -154h-108l528 918h108z" />
    <glyph glyph-name="uni2189" unicode="&#x2189;" horiz-adv-x="957" 
d="M325 460q0 -46 -11 -84t-31 -65.5t-48 -43t-63 -15.5q-36 0 -64.5 15t-48 42.5t-29.5 65.5t-10 83q0 46 10.5 84.5t30.5 66t48 42.5t63 15q36 0 64.5 -15t48 -42.5t30 -65.5t10.5 -83zM215 457q0 45 -4 71.5t-10.5 40.5t-14 18t-14.5 4q-28 0 -35.5 -36.5t-7.5 -93.5
q0 -45 4 -71.5t10.5 -40.5t14 -18t14.5 -4q28 0 35.5 36.5t7.5 93.5zM248 -154h-108l528 918h108zM937 126q0 -33 -17 -59.5t-47 -45.5t-70.5 -29t-87.5 -10q-14 0 -24.5 0.5t-32.5 3.5l-27 74q13 -2 21.5 -3.5t15 -2.5t11.5 -1h13q62 0 96 23t34 56q0 15 -7 23.5
t-17.5 12.5t-23 4.5t-24.5 0.5h-40v81q13 -2 25.5 -3t25.5 -1q32 0 44.5 11t12.5 28q0 14 -9 23.5t-32 9.5q-28 0 -50 -10.5t-41 -25.5l-54 64q35 26 72.5 41t82.5 15q29 0 54.5 -8t44.5 -22.5t30 -34.5t11 -44q0 -53 -47 -84q27 -14 42 -36t15 -51z" />
    <glyph glyph-name="arrowleft" unicode="&#x2190;" horiz-adv-x="1211" 
d="M1186 274q0 -35 -24.5 -60t-59.5 -25t-60 25t-25 60t25 59.5t60 24.5t59.5 -24.5t24.5 -59.5zM458 -97q0 -35 -24.5 -59.5t-59.5 -24.5t-60 24.5t-25 59.5t25 60t60 25t59.5 -25t24.5 -60zM326 88q0 -35 -24.5 -59.5t-59.5 -24.5t-60 24.5t-25 59.5t25 60t60 25t59.5 -25
t24.5 -60zM194 274q0 -35 -24.5 -60t-59.5 -25t-60 25t-25 60t25 59.5t60 24.5t59.5 -24.5t24.5 -59.5zM442 274q0 -35 -24.5 -60t-59.5 -25t-60 25t-25 60t25 59.5t60 24.5t59.5 -24.5t24.5 -59.5zM326 459q0 -35 -24.5 -60t-59.5 -25t-60 25t-25 60t25 59.5t60 24.5
t59.5 -24.5t24.5 -59.5zM690 274q0 -35 -24.5 -60t-59.5 -25t-60 25t-25 60t25 59.5t60 24.5t59.5 -24.5t24.5 -59.5zM458 644q0 -35 -24.5 -60t-59.5 -25t-60 25t-25 60t25 59.5t60 24.5t59.5 -24.5t24.5 -59.5zM938 274q0 -35 -24.5 -60t-59.5 -25t-60 25t-25 60t25 59.5
t60 24.5t59.5 -24.5t24.5 -59.5z" />
    <glyph glyph-name="arrowup" unicode="&#x2191;" horiz-adv-x="1211" 
d="M1060 505q0 -35 -24.5 -59.5t-59.5 -24.5t-60 24.5t-25 59.5t25 60t60 25t59.5 -25t24.5 -60zM690 -223q0 -35 -25 -59.5t-60 -24.5t-59.5 24.5t-24.5 59.5t24.5 60t59.5 25t60 -25t25 -60zM690 25q0 -35 -25 -59.5t-60 -24.5t-59.5 24.5t-24.5 59.5t24.5 60t59.5 25
t60 -25t25 -60zM320 505q0 -35 -25 -59.5t-60 -24.5t-59.5 24.5t-24.5 59.5t24.5 60t59.5 25t60 -25t25 -60zM690 273q0 -35 -25 -59.5t-60 -24.5t-59.5 24.5t-24.5 59.5t24.5 60t59.5 25t60 -25t25 -60zM505 637q0 -35 -25 -59.5t-60 -24.5t-59.5 24.5t-24.5 59.5t24.5 60
t59.5 25t60 -25t25 -60zM690 521q0 -35 -25 -59.5t-60 -24.5t-59.5 24.5t-24.5 59.5t24.5 60t59.5 25t60 -25t25 -60zM690 769q0 -35 -25 -59.5t-60 -24.5t-59.5 24.5t-24.5 59.5t24.5 60t59.5 25t60 -25t25 -60zM875 637q0 -35 -24.5 -59.5t-59.5 -24.5t-60 24.5t-25 59.5
t25 60t60 25t59.5 -25t24.5 -60z" />
    <glyph glyph-name="arrowright" unicode="&#x2192;" horiz-adv-x="1211" 
d="M922 644q0 -35 -25 -60t-60 -25t-59.5 25t-24.5 60t24.5 59.5t59.5 24.5t60 -24.5t25 -59.5zM194 274q0 -35 -25 -60t-60 -25t-59.5 25t-24.5 60t24.5 59.5t59.5 24.5t60 -24.5t25 -59.5zM442 274q0 -35 -25 -60t-60 -25t-59.5 25t-24.5 60t24.5 59.5t59.5 24.5t60 -24.5
t25 -59.5zM922 -97q0 -35 -25 -59.5t-60 -24.5t-59.5 24.5t-24.5 59.5t24.5 60t59.5 25t60 -25t25 -60zM690 274q0 -35 -25 -60t-60 -25t-59.5 25t-24.5 60t24.5 59.5t59.5 24.5t60 -24.5t25 -59.5zM1054 88q0 -35 -25 -59.5t-60 -24.5t-59.5 24.5t-24.5 59.5t24.5 60
t59.5 25t60 -25t25 -60zM938 274q0 -35 -25 -60t-60 -25t-59.5 25t-24.5 60t24.5 59.5t59.5 24.5t60 -24.5t25 -59.5zM1186 274q0 -35 -25 -60t-60 -25t-59.5 25t-24.5 60t24.5 59.5t59.5 24.5t60 -24.5t25 -59.5zM1054 459q0 -35 -25 -60t-60 -25t-59.5 25t-24.5 60
t24.5 59.5t59.5 24.5t60 -24.5t25 -59.5z" />
    <glyph glyph-name="arrowdown" unicode="&#x2193;" horiz-adv-x="1211" 
d="M690 770q0 -35 -25 -60t-60 -25t-59.5 25t-24.5 60t24.5 59.5t59.5 24.5t60 -24.5t25 -59.5zM320 42q0 -35 -25 -60t-60 -25t-59.5 25t-24.5 60t24.5 59.5t59.5 24.5t60 -24.5t25 -59.5zM505 -90q0 -35 -25 -60t-60 -25t-59.5 25t-24.5 60t24.5 59.5t59.5 24.5t60 -24.5
t25 -59.5zM690 -222q0 -35 -25 -60t-60 -25t-59.5 25t-24.5 60t24.5 59.5t59.5 24.5t60 -24.5t25 -59.5zM690 26q0 -35 -25 -60t-60 -25t-59.5 25t-24.5 60t24.5 59.5t59.5 24.5t60 -24.5t25 -59.5zM875 -90q0 -35 -24.5 -60t-59.5 -25t-60 25t-25 60t25 59.5t60 24.5
t59.5 -24.5t24.5 -59.5zM690 274q0 -35 -25 -60t-60 -25t-59.5 25t-24.5 60t24.5 59.5t59.5 24.5t60 -24.5t25 -59.5zM1060 42q0 -35 -24.5 -60t-59.5 -25t-60 25t-25 60t25 59.5t60 24.5t59.5 -24.5t24.5 -59.5zM690 522q0 -35 -25 -60t-60 -25t-59.5 25t-24.5 60
t24.5 59.5t59.5 24.5t60 -24.5t25 -59.5z" />
    <glyph glyph-name="uni2196" unicode="&#x2196;" horiz-adv-x="1211" 
d="M841 83q12 -12 18 -27.5t6 -31.5q0 -18 -7 -33.5t-18.5 -27t-27 -18.5t-32.5 -7q-35 0 -59.5 25t-24.5 60q0 16 6.5 31.5t18 27.5t27 19t33.5 7q33 0 60 -25zM240 161q12 -12 18 -27.5t6 -31.5q0 -18 -7 -33.5t-18.5 -27t-27 -18.5t-32.5 -7q-35 0 -59.5 25t-24.5 60
q0 16 6.5 31.5t18 27.5t27 19t33.5 7q33 0 60 -25zM490 314q-13 -13 -28.5 -19t-31.5 -6q-18 0 -33 7t-26.5 19t-18 27.5t-6.5 32.5q0 34 24.5 59t59.5 25q17 0 32.5 -7t27 -18.5t18.5 -27t7 -32.5q0 -35 -25 -60zM277 265q-13 -13 -28.5 -19t-31.5 -6q-18 0 -33 7t-26.5 19
t-18 27.5t-6.5 32.5q0 34 24.5 59t59.5 25q17 0 32.5 -7t27 -18.5t18.5 -27t7 -32.5q0 -35 -25 -60zM1016 -212q-13 -13 -28.5 -19t-31.5 -6q-18 0 -33 7t-26.5 19t-18 27.5t-6.5 32.5q0 34 24.5 59t59.5 25q17 0 32.5 -7t27 -18.5t18.5 -27t7 -32.5q0 -35 -25 -60zM763 565
q-25 -25 -60 -25t-59.5 24.5t-24.5 59.5q0 17 6.5 32.5t18 27t26.5 18.5t33 7q17 0 32.5 -7t27 -18.5t18.5 -27t7 -32.5q0 -34 -25 -59zM666 258q12 -12 18 -27.5t6 -31.5q0 -17 -7 -32.5t-18.5 -27t-27 -18.5t-32.5 -7q-35 0 -59.5 25.5t-24.5 59.5t24.5 59t59.5 25
q34 0 61 -25zM315 609q12 -12 18 -27.5t6 -31.5q0 -17 -7 -32.5t-18.5 -27t-27 -18.5t-32.5 -7q-34 0 -59 25t-25 59q0 16 6.5 31.5t18 27.5t27 19t33.5 7q33 0 60 -25zM539 528q-25 -25 -60 -25t-59.5 24.5t-24.5 59.5q0 16 6.5 31.5t18 27t26.5 18.5t33 7q17 0 32.5 -7
t27 -18.5t18.5 -26.5t7 -32q0 -34 -25 -59z" />
    <glyph glyph-name="uni2197" unicode="&#x2197;" horiz-adv-x="1211" 
d="M979 385q12 -12 18 -27.5t6 -31.5q0 -18 -7 -33.5t-18.5 -27t-27 -18.5t-32.5 -7q-35 0 -59.5 25t-24.5 60q0 16 6.5 31.5t18 27.5t27 19t33.5 7q33 0 60 -25zM240 -92q12 -12 18 -27.5t6 -31.5q0 -18 -7 -33.5t-18.5 -27t-27 -18.5t-32.5 -7q-35 0 -59.5 25t-24.5 60
q0 16 6.5 31.5t18 27.5t27 19t33.5 7q33 0 60 -25zM415 -37q-13 -13 -28.5 -19t-31.5 -6q-18 0 -33 7t-26.5 19t-18 27.5t-6.5 32.5q0 34 24.5 59t59.5 25q17 0 32.5 -7t27 -18.5t18.5 -27t7 -32.5q0 -35 -25 -60zM1016 41q-13 -13 -28.5 -19t-31.5 -6q-18 0 -33 7t-26.5 19
t-18 27.5t-6.5 32.5q0 34 24.5 59t59.5 25q17 0 32.5 -7t27 -18.5t18.5 -27t7 -32.5q0 -35 -25 -60zM591 258q12 -12 18 -27.5t6 -31.5q0 -17 -7 -32.5t-18.5 -27t-27 -18.5t-32.5 -7q-35 0 -59.5 25.5t-24.5 59.5t24.5 59t59.5 25q34 0 61 -25zM492 564q-12 -12 -27.5 -18
t-31.5 -6q-34 0 -59.5 24.5t-25.5 59.5q0 17 7 32.5t18.5 27t27 18.5t32.5 7q35 0 59.5 -25t24.5 -60t-25 -60zM717 527q-12 -12 -27.5 -18t-31.5 -6q-35 0 -60.5 24.5t-25.5 59.5q0 17 7 32t19 26.5t27.5 18.5t32.5 7q34 0 59 -25t25 -59q0 -35 -25 -60zM766 434
q12 -12 18 -27.5t6 -31.5q0 -17 -7 -32.5t-18.5 -27.5t-26.5 -19t-32 -7q-35 0 -59.5 25.5t-24.5 60.5q0 34 24.5 59t59.5 25q33 0 60 -25zM941 490q-13 -13 -28.5 -19t-31.5 -6q-35 0 -59.5 25.5t-24.5 59.5t24.5 59t59.5 25q17 0 32.5 -7t27 -19t18.5 -27.5t7 -31.5
q0 -34 -25 -59z" />
    <glyph glyph-name="uni2198" unicode="&#x2198;" horiz-adv-x="1211" 
d="M591 214q-13 -13 -28.5 -19t-32.5 -6q-35 0 -59.5 24.5t-24.5 59.5q0 16 6.5 31.5t18 27.5t26.5 19.5t33 7.5q35 0 60 -25.5t25 -60.5q0 -16 -6 -31.5t-18 -27.5zM717 -175q-12 -12 -27.5 -18t-31.5 -6q-17 0 -32.5 6.5t-27.5 18t-19 26.5t-7 33q0 16 6.5 31.5t18 27.5
t27 19t33.5 7q17 0 32.5 -7t27 -18.5t18.5 -27t7 -32.5q0 -35 -25 -60zM415 389q-25 -25 -60 -25t-59.5 24.5t-24.5 59.5q0 16 6.5 31.5t18 27.5t26.5 19.5t33 7.5q16 0 31.5 -7t27.5 -18.5t19 -27t7 -32.5q0 -35 -25 -60zM941 -137q-25 -25 -60 -25t-59.5 24.5t-24.5 59.5
q0 16 6.5 31.5t18 27.5t26.5 19.5t33 7.5q16 0 31.5 -7t27.5 -18.5t19 -27t7 -32.5q0 -35 -25 -60zM492 -212q-13 -13 -28.5 -19t-31.5 -6q-34 0 -59 25t-25 59q0 17 7 32.5t18.5 27t27 18.5t32.5 7q34 0 59 -25t25 -59q0 -35 -25 -60zM240 565q-25 -25 -60 -25t-60 24.5
t-25 59.5q0 16 6.5 31t17.5 27t26.5 19.5t33.5 7.5q17 0 32.5 -7t27 -18.5t18.5 -27t7 -32.5q0 -16 -6 -31.5t-18 -27.5zM979 88q-25 -25 -60 -25t-60 24.5t-25 59.5q0 16 6.5 31t17.5 27t26.5 19.5t33.5 7.5q17 0 32.5 -7t27 -18.5t18.5 -27t7 -32.5q0 -16 -6 -31.5
t-18 -27.5zM1016 312q-12 -14 -28 -19.5t-32 -5.5q-35 0 -59.5 24.5t-24.5 59.5q0 16 6.5 31.5t18 27.5t26.5 19t33 7q17 0 32.5 -7t27 -18.5t18.5 -27t7 -32.5q0 -34 -25 -59zM766 39q-25 -25 -60 -25t-59.5 24.5t-24.5 59.5q0 16 6.5 31.5t18 27.5t27 19t32.5 7t32 -7
t26.5 -18.5t18.5 -27t7 -32.5q0 -16 -6 -31.5t-18 -27.5z" />
    <glyph glyph-name="uni2199" unicode="&#x2199;" horiz-adv-x="1211" 
d="M666 214q-13 -13 -28.5 -19t-32.5 -6q-35 0 -59.5 24.5t-24.5 59.5q0 16 6.5 31.5t18 27.5t26.5 19.5t33 7.5q35 0 60 -25.5t25 -60.5q0 -16 -6 -31.5t-18 -27.5zM315 -137q-25 -25 -60 -25t-60 25t-25 60q0 16 6.5 31.5t18 27.5t26.5 19t33 7q35 0 60 -25.5t25 -60.5
q0 -16 -6 -31.5t-18 -27.5zM841 389q-25 -25 -60 -25t-60 25t-25 60q0 16 6.5 31.5t18 27.5t26.5 19t33 7q35 0 60 -25.5t25 -60.5q0 -16 -6 -31.5t-18 -27.5zM240 312q-25 -25 -60 -25t-60 24.5t-25 59.5q0 16 6.5 31t17.5 27t26.5 19.5t33.5 7.5q17 0 32.5 -7t27 -18.5
t18.5 -27t7 -32.5q0 -16 -6 -31.5t-18 -27.5zM763 -212q-13 -13 -28.5 -19t-31.5 -6q-35 0 -59.5 25t-24.5 60q0 16 6.5 31.5t18 27t26.5 18.5t33 7q17 0 32.5 -7t27 -18.5t18.5 -27t7 -32.5q0 -34 -25 -59zM490 39q-25 -25 -60 -25t-59.5 24.5t-24.5 59.5q0 16 6.5 31.5
t18 27.5t26.5 19t33 7q17 0 32.5 -7t27 -18.5t18.5 -27t7 -32.5q0 -34 -25 -59zM539 -174q-25 -25 -60 -25t-59.5 24.5t-24.5 59.5q0 16 6.5 31.5t18 27.5t26.5 19t33 7q17 0 32.5 -7t27 -18.5t18.5 -27t7 -32.5q0 -34 -25 -59zM277 88q-25 -25 -60 -25t-59.5 24.5
t-24.5 59.5q0 16 6.5 31.5t18 27.5t26.5 19t33 7q17 0 32.5 -7t27 -18.5t18.5 -27t7 -32.5q0 -34 -25 -59zM1016 565q-25 -25 -60 -25t-59.5 24.5t-24.5 59.5q0 16 6.5 31.5t18 27.5t26.5 19t33 7q17 0 32.5 -7t27 -18.5t18.5 -27t7 -32.5q0 -34 -25 -59z" />
    <glyph glyph-name="partialdiff" unicode="&#x2202;" horiz-adv-x="535" 
d="M490 241q0 -63 -17 -110t-47.5 -79t-71.5 -48t-89 -16q-47 0 -87.5 15.5t-70 44.5t-46.5 71t-17 95q0 48 16 86.5t44 66t67 42t85 14.5q15 0 28 -1t24 -2q-28 39 -66 72q-39 35 -98 63.5t-144 38.5l80 95q35 -4 74.5 -16t79 -31.5t76.5 -46t66 -60.5q56 -66 85 -139
t29 -155zM357 233q0 16 -2 34t-4 31q-14 9 -33.5 14t-55.5 5q-39 0 -61 -27t-22 -78t24 -83t68 -32t65 38.5t21 97.5z" />
    <glyph glyph-name="Delta" unicode="&#x2206;" horiz-adv-x="599" 
d="M558 0h-533v106l215 591h124l215 -599zM339 370q-3 8 -8.5 27.5l-12 41.5t-11.5 42q-5 17 -6 26q-2 -9 -7 -26q-5 -20 -11.5 -41.5t-13.5 -41.5l-9 -28l-89 -250h253z" />
    <glyph glyph-name="product" unicode="&#x220f;" horiz-adv-x="717" 
d="M409 -196v100h69v635h-238v-635h69v-100h-274v100h73v635h-73v114h647v-114h-72v-635h72v-100h-273z" />
    <glyph glyph-name="summation" unicode="&#x2211;" horiz-adv-x="507" 
d="M436 -196h-401l1 90l240 351l-237 350l32 92h397l-39 -112h-208l221 -327l-230 -331h260z" />
    <glyph glyph-name="minus" unicode="&#x2212;" horiz-adv-x="577" 
d="M45 223v103h487v-103h-487z" />
    <glyph glyph-name="uni2219" unicode="&#x2219;" horiz-adv-x="638" 
d="M496 354q0 -37 -14 -69t-38 -56t-56 -38t-69 -14t-69 14t-56 38t-38 56t-14 69t14 69t38 56t56 38t69 14t69 -14t56 -38t38 -56t14 -69z" />
    <glyph glyph-name="radical" unicode="&#x221a;" horiz-adv-x="600" 
d="M329 -8h-109l-149 426h-66v94h166l87 -239q6 -16 10 -37t9 -36q4 12 8 30.5t9 32.5l165 459h136z" />
    <glyph glyph-name="infinity" unicode="&#x221e;" horiz-adv-x="958" 
d="M923 262q0 -48 -18.5 -83t-48 -57.5t-65.5 -33.5t-71 -11q-48 0 -92 15.5t-80 41.5l-73 51l-66 -48q-44 -32 -86 -46.5t-90 -14.5q-30 0 -64.5 8t-64.5 28t-49.5 54.5t-19.5 87.5q0 49 18.5 84.5t47.5 58t66 33t73 10.5q47 0 92 -16.5t87 -45.5l66 -46l67 50
q41 30 86.5 44.5t88.5 14.5q30 0 64.5 -8t63.5 -28.5t48.5 -55t19.5 -87.5zM792 261q0 28 -20 46t-53 18q-24 0 -52 -11t-50 -28l-33 -25l50 -33q20 -13 41 -22.5t44 -9.5q21 0 35 6t22.5 15.5t12 21t3.5 22.5zM325 290q-19 14 -40.5 22t-44.5 8q-21 0 -35 -6t-22.5 -15.5
t-12 -21t-3.5 -22.5q0 -28 20 -46t53 -18q25 0 52 12t50 29l32 23z" />
    <glyph glyph-name="integral" unicode="&#x222b;" horiz-adv-x="242" 
d="M344 583q-24 17 -38.5 24t-27.5 7q-22 0 -33 -17t-13 -48l-42 -574q-2 -30 -8.5 -51.5t-16 -38t-22 -28.5t-26.5 -22q-21 -15 -45.5 -23t-55.5 -8q-24 0 -56.5 9t-64.5 26l53 110q24 -17 38.5 -24t27.5 -7q22 0 33 17.5t13 46.5l42 574q4 59 23.5 90t48.5 51
q42 30 102 30q24 0 56.5 -9t64.5 -26z" />
    <glyph glyph-name="approxequal" unicode="&#x2248;" horiz-adv-x="572" 
d="M517 362q-8 -16 -19.5 -31.5t-26.5 -27.5t-34.5 -19.5t-44.5 -7.5q-26 0 -54 9.5t-57 22.5l-55 24t-47 12q-26 0 -45 -18t-43 -50l-36 108q8 16 19.5 31.5t26.5 27.5t34.5 19.5t44.5 7.5q26 0 54 -9.5t57 -22.5l55 -24t47 -12q26 0 46 19.5t42 48.5zM517 162
q-8 -16 -19.5 -31.5t-26.5 -27.5t-34.5 -19.5t-44.5 -7.5q-26 0 -54 9.5t-57 22.5l-55 24t-47 12q-26 0 -45 -18t-43 -50l-36 108q8 16 19.5 31.5t26.5 27.5t34.5 19.5t44.5 7.5q26 0 54 -9.5t57 -22.5l55 -24t47 -12q26 0 46 19.5t42 48.5z" />
    <glyph glyph-name="notequal" unicode="&#x2260;" horiz-adv-x="658" 
d="M55 336v126h315l91 153l80 -49l-33 -55q-8 -12 -20 -27l-18 -22h133v-126h-208l-37 -66h245v-126h-315l-91 -153l-80 49l33 55q3 5 8.5 12.5l11 14.5l10.5 13t8 9h-133v126h208l37 66h-245z" />
    <glyph glyph-name="lessequal" unicode="&#x2264;" horiz-adv-x="443" 
d="M25 258v96l383 178v-131l-206 -87l206 -70v-128zM25 0v109h383v-109h-383z" />
    <glyph glyph-name="greaterequal" unicode="&#x2265;" horiz-adv-x="443" 
d="M35 116v130l206 68l-206 87v131l383 -178v-96zM35 0v109h383v-109h-383z" />
    <glyph glyph-name="dotmath" unicode="&#x22c5;" horiz-adv-x="638" 
d="M408 273q0 -18 -7 -34t-19 -28t-28.5 -19t-35.5 -7q-37 0 -62.5 26t-25.5 63t26 63.5t64 26.5q37 0 62.5 -26.5t25.5 -64.5z" />
    <glyph glyph-name="filledbox" unicode="&#x25a0;" horiz-adv-x="834" 
d="M45 -18v744h744v-744h-744z" />
    <glyph glyph-name="H22073" unicode="&#x25a1;" horiz-adv-x="834" 
d="M45 -18v744h744v-744h-744zM689 626h-544v-544h544v544z" />
    <glyph glyph-name="uni25B4" unicode="&#x25b4;" horiz-adv-x="516" 
d="M80 157l178 386l178 -386h-356z" />
    <glyph glyph-name="uni25B8" unicode="&#x25b8;" horiz-adv-x="516" 
d="M65 528l386 -178l-386 -178v356z" />
    <glyph glyph-name="uni25BE" unicode="&#x25be;" horiz-adv-x="516" 
d="M258 157l-178 386h356z" />
    <glyph glyph-name="uni25C2" unicode="&#x25c2;" horiz-adv-x="516" 
d="M451 172l-386 178l386 178v-356z" />
    <glyph glyph-name="lozenge" unicode="&#x25ca;" horiz-adv-x="572" 
d="M342 0h-116l-181 344l181 343h116l185 -343zM281 603l-118 -259l118 -260l122 260z" />
    <glyph glyph-name="circle" unicode="&#x25cb;" horiz-adv-x="834" 
d="M789 354q0 -77 -29.5 -144.5t-80 -118t-118 -80t-144.5 -29.5t-144.5 29.5t-118 80t-80 118t-29.5 144.5t29.5 144.5t80 118t118 80t144.5 29.5t144.5 -29.5t118 -80t80 -118t29.5 -144.5zM687 354q0 58 -21 109.5t-58 89.5t-86 60.5t-105 22.5t-105 -22.5t-86 -60.5
t-58 -89.5t-21 -109.5t21 -109.5t58 -89.5t86 -60.5t105 -22.5t105 22.5t86 60.5t58 89.5t21 109.5z" />
    <glyph glyph-name="H18533" unicode="&#x25cf;" horiz-adv-x="834" 
d="M789 354q0 -77 -29.5 -144.5t-80 -118t-118 -80t-144.5 -29.5t-144.5 29.5t-118 80t-80 118t-29.5 144.5t29.5 144.5t80 118t118 80t144.5 29.5t144.5 -29.5t118 -80t80 -118t29.5 -144.5z" />
    <glyph glyph-name="orn001" unicode="&#xea01;" horiz-adv-x="834" 
d="M789 354q0 -77 -29.5 -144.5t-80 -118t-118 -80t-144.5 -29.5t-144.5 29.5t-118 80t-80 118t-29.5 144.5t29.5 144.5t80 118t118 80t144.5 29.5t144.5 -29.5t118 -80t80 -118t29.5 -144.5zM687 354q0 58 -21 109.5t-58 89.5t-86 60.5t-105 22.5t-105 -22.5t-86 -60.5
t-58 -89.5t-21 -109.5t21 -109.5t58 -89.5t86 -60.5t105 -22.5t105 22.5t86 60.5t58 89.5t21 109.5zM267 176v356l386 -178z" />
    <glyph glyph-name="orn002" unicode="&#xea02;" horiz-adv-x="834" 
d="M789 354q0 -77 -29.5 -144.5t-80 -118t-118 -80t-144.5 -29.5t-144.5 29.5t-118 80t-80 118t-29.5 144.5t29.5 144.5t80 118t118 80t144.5 29.5t144.5 -29.5t118 -80t80 -118t29.5 -144.5zM267 532v-356l386 178z" />
    <glyph glyph-name="orn003" unicode="&#xea03;" horiz-adv-x="834" 
d="M45 -18v744h744v-744h-744zM689 626h-544v-544h544v544zM257 176v356l386 -178z" />
    <glyph glyph-name="orn004" unicode="&#xea04;" horiz-adv-x="834" 
d="M45 -18v744h744v-744h-744zM257 532v-356l386 178z" />
    <glyph glyph-name="uniFB00" unicode="&#xfb00;" horiz-adv-x="600" 
d="M206 418v-418h-131v418h-46v94h49q0 17 -2.5 35t-2.5 35q0 76 43 117.5t122 41.5q33 0 61.5 -7.5t59.5 -24.5l-43 -83q-22 11 -32.5 14t-22.5 3q-26 0 -41 -15t-15 -43v-73h169q0 17 -2.5 35t-2.5 35q0 76 43 117.5t122 41.5q33 0 63.5 -7t47.5 -17l-43 -83
q-10 5 -23.5 7t-21.5 2q-26 0 -41 -15t-15 -43v-73h123l-34 -94h-85v-418h-131v418h-168z" />
    <glyph glyph-name="fi" unicode="&#xfb01;" horiz-adv-x="586" 
d="M377 0v418h-171v-418h-131v418h-46v94h49q0 17 -2.5 35t-2.5 35q0 76 43 117.5t122 41.5q33 0 63.5 -7t47.5 -17l-43 -83q-10 5 -23.5 7t-21.5 2q-26 0 -41 -15t-15 -43v-73h306v-512h-134zM527 653q0 -35 -24 -59t-59 -24q-34 0 -58 24t-24 59t24.5 59t59.5 24
q34 0 57.5 -24t23.5 -59z" />
    <glyph glyph-name="fl" unicode="&#xfb02;" horiz-adv-x="590" 
d="M303 634q-10 5 -23.5 7t-21.5 2q-26 0 -41 -15t-15 -43v-73h123l-34 -94h-85v-418h-131v418h-46v94h46q0 17 -2.5 35t-2.5 35q0 76 43 117.5t122 41.5q33 0 63.5 -7t47.5 -17zM585 2q-36 -14 -80 -14q-43 0 -75 19t-44 51q-4 10 -6 19t-3.5 21t-2 30t-0.5 45v382
q0 51 -1.5 85t-5.5 69l137 31q4 -21 5.5 -50t1.5 -83v-399q0 -33 0.5 -53t1 -32t2.5 -18t5 -11q8 -14 27 -14q10 0 15 2z" />
    <glyph glyph-name="uniFB03" unicode="&#xfb03;" horiz-adv-x="888" 
d="M206 418v-418h-131v418h-46v94h49q0 17 -2.5 35t-2.5 35q0 76 43 117.5t122 41.5q33 0 61.5 -7.5t59.5 -24.5l-43 -83q-22 11 -32.5 14t-22.5 3q-26 0 -41 -15t-15 -43v-73h175q0 17 -2.5 36t-2.5 34q0 76 43 117.5t122 41.5q33 0 63.5 -7t47.5 -17l-43 -83
q-10 5 -23.5 7t-21.5 2q-26 0 -41 -15t-15 -43v-73h306v-512h-134v418h-171v-418h-131v418h-171zM748 736q34 0 57.5 -24t23.5 -59t-24 -59t-59 -24q-34 0 -58 24t-24 59t24.5 59t59.5 24z" />
    <glyph glyph-name="uniFB04" unicode="&#xfb04;" horiz-adv-x="889" 
d="M206 418v-418h-131v418h-46v94h49q0 17 -2.5 35t-2.5 35q0 76 43 117.5t122 41.5q33 0 61.5 -7.5t59.5 -24.5l-43 -83q-22 11 -32.5 14t-22.5 3q-26 0 -41 -15t-15 -43v-73h169q0 17 -2.5 35t-2.5 35q0 76 43 117.5t122 41.5q33 0 63.5 -7t47.5 -17l-43 -83
q-10 5 -23.5 7t-21.5 2q-26 0 -41 -15t-15 -43v-73h123l-34 -94h-85v-418h-131v418h-168zM803 740q4 -21 5.5 -50t1.5 -83v-399q0 -33 0.5 -53t1 -32t2.5 -18t5 -11q8 -14 27 -14h7q3 0 8 2l23 -80q-36 -14 -80 -14q-43 0 -75 19t-44 51q-4 10 -6 19t-3.5 21t-2 30t-0.5 45
v382q0 51 -1.5 85t-5.5 69z" />
    <glyph glyph-name="uniFB06" unicode="&#xfb06;" horiz-adv-x="838" 
d="M316 141q0 26 -19 40.5t-60 22.5q-24 4 -45.5 8t-40.5 10.5t-36 16.5t-32 28q-14 16 -21.5 41.5t-7.5 50.5q0 37 14 68t40 53t62.5 34t81.5 12h13q6 0 13 -1q-8 11 -14 25t-6 35q0 36 16 64.5t43 49t63 31.5t76 11q60 0 120 -13.5t119 -30.5v-185h120l-34 -92h-86v-257
q0 -49 11.5 -65.5t46.5 -16.5q9 0 19.5 2.5t28.5 7.5l17 -80q-56 -23 -109 -23q-51 0 -88.5 20.5t-49.5 54.5q-3 8 -5 15t-2.5 15t-1 19.5t-0.5 29.5v278h-51v92h51v116l-48.5 16.5t-60.5 8.5q-17 0 -35 -4.5t-33 -14t-24.5 -24t-9.5 -33.5q0 -21 12.5 -45.5t47.5 -41.5
l24 -12l-44 -90q-38 20 -67.5 28.5t-58.5 8.5t-47 -13.5t-18 -36.5q0 -20 14.5 -31.5t49.5 -20.5l62 -16q24 -6 40 -12.5t27.5 -14t19.5 -15t15 -16.5q28 -35 28 -87q0 -40 -16 -72.5t-44.5 -56t-69 -36.5t-89.5 -13q-94 0 -207 59l48 98q15 -9 35.5 -19.5t43 -19t46 -14
t45.5 -5.5q29 0 48.5 16.5t19.5 41.5z" />
    <glyph glyph-name="grave.lc" horiz-adv-x="543" 
d="M322 557l-224 100l58 104l207 -130z" />
    <glyph glyph-name="acute.lc" horiz-adv-x="543" 
d="M193 557l-41 74l207 130l58 -104z" />
    <glyph glyph-name="circumflex.lc" horiz-adv-x="543" 
d="M409 552l-139 76l-135 -76l-45 73l180 135l184 -135z" />
    <glyph glyph-name="caron.lc" horiz-adv-x="479" 
d="M245 554l-184 135l45 73l139 -76l135 76l45 -73z" />
    <glyph glyph-name="ring.lc" horiz-adv-x="522" 
d="M366 659q0 -22 -8.5 -41t-23 -33.5t-33.5 -23t-41 -8.5q-21 0 -40 8.5t-33.5 23t-22.5 33.5t-8 41t8.5 41t23 33.5t34 23t40.5 8.5t40 -8.5t33.5 -23t22.5 -33.5t8 -41zM311 659q0 21 -14.5 36t-34.5 15q-22 0 -37 -15t-15 -36t15 -36t35 -15q21 0 36 15t15 36z" />
    <glyph glyph-name="tilde.lc" horiz-adv-x="543" 
d="M452 639q-23 -29 -51 -43.5t-73 -14.5q-23 0 -38 5.5t-28.5 11.5t-28 11.5t-36.5 5.5q-41 0 -68 -29l-41 75q21 26 51.5 42t72.5 16q22 0 37 -5.5t28.5 -11.5t28.5 -11.5t37 -5.5q41 0 68 30z" />
    <glyph glyph-name="diedot.lc" horiz-adv-x="543" 
d="M242 635q0 -32 -22.5 -54.5t-54.5 -22.5q-31 0 -53.5 22.5t-22.5 54.5t23 54.5t55 22.5q31 0 53 -22.5t22 -54.5z" />
    <glyph glyph-name="grave.uc" horiz-adv-x="690" 
d="M421 717l-224 100l58 104l207 -130z" />
    <glyph glyph-name="acute.uc" horiz-adv-x="690" 
d="M262 717l-41 74l207 130l58 -104z" />
    <glyph glyph-name="circumflex.uc" horiz-adv-x="690" 
d="M485 712l-139 76l-135 -76l-45 73l180 135l184 -135z" />
    <glyph glyph-name="caron.uc" horiz-adv-x="540" 
d="M270 734l-184 135l45 73l139 -76l135 76l45 -73z" />
    <glyph glyph-name="ring.uc" horiz-adv-x="260" 
d="M235 819q0 -22 -8.5 -41t-23 -33.5t-33.5 -23t-41 -8.5q-21 0 -40 8.5t-33.5 23t-22.5 33.5t-8 41t8.5 41t23 33.5t34 23t40.5 8.5t40 -8.5t33.5 -23t22.5 -33.5t8 -41zM180 819q0 21 -14.5 36t-34.5 15q-22 0 -37 -15t-15 -36t15 -36t35 -15q21 0 36 15t15 36z" />
    <glyph glyph-name="tilde.uc" horiz-adv-x="633" 
d="M492 799q-23 -29 -51 -43.5t-73 -14.5q-23 0 -38 5.5t-28.5 11.5t-28 11.5t-36.5 5.5q-41 0 -68 -29l-41 75q21 26 51.5 42t72.5 16q22 0 37 -5.5t28.5 -11.5t28.5 -11.5t37 -5.5q41 0 68 30z" />
    <glyph glyph-name="diedot.uc" horiz-adv-x="690" 
d="M316 795q0 -32 -22.5 -54.5t-54.5 -22.5q-31 0 -53.5 22.5t-22.5 54.5t23 54.5t55 22.5q31 0 53 -22.5t22 -54.5z" />
    </font>
</defs>
</svg>
